<?xml version="1.0" encoding="UTF-8"?>
<svg xmlns="http://www.w3.org/2000/svg" xmlns:xlink="http://www.w3.org/1999/xlink"
     width="1128.1906642222536" height="1504.2542189630049" viewBox="0 0 300 400">
<defs>
</defs>
<path d="M12.677325875272622,0 l5,0 M17.677325875272622,0 a17.24318805437759,10.0,0,0,1,0,20 M17.677325875272622,20 l-5,0 M17.677325875272622,0 l-5,0 M12.677325875272622,0 l-12.677325875272622,10.0 M0.0,10.0 l12.677325875272622,10.0 M19.177325875272622,0" stroke-width="0.1" stroke="black" fill="black" fill-opacity="0.0" />
<text x="12.677325875272622" y="14" font-size="4" fill="blue">AM</text>
<text x="12.677325875272622" y="19" font-size="4" fill="blue">0</text>
<rect x="14.177325875272622" y="0" width="2" height="9.5" stroke="black" stroke-width="0.1" fill-opacity="0" />
<path d="M48.143185169887914,0 l5,0 M53.143185169887914,0 a16.877894537936275,10.0,0,0,1,0,20 M53.143185169887914,20 l-5,0 M53.143185169887914,0 l-5,0 M48.143185169887914,0 l-13.222671240237705,10.0 M34.92051392965021,10.0 l13.222671240237705,10.0 M54.643185169887914,0" stroke-width="0.1" stroke="black" fill="black" fill-opacity="0.0" />
<text x="48.143185169887914" y="14" font-size="4" fill="blue">AM</text>
<text x="48.143185169887914" y="19" font-size="4" fill="blue">1</text>
<rect x="49.643185169887914" y="0" width="2" height="9.5" stroke="black" stroke-width="0.1" fill-opacity="0" />
<path d="M83.64891018568785,0 l5,0 M88.64891018568785,0 a16.382630852905447,10.0,0,0,1,0,20 M88.64891018568785,20 l-5,0 M88.64891018568785,0 l-5,0 M83.64891018568785,0 l-13.627830477863665,10.0 M70.02107970782419,10.0 l13.627830477863665,10.0 M90.14891018568785,0" stroke-width="0.1" stroke="black" fill="black" fill-opacity="0.0" />
<text x="83.64891018568785" y="14" font-size="4" fill="blue">AM</text>
<text x="83.64891018568785" y="19" font-size="4" fill="blue">2</text>
<rect x="85.14891018568785" y="0" width="2" height="9.5" stroke="black" stroke-width="0.1" fill-opacity="0" />
<path d="M119.08563279307015,0 l5,0 M124.08563279307015,0 a16.09793613097619,10.0,0,0,1,0,20 M124.08563279307015,20 l-5,0 M124.08563279307015,0 l-5,0 M119.08563279307015,0 l-14.054091754476847,10.0 M105.0315410385933,10.0 l14.054091754476847,10.0 M125.58563279307015,0" stroke-width="0.1" stroke="black" fill="black" fill-opacity="0.0" />
<text x="119.08563279307015" y="14" font-size="4" fill="blue">AM</text>
<text x="119.08563279307015" y="19" font-size="4" fill="blue">3</text>
<rect x="120.58563279307015" y="0" width="2" height="9.5" stroke="black" stroke-width="0.1" fill-opacity="0" />
<path d="M156.56020513380983,0 l5,0 M161.56020513380983,0 a15.786186300230598,10.0,0,0,1,0,20 M161.56020513380983,20 l-5,0 M161.56020513380983,0 l-5,0 M156.56020513380983,0 l-16.376636209763483,10.0 M140.18356892404634,10.0 l16.376636209763483,10.0 M163.06020513380983,0" stroke-width="0.1" stroke="black" fill="black" fill-opacity="0.0" />
<text x="156.56020513380983" y="14" font-size="4" fill="blue">AM</text>
<text x="156.56020513380983" y="19" font-size="4" fill="blue">4</text>
<rect x="158.06020513380983" y="0" width="2" height="9.5" stroke="black" stroke-width="0.1" fill-opacity="0" />
<path d="M196.4110495019399,0 l5,0 M201.4110495019399,0 a16.049415197763324,10.0,0,0,1,0,20 M201.4110495019399,20 l-5,0 M201.4110495019399,0 l-5,0 M196.4110495019399,0 l-19.064658067899504,10.0 M177.3463914340404,10.0 l19.064658067899504,10.0 M202.9110495019399,0" stroke-width="0.1" stroke="black" fill="black" fill-opacity="0.0" />
<text x="196.4110495019399" y="14" font-size="4" fill="blue">AM</text>
<text x="196.4110495019399" y="19" font-size="4" fill="blue">5</text>
<rect x="197.9110495019399" y="0" width="2" height="9.5" stroke="black" stroke-width="0.1" fill-opacity="0" />
<path d="M235.63385566161386,0 l5,0 M240.63385566161386,0 a18.690673369950947,10.0,0,0,1,0,20 M240.63385566161386,20 l-5,0 M240.63385566161386,0 l-5,0 M235.63385566161386,0 l-18.173390961910624,10.0 M217.46046469970324,10.0 l18.173390961910624,10.0 M242.13385566161386,0" stroke-width="0.1" stroke="black" fill="black" fill-opacity="0.0" />
<text x="235.63385566161386" y="14" font-size="4" fill="blue">AM</text>
<text x="235.63385566161386" y="19" font-size="4" fill="blue">6</text>
<rect x="237.13385566161386" y="0" width="2" height="9.5" stroke="black" stroke-width="0.1" fill-opacity="0" />
<path d="M273.0320050083398,0 l5,0 M278.0320050083398,0 a17.4892850432459,10.0,0,0,1,0,20 M278.0320050083398,20 l-5,0 M278.0320050083398,0 l-5,0 M273.0320050083398,0 l-13.707475976775019,10.0 M259.3245290315648,10.0 l13.707475976775019,10.0 M279.5320050083398,0" stroke-width="0.1" stroke="black" fill="black" fill-opacity="0.0" />
<text x="273.0320050083398" y="14" font-size="4" fill="blue">AM</text>
<text x="273.0320050083398" y="19" font-size="4" fill="blue">7</text>
<rect x="274.5320050083398" y="0" width="2" height="9.5" stroke="black" stroke-width="0.1" fill-opacity="0" />
<path d="M15.316745732231126,20 l5,0 M20.316745732231126,20 a20.13054321543352,10.0,0,0,1,0,20 M20.316745732231126,40 l-5,0 M20.316745732231126,20 l-5,0 M15.316745732231126,20 l-15.316745732231125,10.0 M1.7763568394002505e-15,30.0 l15.316745732231125,10.0 M21.816745732231126,20" stroke-width="0.1" stroke="black" fill="black" fill-opacity="0.0" />
<text x="15.316745732231126" y="34" font-size="4" fill="blue">AM</text>
<text x="15.316745732231126" y="39" font-size="4" fill="blue">8</text>
<rect x="16.816745732231126" y="20" width="2" height="9.5" stroke="black" stroke-width="0.1" fill-opacity="0" />
<path d="M54.3777356625217,20 l5,0 M59.3777356625217,20 a20.13054321543352,10.0,0,0,1,0,20 M59.3777356625217,40 l-5,0 M59.3777356625217,20 l-5,0 M54.3777356625217,20 l-13.930446714857057,10.0 M40.447288947664646,30.0 l13.930446714857057,10.0 M60.8777356625217,20" stroke-width="0.1" stroke="black" fill="black" fill-opacity="0.0" />
<text x="54.3777356625217" y="34" font-size="4" fill="blue">AM</text>
<text x="54.3777356625217" y="39" font-size="4" fill="blue">9</text>
<rect x="55.8777356625217" y="20" width="2" height="9.5" stroke="black" stroke-width="0.1" fill-opacity="0" />
<path d="M89.20955207639359,20 l5,0 M94.20955207639359,20 a14.848026871058279,10.0,0,0,1,0,20 M94.20955207639359,40 l-5,0 M94.20955207639359,20 l-5,0 M89.20955207639359,20 l-9.701273198438368,10.0 M79.50827887795522,30.0 l9.701273198438368,10.0 M95.70955207639359,20" stroke-width="0.1" stroke="black" fill="black" fill-opacity="0.0" />
<text x="89.20955207639359" y="34" font-size="4" fill="blue">AM</text>
<text x="89.20955207639359" y="39" font-size="4" fill="blue">10</text>
<rect x="90.70955207639359" y="20" width="2" height="9.5" stroke="black" stroke-width="0.1" fill-opacity="0" />
<path d="M118.96528179625295,20 l5,0 M123.96528179625295,20 a14.848026871058279,10.0,0,0,1,0,20 M123.96528179625295,40 l-5,0 M123.96528179625295,20 l-5,0 M118.96528179625295,20 l-9.907702848801073,10.0 M109.05757894745187,30.0 l9.907702848801073,10.0 M125.46528179625295,20" stroke-width="0.1" stroke="black" fill="black" fill-opacity="0.0" />
<text x="118.96528179625295" y="34" font-size="4" fill="blue">AM</text>
<text x="118.96528179625295" y="39" font-size="4" fill="blue">11</text>
<rect x="120.46528179625295" y="20" width="2" height="9.5" stroke="black" stroke-width="0.1" fill-opacity="0" />
<path d="M147.62543259949007,20 l5,0 M152.62543259949007,20 a14.848026871058279,10.0,0,0,1,0,20 M152.62543259949007,40 l-5,0 M152.62543259949007,20 l-5,0 M147.62543259949007,20 l-8.812123932178835,10.0 M138.81330866731122,30.0 l8.812123932178835,10.0 M154.12543259949007,20" stroke-width="0.1" stroke="black" fill="black" fill-opacity="0.0" />
<text x="147.62543259949007" y="34" font-size="4" fill="blue">AM</text>
<text x="147.62543259949007" y="39" font-size="4" fill="blue">12</text>
<rect x="149.12543259949007" y="20" width="2" height="9.5" stroke="black" stroke-width="0.1" fill-opacity="0" />
<path d="M173.5887613254224,20 l5,0 M178.5887613254224,20 a14.848026871058279,10.0,0,0,1,0,20 M178.5887613254224,40 l-5,0 M178.5887613254224,20 l-5,0 M173.5887613254224,20 l-6.115301854874083,10.0 M167.47345947054833,30.0 l6.115301854874083,10.0 M180.0887613254224,20" stroke-width="0.1" stroke="black" fill="black" fill-opacity="0.0" />
<text x="173.5887613254224" y="34" font-size="4" fill="blue">AM</text>
<text x="173.5887613254224" y="39" font-size="4" fill="blue">13</text>
<rect x="175.0887613254224" y="20" width="2" height="9.5" stroke="black" stroke-width="0.1" fill-opacity="0" />
<path d="M199.55209005135478,20 l5,0 M204.55209005135478,20 a14.848026871058279,10.0,0,0,1,0,20 M204.55209005135478,40 l-5,0 M204.55209005135478,20 l-5,0 M199.55209005135478,20 l-6.115301854874083,10.0 M193.4367881964807,30.0 l6.115301854874083,10.0 M206.05209005135478,20" stroke-width="0.1" stroke="black" fill="black" fill-opacity="0.0" />
<text x="199.55209005135478" y="34" font-size="4" fill="blue">AM</text>
<text x="199.55209005135478" y="39" font-size="4" fill="blue">14</text>
<rect x="201.05209005135478" y="20" width="2" height="9.5" stroke="black" stroke-width="0.1" fill-opacity="0" />
<path d="M230.90906293189667,20 l5,0 M235.90906293189667,20 a14.848026871058279,10.0,0,0,1,0,20 M235.90906293189667,40 l-5,0 M235.90906293189667,20 l-5,0 M230.90906293189667,20 l-11.508946009483587,10.0 M219.40011692241308,30.0 l11.508946009483587,10.0 M237.40906293189667,20" stroke-width="0.1" stroke="black" fill="black" fill-opacity="0.0" />
<text x="230.90906293189667" y="34" font-size="4" fill="blue">AM</text>
<text x="230.90906293189667" y="39" font-size="4" fill="blue">15</text>
<rect x="232.40906293189667" y="20" width="2" height="9.5" stroke="black" stroke-width="0.1" fill-opacity="0" />
<path d="M256.87239165782904,20 l5,0 M261.87239165782904,20 a14.848026871058279,10.0,0,0,1,0,20 M261.87239165782904,40 l-5,0 M261.87239165782904,20 l-5,0 M256.87239165782904,20 l-6.115301854874083,10.0 M250.75708980295497,30.0 l6.115301854874083,10.0 M263.37239165782904,20" stroke-width="0.1" stroke="black" fill="black" fill-opacity="0.0" />
<text x="256.87239165782904" y="34" font-size="4" fill="blue">AM</text>
<text x="256.87239165782904" y="39" font-size="4" fill="blue">16</text>
<rect x="258.37239165782904" y="20" width="2" height="9.5" stroke="black" stroke-width="0.1" fill-opacity="0" />
<path d="M6.115301854874083,40 l5,0 M11.115301854874083,40 a14.848026871058279,10.0,0,0,1,0,20 M11.115301854874083,60 l-5,0 M11.115301854874083,40 l-5,0 M6.115301854874083,40 l-6.115301854874083,10.0 M0.0,50.0 l6.115301854874083,10.0 M12.615301854874083,40" stroke-width="0.1" stroke="black" fill="black" fill-opacity="0.0" />
<text x="6.115301854874083" y="54" font-size="4" fill="blue">AM</text>
<text x="6.115301854874083" y="59" font-size="4" fill="blue">17</text>
<rect x="7.615301854874083" y="40" width="2" height="9.5" stroke="black" stroke-width="0.1" fill-opacity="0" />
<path d="M32.07863058080645,40 l5,0 M37.07863058080645,40 a20.13054321543352,10.0,0,0,1,0,20 M37.07863058080645,60 l-5,0 M37.07863058080645,40 l-5,0 M32.07863058080645,40 l-6.115301854874083,10.0 M25.963328725932364,50.0 l6.115301854874083,10.0 M38.57863058080645,40" stroke-width="0.1" stroke="black" fill="black" fill-opacity="0.0" />
<text x="32.07863058080645" y="54" font-size="4" fill="blue">AM</text>
<text x="32.07863058080645" y="59" font-size="4" fill="blue">18</text>
<rect x="33.57863058080645" y="40" width="2" height="9.5" stroke="black" stroke-width="0.1" fill-opacity="0" />
<path d="M63.32447565111406,40 l5,0 M68.32447565111406,40 a14.848026871058279,10.0,0,0,1,0,20 M68.32447565111406,60 l-5,0 M68.32447565111406,40 l-5,0 M63.32447565111406,40 l-6.115301854874083,10.0 M57.20917379623997,50.0 l6.115301854874083,10.0 M69.82447565111406,40" stroke-width="0.1" stroke="black" fill="black" fill-opacity="0.0" />
<text x="63.32447565111406" y="54" font-size="4" fill="blue">AM</text>
<text x="63.32447565111406" y="59" font-size="4" fill="blue">19</text>
<rect x="64.82447565111406" y="40" width="2" height="9.5" stroke="black" stroke-width="0.1" fill-opacity="0" />
<path d="M89.2878043770464,40 l5,0 M94.2878043770464,40 a20.13054321543352,10.0,0,0,1,0,20 M94.2878043770464,60 l-5,0 M94.2878043770464,40 l-5,0 M89.2878043770464,40 l-6.115301854874083,10.0 M83.17250252217232,50.0 l6.115301854874083,10.0 M95.7878043770464,40" stroke-width="0.1" stroke="black" fill="black" fill-opacity="0.0" />
<text x="89.2878043770464" y="54" font-size="4" fill="blue">AM</text>
<text x="89.2878043770464" y="59" font-size="4" fill="blue">20</text>
<rect x="90.7878043770464" y="40" width="2" height="9.5" stroke="black" stroke-width="0.1" fill-opacity="0" />
<path d="M120.53364944735401,40 l5,0 M125.53364944735401,40 a20.13054321543352,10.0,0,0,1,0,20 M125.53364944735401,60 l-5,0 M125.53364944735401,40 l-5,0 M120.53364944735401,40 l-6.115301854874083,10.0 M114.41834759247993,50.0 l6.115301854874083,10.0 M127.03364944735401,40" stroke-width="0.1" stroke="black" fill="black" fill-opacity="0.0" />
<text x="120.53364944735401" y="54" font-size="4" fill="blue">AM</text>
<text x="120.53364944735401" y="59" font-size="4" fill="blue">21</text>
<rect x="122.03364944735401" y="40" width="2" height="9.5" stroke="black" stroke-width="0.1" fill-opacity="0" />
<path d="M157.17313867227114,40 l5,0 M162.17313867227114,40 a14.848026871058279,10.0,0,0,1,0,20 M162.17313867227114,60 l-5,0 M162.17313867227114,40 l-5,0 M157.17313867227114,40 l-11.508946009483587,10.0 M145.66419266278754,50.0 l11.508946009483587,10.0 M163.67313867227114,40" stroke-width="0.1" stroke="black" fill="black" fill-opacity="0.0" />
<text x="157.17313867227114" y="54" font-size="4" fill="blue">AM</text>
<text x="157.17313867227114" y="59" font-size="4" fill="blue">22</text>
<rect x="158.67313867227114" y="40" width="2" height="9.5" stroke="black" stroke-width="0.1" fill-opacity="0" />
<path d="M188.530111552813,40 l5,0 M193.530111552813,40 a14.848026871058279,10.0,0,0,1,0,20 M193.530111552813,60 l-5,0 M193.530111552813,40 l-5,0 M188.530111552813,40 l-11.508946009483587,10.0 M177.0211655433294,50.0 l11.508946009483587,10.0 M195.030111552813,40" stroke-width="0.1" stroke="black" fill="black" fill-opacity="0.0" />
<text x="188.530111552813" y="54" font-size="4" fill="blue">AM</text>
<text x="188.530111552813" y="59" font-size="4" fill="blue">23</text>
<rect x="190.030111552813" y="40" width="2" height="9.5" stroke="black" stroke-width="0.1" fill-opacity="0" />
</svg>