<?xml version="1.0" encoding="UTF-8"?>
<svg xmlns="http://www.w3.org/2000/svg" xmlns:xlink="http://www.w3.org/1999/xlink"
     width="1128.1906642222536" height="1504.2542189630049" viewBox="0 0 300 400">
<defs>
</defs>
<path d="M10.438000090856669,0 l5,0 M15.438000090856669,0 a15.703934377775804,10.0,0,0,1,0,20 M15.438000090856669,20 l-5,0 M15.438000090856669,0 l-5,0 M10.438000090856669,0 l-10.438000090856669,10.0 M0.0,10.0 l10.438000090856669,10.0 M16.93800009085667,0" stroke-width="0.1" stroke="black" fill="black" fill-opacity="0.0" />
<text x="10.438000090856669" y="14" font-size="4" fill="blue">BL</text>
<text x="10.438000090856669" y="19" font-size="4" fill="blue">0</text>
<rect x="11.938000090856669" y="0" width="2" height="9.5" stroke="black" stroke-width="0.1" fill-opacity="0" />
<path d="M41.89427223846909,0 l5,0 M46.89427223846909,0 a14.816455439384576,10.0,0,0,1,0,20 M46.89427223846909,20 l-5,0 M46.89427223846909,0 l-5,0 M41.89427223846909,0 l-10.752337769836622,10.0 M31.14193446863247,10.0 l10.752337769836622,10.0 M48.39427223846909,0" stroke-width="0.1" stroke="black" fill="black" fill-opacity="0.0" />
<text x="41.89427223846909" y="14" font-size="4" fill="blue">BL</text>
<text x="41.89427223846909" y="19" font-size="4" fill="blue">1</text>
<rect x="43.39427223846909" y="0" width="2" height="9.5" stroke="black" stroke-width="0.1" fill-opacity="0" />
<path d="M73.73165494768512,0 l5,0 M78.73165494768512,0 a14.153386334881109,10.0,0,0,1,0,20 M78.73165494768512,20 l-5,0 M78.73165494768512,0 l-5,0 M73.73165494768512,0 l-12.020927269831441,10.0 M61.71072767785367,10.0 l12.020927269831441,10.0 M80.23165494768512,0" stroke-width="0.1" stroke="black" fill="black" fill-opacity="0.0" />
<text x="73.73165494768512" y="14" font-size="4" fill="blue">BL</text>
<text x="73.73165494768512" y="19" font-size="4" fill="blue">2</text>
<rect x="75.23165494768512" y="0" width="2" height="9.5" stroke="black" stroke-width="0.1" fill-opacity="0" />
<path d="M106.1717024265084,0 l5,0 M111.1717024265084,0 a16.794644507068725,10.0,0,0,1,0,20 M111.1717024265084,20 l-5,0 M111.1717024265084,0 l-5,0 M106.1717024265084,0 l-13.28666114394218,10.0 M92.88504128256622,10.0 l13.28666114394218,10.0 M112.6717024265084,0" stroke-width="0.1" stroke="black" fill="black" fill-opacity="0.0" />
<text x="106.1717024265084" y="14" font-size="4" fill="blue">BL</text>
<text x="106.1717024265084" y="19" font-size="4" fill="blue">3</text>
<rect x="107.6717024265084" y="0" width="2" height="9.5" stroke="black" stroke-width="0.1" fill-opacity="0" />
<path d="M142.3441367205812,0 l5,0 M147.3441367205812,0 a15.053935917601489,10.0,0,0,1,0,20 M147.3441367205812,20 l-5,0 M147.3441367205812,0 l-5,0 M142.3441367205812,0 l-14.377789787004074,10.0 M127.96634693357711,10.0 l14.377789787004074,10.0 M148.8441367205812,0" stroke-width="0.1" stroke="black" fill="black" fill-opacity="0.0" />
<text x="142.3441367205812" y="14" font-size="4" fill="blue">BL</text>
<text x="142.3441367205812" y="19" font-size="4" fill="blue">4</text>
<rect x="143.8441367205812" y="0" width="2" height="9.5" stroke="black" stroke-width="0.1" fill-opacity="0" />
<path d="M176.25144503924878,0 l5,0 M181.25144503924878,0 a11.297118083512018,10.0,0,0,1,0,20 M181.25144503924878,20 l-5,0 M181.25144503924878,0 l-5,0 M176.25144503924878,0 l-13.853372401066082,10.0 M162.3980726381827,10.0 l13.853372401066082,10.0 M182.75144503924878,0" stroke-width="0.1" stroke="black" fill="black" fill-opacity="0.0" />
<text x="176.25144503924878" y="14" font-size="4" fill="blue">BL</text>
<text x="176.25144503924878" y="19" font-size="4" fill="blue">5</text>
<rect x="177.75144503924878" y="0" width="2" height="9.5" stroke="black" stroke-width="0.1" fill-opacity="0" />
<path d="M204.9111809785692,0 l5,0 M209.9111809785692,0 a13.951881608873679,10.0,0,0,1,0,20 M209.9111809785692,20 l-5,0 M209.9111809785692,0 l-5,0 M204.9111809785692,0 l-12.362617855808386,10.0 M192.5485631227608,10.0 l12.362617855808386,10.0 M211.4111809785692,0" stroke-width="0.1" stroke="black" fill="black" fill-opacity="0.0" />
<text x="204.9111809785692" y="14" font-size="4" fill="blue">BL</text>
<text x="204.9111809785692" y="19" font-size="4" fill="blue">6</text>
<rect x="206.4111809785692" y="0" width="2" height="9.5" stroke="black" stroke-width="0.1" fill-opacity="0" />
<path d="M236.81645942215476,0 l5,0 M241.81645942215476,0 a16.15390635846226,10.0,0,0,1,0,20 M241.81645942215476,20 l-5,0 M241.81645942215476,0 l-5,0 M236.81645942215476,0 l-12.9533968347119,10.0 M223.86306258744287,10.0 l12.9533968347119,10.0 M243.31645942215476,0" stroke-width="0.1" stroke="black" fill="black" fill-opacity="0.0" />
<text x="236.81645942215476" y="14" font-size="4" fill="blue">BL</text>
<text x="236.81645942215476" y="19" font-size="4" fill="blue">7</text>
<rect x="238.31645942215476" y="0" width="2" height="9.5" stroke="black" stroke-width="0.1" fill-opacity="0" />
<path d="M270.44399279678174,0 l5,0 M275.44399279678174,0 a18.795164530649885,10.0,0,0,1,0,20 M275.44399279678174,20 l-5,0 M275.44399279678174,0 l-5,0 M270.44399279678174,0 l-12.473627016164707,10.0 M257.97036578061704,10.0 l12.473627016164707,10.0 M276.94399279678174,0" stroke-width="0.1" stroke="black" fill="black" fill-opacity="0.0" />
<text x="270.44399279678174" y="14" font-size="4" fill="blue">BL</text>
<text x="270.44399279678174" y="19" font-size="4" fill="blue">8</text>
<rect x="271.94399279678174" y="0" width="2" height="9.5" stroke="black" stroke-width="0.1" fill-opacity="0" />
<path d="M10.968899029077619,20 l5,0 M15.968899029077619,20 a13.512648186274642,10.0,0,0,1,0,20 M15.968899029077619,40 l-5,0 M15.968899029077619,20 l-5,0 M10.968899029077619,20 l-10.968899029077619,10.0 M0.0,30.0 l10.968899029077619,10.0 M17.46889902907762,20" stroke-width="0.1" stroke="black" fill="black" fill-opacity="0.0" />
<text x="10.968899029077619" y="34" font-size="4" fill="blue">BL</text>
<text x="10.968899029077619" y="39" font-size="4" fill="blue">9</text>
<rect x="12.468899029077619" y="20" width="2" height="9.5" stroke="black" stroke-width="0.1" fill-opacity="0" />
<path d="M39.947232269945914,20 l5,0 M44.947232269945914,20 a13.512648186274642,10.0,0,0,1,0,20 M44.947232269945914,40 l-5,0 M44.947232269945914,20 l-5,0 M39.947232269945914,20 l-10.465685054593656,10.0 M29.481547215352258,30.0 l10.465685054593656,10.0 M46.447232269945914,20" stroke-width="0.1" stroke="black" fill="black" fill-opacity="0.0" />
<text x="39.947232269945914" y="34" font-size="4" fill="blue">BL</text>
<text x="39.947232269945914" y="39" font-size="4" fill="blue">10</text>
<rect x="41.447232269945914" y="20" width="2" height="9.5" stroke="black" stroke-width="0.1" fill-opacity="0" />
<path d="M67.09062126115329,20 l5,0 M72.09062126115329,20 a18.795164530649885,10.0,0,0,1,0,20 M72.09062126115329,40 l-5,0 M72.09062126115329,20 l-5,0 M67.09062126115329,20 l-8.630740804932731,10.0 M58.45988045622056,30.0 l8.630740804932731,10.0 M73.59062126115329,20" stroke-width="0.1" stroke="black" fill="black" fill-opacity="0.0" />
<text x="67.09062126115329" y="34" font-size="4" fill="blue">BL</text>
<text x="67.09062126115329" y="39" font-size="4" fill="blue">11</text>
<rect x="68.59062126115329" y="20" width="2" height="9.5" stroke="black" stroke-width="0.1" fill-opacity="0" />
<path d="M99.07098088345967,20 l5,0 M104.07098088345967,20 a13.512648186274642,10.0,0,0,1,0,20 M104.07098088345967,40 l-5,0 M104.07098088345967,20 l-5,0 M99.07098088345967,20 l-8.185195091656496,10.0 M90.88578579180317,30.0 l8.185195091656496,10.0 M105.57098088345967,20" stroke-width="0.1" stroke="black" fill="black" fill-opacity="0.0" />
<text x="99.07098088345967" y="34" font-size="4" fill="blue">BL</text>
<text x="99.07098088345967" y="39" font-size="4" fill="blue">12</text>
<rect x="100.57098088345967" y="20" width="2" height="9.5" stroke="black" stroke-width="0.1" fill-opacity="0" />
<path d="M128.46564623869557,20 l5,0 M133.46564623869557,20 a13.512648186274642,10.0,0,0,1,0,20 M133.46564623869557,40 l-5,0 M133.46564623869557,20 l-5,0 M128.46564623869557,20 l-10.882017168961248,10.0 M117.58362906973431,30.0 l10.882017168961248,10.0 M134.96564623869557,20" stroke-width="0.1" stroke="black" fill="black" fill-opacity="0.0" />
<text x="128.46564623869557" y="34" font-size="4" fill="blue">BL</text>
<text x="128.46564623869557" y="39" font-size="4" fill="blue">13</text>
<rect x="129.96564623869557" y="20" width="2" height="9.5" stroke="black" stroke-width="0.1" fill-opacity="0" />
<path d="M152.46666743932195,20 l5,0 M157.46666743932195,20 a18.795164530649885,10.0,0,0,1,0,20 M157.46666743932195,40 l-5,0 M157.46666743932195,20 l-5,0 M152.46666743932195,20 l-5.488373014351744,10.0 M146.97829442497022,30.0 l5.488373014351744,10.0 M158.96666743932195,20" stroke-width="0.1" stroke="black" fill="black" fill-opacity="0.0" />
<text x="152.46666743932195" y="34" font-size="4" fill="blue">BL</text>
<text x="152.46666743932195" y="39" font-size="4" fill="blue">14</text>
<rect x="153.96666743932195" y="20" width="2" height="9.5" stroke="black" stroke-width="0.1" fill-opacity="0" />
<path d="M181.75020498432357,20 l5,0 M186.75020498432357,20 a13.512648186274642,10.0,0,0,1,0,20 M186.75020498432357,40 l-5,0 M186.75020498432357,20 l-5,0 M181.75020498432357,20 l-5.488373014351744,10.0 M176.26183196997184,30.0 l5.488373014351744,10.0 M188.25020498432357,20" stroke-width="0.1" stroke="black" fill="black" fill-opacity="0.0" />
<text x="181.75020498432357" y="34" font-size="4" fill="blue">BL</text>
<text x="181.75020498432357" y="39" font-size="4" fill="blue">15</text>
<rect x="183.25020498432357" y="20" width="2" height="9.5" stroke="black" stroke-width="0.1" fill-opacity="0" />
<path d="M205.75122618494996,20 l5,0 M210.75122618494996,20 a18.795164530649885,10.0,0,0,1,0,20 M210.75122618494996,40 l-5,0 M210.75122618494996,20 l-5,0 M205.75122618494996,20 l-5.488373014351744,10.0 M200.26285317059822,30.0 l5.488373014351744,10.0 M212.25122618494996,20" stroke-width="0.1" stroke="black" fill="black" fill-opacity="0.0" />
<text x="205.75122618494996" y="34" font-size="4" fill="blue">BL</text>
<text x="205.75122618494996" y="39" font-size="4" fill="blue">16</text>
<rect x="207.25122618494996" y="20" width="2" height="9.5" stroke="black" stroke-width="0.1" fill-opacity="0" />
<path d="M240.4284078845611,20 l5,0 M245.4284078845611,20 a18.795164530649885,10.0,0,0,1,0,20 M245.4284078845611,40 l-5,0 M245.4284078845611,20 l-5,0 M240.4284078845611,20 l-10.882017168961248,10.0 M229.54639071559984,30.0 l10.882017168961248,10.0 M246.9284078845611,20" stroke-width="0.1" stroke="black" fill="black" fill-opacity="0.0" />
<text x="240.4284078845611" y="34" font-size="4" fill="blue">BL</text>
<text x="240.4284078845611" y="39" font-size="4" fill="blue">17</text>
<rect x="241.9284078845611" y="20" width="2" height="9.5" stroke="black" stroke-width="0.1" fill-opacity="0" />
<path d="M269.7119454295627,20 l5,0 M274.7119454295627,20 a13.512648186274642,10.0,0,0,1,0,20 M274.7119454295627,40 l-5,0 M274.7119454295627,20 l-5,0 M269.7119454295627,20 l-5.488373014351744,10.0 M264.223572415211,30.0 l5.488373014351744,10.0 M276.2119454295627,20" stroke-width="0.1" stroke="black" fill="black" fill-opacity="0.0" />
<text x="269.7119454295627" y="34" font-size="4" fill="blue">BL</text>
<text x="269.7119454295627" y="39" font-size="4" fill="blue">18</text>
<rect x="271.2119454295627" y="20" width="2" height="9.5" stroke="black" stroke-width="0.1" fill-opacity="0" />
<path d="M5.488373014351744,40 l5,0 M10.488373014351744,40 a18.795164530649885,10.0,0,0,1,0,20 M10.488373014351744,60 l-5,0 M10.488373014351744,40 l-5,0 M5.488373014351744,40 l-5.488373014351744,10.0 M0.0,50.0 l5.488373014351744,10.0 M11.988373014351744,40" stroke-width="0.1" stroke="black" fill="black" fill-opacity="0.0" />
<text x="5.488373014351744" y="54" font-size="4" fill="blue">BL</text>
<text x="5.488373014351744" y="59" font-size="4" fill="blue">19</text>
<rect x="6.988373014351744" y="40" width="2" height="9.5" stroke="black" stroke-width="0.1" fill-opacity="0" />
<path d="M40.16555471396288,40 l5,0 M45.16555471396288,40 a18.795164530649885,10.0,0,0,1,0,20 M45.16555471396288,60 l-5,0 M45.16555471396288,40 l-5,0 M40.16555471396288,40 l-10.882017168961248,10.0 M29.28353754500163,50.0 l10.882017168961248,10.0 M46.66555471396288,40" stroke-width="0.1" stroke="black" fill="black" fill-opacity="0.0" />
<text x="40.16555471396288" y="54" font-size="4" fill="blue">BL</text>
<text x="40.16555471396288" y="59" font-size="4" fill="blue">20</text>
<rect x="41.66555471396288" y="40" width="2" height="9.5" stroke="black" stroke-width="0.1" fill-opacity="0" />
<path d="M69.4490922589645,40 l5,0 M74.4490922589645,40 a18.795164530649885,10.0,0,0,1,0,20 M74.4490922589645,60 l-5,0 M74.4490922589645,40 l-5,0 M69.4490922589645,40 l-5.488373014351744,10.0 M63.96071924461276,50.0 l5.488373014351744,10.0 M75.9490922589645,40" stroke-width="0.1" stroke="black" fill="black" fill-opacity="0.0" />
<text x="69.4490922589645" y="54" font-size="4" fill="blue">BL</text>
<text x="69.4490922589645" y="59" font-size="4" fill="blue">21</text>
<rect x="70.9490922589645" y="40" width="2" height="9.5" stroke="black" stroke-width="0.1" fill-opacity="0" />
<path d="M98.73262980396612,40 l5,0 M103.73262980396612,40 a18.795164530649885,10.0,0,0,1,0,20 M103.73262980396612,60 l-5,0 M103.73262980396612,40 l-5,0 M98.73262980396612,40 l-5.488373014351744,10.0 M93.24425678961438,50.0 l5.488373014351744,10.0 M105.23262980396612,40" stroke-width="0.1" stroke="black" fill="black" fill-opacity="0.0" />
<text x="98.73262980396612" y="54" font-size="4" fill="blue">BL</text>
<text x="98.73262980396612" y="59" font-size="4" fill="blue">22</text>
<rect x="100.23262980396612" y="40" width="2" height="9.5" stroke="black" stroke-width="0.1" fill-opacity="0" />
<path d="M128.01616734896774,40 l5,0 M133.01616734896774,40 a18.795164530649885,10.0,0,0,1,0,20 M133.01616734896774,60 l-5,0 M133.01616734896774,40 l-5,0 M128.01616734896774,40 l-5.488373014351744,10.0 M122.527794334616,50.0 l5.488373014351744,10.0 M134.51616734896774,40" stroke-width="0.1" stroke="black" fill="black" fill-opacity="0.0" />
<text x="128.01616734896774" y="54" font-size="4" fill="blue">BL</text>
<text x="128.01616734896774" y="59" font-size="4" fill="blue">23</text>
<rect x="129.51616734896774" y="40" width="2" height="9.5" stroke="black" stroke-width="0.1" fill-opacity="0" />
</svg>