<?xml version="1.0" encoding="UTF-8"?>
<svg xmlns="http://www.w3.org/2000/svg" xmlns:xlink="http://www.w3.org/1999/xlink"
     width="1128.1906642222536" height="1504.2542189630049" viewBox="0 0 300 400">
<defs>
</defs>
<path d="M9.303161496435024,0 l5,0 M14.303161496435024,0 a17.88900684425935,10.0,0,0,1,0,20 M14.303161496435024,20 l-5,0 M14.303161496435024,0 l-5,0 M9.303161496435024,0 l-9.303161496435024,10.0 M0.0,10.0 l9.303161496435024,10.0 M15.803161496435024,0" stroke-width="0.1" stroke="black" fill="black" fill-opacity="0.0" />
<text x="9.303161496435024" y="14" font-size="4" fill="blue">BN</text>
<text x="9.303161496435024" y="19" font-size="4" fill="blue">0</text>
<rect x="10.803161496435024" y="0" width="2" height="9.5" stroke="black" stroke-width="0.1" fill-opacity="0" />
<path d="M41.76172866347389,0 l5,0 M46.76172866347389,0 a17.877869008672167,10.0,0,0,1,0,20 M46.76172866347389,20 l-5,0 M46.76172866347389,0 l-5,0 M41.76172866347389,0 l-9.569560322779516,10.0 M32.19216834069437,10.0 l9.569560322779516,10.0 M48.26172866347389,0" stroke-width="0.1" stroke="black" fill="black" fill-opacity="0.0" />
<text x="41.76172866347389" y="14" font-size="4" fill="blue">BN</text>
<text x="41.76172866347389" y="19" font-size="4" fill="blue">1</text>
<rect x="43.26172866347389" y="0" width="2" height="9.5" stroke="black" stroke-width="0.1" fill-opacity="0" />
<path d="M74.64731639970955,0 l5,0 M79.64731639970955,0 a17.712295735789198,10.0,0,0,1,0,20 M79.64731639970955,20 l-5,0 M79.64731639970955,0 l-5,0 M74.64731639970955,0 l-10.007718727563486,10.0 M64.63959767214607,10.0 l10.007718727563486,10.0 M81.14731639970955,0" stroke-width="0.1" stroke="black" fill="black" fill-opacity="0.0" />
<text x="74.64731639970955" y="14" font-size="4" fill="blue">BN</text>
<text x="74.64731639970955" y="19" font-size="4" fill="blue">2</text>
<rect x="76.14731639970955" y="0" width="2" height="9.5" stroke="black" stroke-width="0.1" fill-opacity="0" />
<path d="M108.13324147702895,0 l5,0 M113.13324147702895,0 a17.07515753388571,10.0,0,0,1,0,20 M113.13324147702895,20 l-5,0 M113.13324147702895,0 l-5,0 M108.13324147702895,0 l-10.7736293415302,10.0 M97.35961213549875,10.0 l10.7736293415302,10.0 M114.63324147702895,0" stroke-width="0.1" stroke="black" fill="black" fill-opacity="0.0" />
<text x="108.13324147702895" y="14" font-size="4" fill="blue">BN</text>
<text x="108.13324147702895" y="19" font-size="4" fill="blue">3</text>
<rect x="109.63324147702895" y="0" width="2" height="9.5" stroke="black" stroke-width="0.1" fill-opacity="0" />
<path d="M141.65766086688942,0 l5,0 M146.65766086688942,0 a16.098052454393937,10.0,0,0,1,0,20 M146.65766086688942,20 l-5,0 M146.65766086688942,0 l-5,0 M141.65766086688942,0 l-11.449261855974749,10.0 M130.20839901091466,10.0 l11.449261855974749,10.0 M148.15766086688942,0" stroke-width="0.1" stroke="black" fill="black" fill-opacity="0.0" />
<text x="141.65766086688942" y="14" font-size="4" fill="blue">BN</text>
<text x="141.65766086688942" y="19" font-size="4" fill="blue">4</text>
<rect x="143.15766086688942" y="0" width="2" height="9.5" stroke="black" stroke-width="0.1" fill-opacity="0" />
<path d="M173.85347120274247,0 l5,0 M178.85347120274247,0 a15.616226413183346,10.0,0,0,1,0,20 M178.85347120274247,20 l-5,0 M178.85347120274247,0 l-5,0 M173.85347120274247,0 l-11.097757881459119,10.0 M162.75571332128334,10.0 l11.097757881459119,10.0 M180.35347120274247,0" stroke-width="0.1" stroke="black" fill="black" fill-opacity="0.0" />
<text x="173.85347120274247" y="14" font-size="4" fill="blue">BN</text>
<text x="173.85347120274247" y="19" font-size="4" fill="blue">5</text>
<rect x="175.35347120274247" y="0" width="2" height="9.5" stroke="black" stroke-width="0.1" fill-opacity="0" />
<path d="M204.20115907680056,0 l5,0 M209.20115907680056,0 a16.46415555565413,10.0,0,0,1,0,20 M209.20115907680056,20 l-5,0 M209.20115907680056,0 l-5,0 M204.20115907680056,0 l-9.731461460874765,10.0 M194.4696976159258,10.0 l9.731461460874765,10.0 M210.70115907680056,0" stroke-width="0.1" stroke="black" fill="black" fill-opacity="0.0" />
<text x="204.20115907680056" y="14" font-size="4" fill="blue">BN</text>
<text x="204.20115907680056" y="19" font-size="4" fill="blue">6</text>
<rect x="205.70115907680056" y="0" width="2" height="9.5" stroke="black" stroke-width="0.1" fill-opacity="0" />
<path d="M237.3048723898421,0 l5,0 M242.3048723898421,0 a16.85246328400267,10.0,0,0,1,0,20 M242.3048723898421,20 l-5,0 M242.3048723898421,0 l-5,0 M237.3048723898421,0 l-11.639557757387397,10.0 M225.6653146324547,10.0 l11.639557757387397,10.0 M243.8048723898421,0" stroke-width="0.1" stroke="black" fill="black" fill-opacity="0.0" />
<text x="237.3048723898421" y="14" font-size="4" fill="blue">BN</text>
<text x="237.3048723898421" y="19" font-size="4" fill="blue">7</text>
<rect x="238.8048723898421" y="0" width="2" height="9.5" stroke="black" stroke-width="0.1" fill-opacity="0" />
<path d="M269.4428599683867,0 l5,0 M274.4428599683867,0 a14.211205111815051,10.0,0,0,1,0,20 M274.4428599683867,20 l-5,0 M274.4428599683867,0 l-5,0 M269.4428599683867,0 l-10.285524294541915,10.0 M259.1573356738448,10.0 l10.285524294541915,10.0 M275.9428599683867,0" stroke-width="0.1" stroke="black" fill="black" fill-opacity="0.0" />
<text x="269.4428599683867" y="14" font-size="4" fill="blue">BN</text>
<text x="269.4428599683867" y="19" font-size="4" fill="blue">8</text>
<rect x="270.9428599683867" y="0" width="2" height="9.5" stroke="black" stroke-width="0.1" fill-opacity="0" />
<path d="M9.110910897283965,20 l5,0 M14.110910897283965,20 a14.211205111815051,10.0,0,0,1,0,20 M14.110910897283965,40 l-5,0 M14.110910897283965,20 l-5,0 M9.110910897283965,20 l-9.110910897283965,10.0 M0.0,30.0 l9.110910897283965,10.0 M15.610910897283965,20" stroke-width="0.1" stroke="black" fill="black" fill-opacity="0.0" />
<text x="9.110910897283965" y="34" font-size="4" fill="blue">BN</text>
<text x="9.110910897283965" y="39" font-size="4" fill="blue">9</text>
<rect x="10.610910897283965" y="20" width="2" height="9.5" stroke="black" stroke-width="0.1" fill-opacity="0" />
<path d="M36.5391100942919,20 l5,0 M41.5391100942919,20 a19.493721456190293,10.0,0,0,1,0,20 M41.5391100942919,40 l-5,0 M41.5391100942919,20 l-5,0 M36.5391100942919,20 l-8.216994085192885,10.0 M28.322116009099013,30.0 l8.216994085192885,10.0 M43.0391100942919,20" stroke-width="0.1" stroke="black" fill="black" fill-opacity="0.0" />
<text x="36.5391100942919" y="34" font-size="4" fill="blue">BN</text>
<text x="36.5391100942919" y="39" font-size="4" fill="blue">10</text>
<rect x="38.0391100942919" y="20" width="2" height="9.5" stroke="black" stroke-width="0.1" fill-opacity="0" />
<path d="M70.02600397212683,20 l5,0 M75.02600397212683,20 a19.493721456190293,10.0,0,0,1,0,20 M75.02600397212683,40 l-5,0 M75.02600397212683,20 l-5,0 M70.02600397212683,20 l-8.993172421644633,10.0 M61.0328315504822,30.0 l8.993172421644633,10.0 M76.52600397212683,20" stroke-width="0.1" stroke="black" fill="black" fill-opacity="0.0" />
<text x="70.02600397212683" y="34" font-size="4" fill="blue">BN</text>
<text x="70.02600397212683" y="39" font-size="4" fill="blue">11</text>
<rect x="71.52600397212683" y="20" width="2" height="9.5" stroke="black" stroke-width="0.1" fill-opacity="0" />
<path d="M103.24042739451781,20 l5,0 M108.24042739451781,20 a19.493721456190293,10.0,0,0,1,0,20 M108.24042739451781,40 l-5,0 M108.24042739451781,20 l-5,0 M103.24042739451781,20 l-8.720701966200675,10.0 M94.51972542831713,30.0 l8.720701966200675,10.0 M109.74042739451781,20" stroke-width="0.1" stroke="black" fill="black" fill-opacity="0.0" />
<text x="103.24042739451781" y="34" font-size="4" fill="blue">BN</text>
<text x="103.24042739451781" y="39" font-size="4" fill="blue">12</text>
<rect x="104.74042739451781" y="20" width="2" height="9.5" stroke="black" stroke-width="0.1" fill-opacity="0" />
<path d="M133.75802873960401,20 l5,0 M138.75802873960401,20 a19.493721456190293,10.0,0,0,1,0,20 M138.75802873960401,40 l-5,0 M138.75802873960401,20 l-5,0 M133.75802873960401,20 l-6.023879888895925,10.0 M127.7341488507081,30.0 l6.023879888895925,10.0 M140.25802873960401,20" stroke-width="0.1" stroke="black" fill="black" fill-opacity="0.0" />
<text x="133.75802873960401" y="34" font-size="4" fill="blue">BN</text>
<text x="133.75802873960401" y="39" font-size="4" fill="blue">13</text>
<rect x="135.25802873960401" y="20" width="2" height="9.5" stroke="black" stroke-width="0.1" fill-opacity="0" />
<path d="M164.27563008469025,20 l5,0 M169.27563008469025,20 a14.211205111815051,10.0,0,0,1,0,20 M169.27563008469025,40 l-5,0 M169.27563008469025,20 l-5,0 M164.27563008469025,20 l-6.023879888895925,10.0 M158.25175019579433,30.0 l6.023879888895925,10.0 M170.77563008469025,20" stroke-width="0.1" stroke="black" fill="black" fill-opacity="0.0" />
<text x="164.27563008469025" y="34" font-size="4" fill="blue">BN</text>
<text x="164.27563008469025" y="39" font-size="4" fill="blue">14</text>
<rect x="165.77563008469025" y="20" width="2" height="9.5" stroke="black" stroke-width="0.1" fill-opacity="0" />
<path d="M194.90435924001073,20 l5,0 M199.90435924001073,20 a14.211205111815051,10.0,0,0,1,0,20 M199.90435924001073,40 l-5,0 M199.90435924001073,20 l-5,0 M194.90435924001073,20 l-11.417524043505427,10.0 M183.4868351965053,30.0 l11.417524043505427,10.0 M201.40435924001073,20" stroke-width="0.1" stroke="black" fill="black" fill-opacity="0.0" />
<text x="194.90435924001073" y="34" font-size="4" fill="blue">BN</text>
<text x="194.90435924001073" y="39" font-size="4" fill="blue">15</text>
<rect x="196.40435924001073" y="20" width="2" height="9.5" stroke="black" stroke-width="0.1" fill-opacity="0" />
<path d="M225.53308839533122,20 l5,0 M230.53308839533122,20 a19.493721456190293,10.0,0,0,1,0,20 M230.53308839533122,40 l-5,0 M230.53308839533122,20 l-5,0 M225.53308839533122,20 l-11.417524043505427,10.0 M214.11556435182578,30.0 l11.417524043505427,10.0 M232.03308839533122,20" stroke-width="0.1" stroke="black" fill="black" fill-opacity="0.0" />
<text x="225.53308839533122" y="34" font-size="4" fill="blue">BN</text>
<text x="225.53308839533122" y="39" font-size="4" fill="blue">16</text>
<rect x="227.03308839533122" y="20" width="2" height="9.5" stroke="black" stroke-width="0.1" fill-opacity="0" />
<path d="M261.44433389502694,20 l5,0 M266.44433389502694,20 a14.211205111815051,10.0,0,0,1,0,20 M266.44433389502694,40 l-5,0 M266.44433389502694,20 l-5,0 M261.44433389502694,20 l-11.417524043505427,10.0 M250.0268098515215,30.0 l11.417524043505427,10.0 M267.94433389502694,20" stroke-width="0.1" stroke="black" fill="black" fill-opacity="0.0" />
<text x="261.44433389502694" y="34" font-size="4" fill="blue">BN</text>
<text x="261.44433389502694" y="39" font-size="4" fill="blue">17</text>
<rect x="262.94433389502694" y="20" width="2" height="9.5" stroke="black" stroke-width="0.1" fill-opacity="0" />
<path d="M6.023879888895925,40 l5,0 M11.023879888895925,40 a14.211205111815051,10.0,0,0,1,0,20 M11.023879888895925,60 l-5,0 M11.023879888895925,40 l-5,0 M6.023879888895925,40 l-6.023879888895925,10.0 M0.0,50.0 l6.023879888895925,10.0 M12.523879888895925,40" stroke-width="0.1" stroke="black" fill="black" fill-opacity="0.0" />
<text x="6.023879888895925" y="54" font-size="4" fill="blue">BN</text>
<text x="6.023879888895925" y="59" font-size="4" fill="blue">18</text>
<rect x="7.523879888895925" y="40" width="2" height="9.5" stroke="black" stroke-width="0.1" fill-opacity="0" />
<path d="M31.2589648896069,40 l5,0 M36.2589648896069,40 a14.211205111815051,10.0,0,0,1,0,20 M36.2589648896069,60 l-5,0 M36.2589648896069,40 l-5,0 M31.2589648896069,40 l-6.023879888895925,10.0 M25.235085000710974,50.0 l6.023879888895925,10.0 M37.7589648896069,40" stroke-width="0.1" stroke="black" fill="black" fill-opacity="0.0" />
<text x="31.2589648896069" y="54" font-size="4" fill="blue">BN</text>
<text x="31.2589648896069" y="59" font-size="4" fill="blue">19</text>
<rect x="32.7589648896069" y="40" width="2" height="9.5" stroke="black" stroke-width="0.1" fill-opacity="0" />
<path d="M61.88769404492737,40 l5,0 M66.88769404492737,40 a14.211205111815051,10.0,0,0,1,0,20 M66.88769404492737,60 l-5,0 M66.88769404492737,40 l-5,0 M61.88769404492737,40 l-11.417524043505427,10.0 M50.47017000142195,50.0 l11.417524043505427,10.0 M68.38769404492737,40" stroke-width="0.1" stroke="black" fill="black" fill-opacity="0.0" />
<text x="61.88769404492737" y="54" font-size="4" fill="blue">BN</text>
<text x="61.88769404492737" y="59" font-size="4" fill="blue">20</text>
<rect x="63.38769404492737" y="40" width="2" height="9.5" stroke="black" stroke-width="0.1" fill-opacity="0" />
<path d="M92.51642320024784,40 l5,0 M97.51642320024784,40 a19.493721456190293,10.0,0,0,1,0,20 M97.51642320024784,60 l-5,0 M97.51642320024784,40 l-5,0 M92.51642320024784,40 l-11.417524043505427,10.0 M81.09889915674242,50.0 l11.417524043505427,10.0 M99.01642320024784,40" stroke-width="0.1" stroke="black" fill="black" fill-opacity="0.0" />
<text x="92.51642320024784" y="54" font-size="4" fill="blue">BN</text>
<text x="92.51642320024784" y="59" font-size="4" fill="blue">21</text>
<rect x="94.01642320024784" y="40" width="2" height="9.5" stroke="black" stroke-width="0.1" fill-opacity="0" />
<path d="M123.03402454533406,40 l5,0 M128.03402454533406,40 a19.493721456190293,10.0,0,0,1,0,20 M128.03402454533406,60 l-5,0 M128.03402454533406,40 l-5,0 M123.03402454533406,40 l-6.023879888895925,10.0 M117.01014465643814,50.0 l6.023879888895925,10.0 M129.53402454533406,40" stroke-width="0.1" stroke="black" fill="black" fill-opacity="0.0" />
<text x="123.03402454533406" y="54" font-size="4" fill="blue">BN</text>
<text x="123.03402454533406" y="59" font-size="4" fill="blue">22</text>
<rect x="124.53402454533406" y="40" width="2" height="9.5" stroke="black" stroke-width="0.1" fill-opacity="0" />
<path d="M153.55162589042027,40 l5,0 M158.55162589042027,40 a19.493721456190293,10.0,0,0,1,0,20 M158.55162589042027,60 l-5,0 M158.55162589042027,40 l-5,0 M153.55162589042027,40 l-6.023879888895925,10.0 M147.52774600152435,50.0 l6.023879888895925,10.0 M160.05162589042027,40" stroke-width="0.1" stroke="black" fill="black" fill-opacity="0.0" />
<text x="153.55162589042027" y="54" font-size="4" fill="blue">BN</text>
<text x="153.55162589042027" y="59" font-size="4" fill="blue">23</text>
<rect x="155.05162589042027" y="40" width="2" height="9.5" stroke="black" stroke-width="0.1" fill-opacity="0" />
</svg>