<?xml version="1.0" encoding="UTF-8"?>
<svg xmlns="http://www.w3.org/2000/svg" xmlns:xlink="http://www.w3.org/1999/xlink"
     width="1128.1906642222536" height="1504.2542189630049" viewBox="0 0 300 400">
<defs>
</defs>
<path d="M10.120446412035237,0 l5,0 M15.120446412035237,0 a14.347229091080003,10.0,0,0,1,0,20 M15.120446412035237,20 l-5,0 M15.120446412035237,0 l-5,0 M10.120446412035237,0 l-10.120446412035237,10.0 M0.0,10.0 l10.120446412035237,10.0 M16.620446412035236,0" stroke-width="0.1" stroke="black" fill="black" fill-opacity="0.0" />
<text x="10.120446412035237" y="14" font-size="4" fill="blue">GD</text>
<text x="10.120446412035237" y="19" font-size="4" fill="blue">0</text>
<rect x="11.620446412035237" y="0" width="2" height="9.5" stroke="black" stroke-width="0.1" fill-opacity="0" />
<path d="M41.30319249068143,0 l5,0 M46.30319249068143,0 a11.705970918892382,10.0,0,0,1,0,20 M46.30319249068143,20 l-5,0 M46.30319249068143,0 l-5,0 M41.30319249068143,0 l-11.835516987566194,10.0 M29.467675503115238,10.0 l11.835516987566194,10.0 M47.80319249068143,0" stroke-width="0.1" stroke="black" fill="black" fill-opacity="0.0" />
<text x="41.30319249068143" y="14" font-size="4" fill="blue">GD</text>
<text x="41.30319249068143" y="19" font-size="4" fill="blue">1</text>
<rect x="42.80319249068143" y="0" width="2" height="9.5" stroke="black" stroke-width="0.1" fill-opacity="0" />
<path d="M72.0594258921624,0 l5,0 M77.0594258921624,0 a11.705834832624461,10.0,0,0,1,0,20 M77.0594258921624,20 l-5,0 M77.0594258921624,0 l-5,0 M72.0594258921624,0 l-14.050262482588582,10.0 M58.009163409573816,10.0 l14.050262482588582,10.0 M78.5594258921624,0" stroke-width="0.1" stroke="black" fill="black" fill-opacity="0.0" />
<text x="72.0594258921624" y="14" font-size="4" fill="blue">GD</text>
<text x="72.0594258921624" y="19" font-size="4" fill="blue">2</text>
<rect x="73.5594258921624" y="0" width="2" height="9.5" stroke="black" stroke-width="0.1" fill-opacity="0" />
<path d="M103.3972085773432,0 l5,0 M108.3972085773432,0 a10.159196918470334,10.0,0,0,1,0,20 M108.3972085773432,20 l-5,0 M108.3972085773432,0 l-5,0 M103.3972085773432,0 l-14.631947852556348,10.0 M88.76526072478686,10.0 l14.631947852556348,10.0 M109.8972085773432,0" stroke-width="0.1" stroke="black" fill="black" fill-opacity="0.0" />
<text x="103.3972085773432" y="14" font-size="4" fill="blue">GD</text>
<text x="103.3972085773432" y="19" font-size="4" fill="blue">3</text>
<rect x="104.8972085773432" y="0" width="2" height="9.5" stroke="black" stroke-width="0.1" fill-opacity="0" />
<path d="M133.67731460234137,0 l5,0 M138.67731460234137,0 a10.364728292252556,10.0,0,0,1,0,20 M138.67731460234137,20 l-5,0 M138.67731460234137,0 l-5,0 M133.67731460234137,0 l-15.120909106527835,10.0 M118.55640549581354,10.0 l15.120909106527835,10.0 M140.17731460234137,0" stroke-width="0.1" stroke="black" fill="black" fill-opacity="0.0" />
<text x="133.67731460234137" y="14" font-size="4" fill="blue">GD</text>
<text x="133.67731460234137" y="19" font-size="4" fill="blue">4</text>
<rect x="135.17731460234137" y="0" width="2" height="9.5" stroke="black" stroke-width="0.1" fill-opacity="0" />
<path d="M166.3236744600942,0 l5,0 M171.3236744600942,0 a12.792914568114423,10.0,0,0,1,0,20 M171.3236744600942,20 l-5,0 M171.3236744600942,0 l-5,0 M166.3236744600942,0 l-17.28163156550028,10.0 M149.04204289459392,10.0 l17.28163156550028,10.0 M172.8236744600942,0" stroke-width="0.1" stroke="black" fill="black" fill-opacity="0.0" />
<text x="166.3236744600942" y="14" font-size="4" fill="blue">GD</text>
<text x="166.3236744600942" y="19" font-size="4" fill="blue">5</text>
<rect x="167.8236744600942" y="0" width="2" height="9.5" stroke="black" stroke-width="0.1" fill-opacity="0" />
<path d="M197.87226159051997,0 l5,0 M202.87226159051997,0 a16.722918076956333,10.0,0,0,1,0,20 M202.87226159051997,20 l-5,0 M202.87226159051997,0 l-5,0 M197.87226159051997,0 l-13.75567256231133,10.0 M184.11658902820864,10.0 l13.75567256231133,10.0 M204.37226159051997,0" stroke-width="0.1" stroke="black" fill="black" fill-opacity="0.0" />
<text x="197.87226159051997" y="14" font-size="4" fill="blue">GD</text>
<text x="197.87226159051997" y="19" font-size="4" fill="blue">6</text>
<rect x="199.37226159051997" y="0" width="2" height="9.5" stroke="black" stroke-width="0.1" fill-opacity="0" />
<path d="M232.41057384048045,0 l5,0 M237.41057384048045,0 a17.97679639218083,10.0,0,0,1,0,20 M237.41057384048045,20 l-5,0 M237.41057384048045,0 l-5,0 M232.41057384048045,0 l-12.81539417300413,10.0 M219.59517966747632,10.0 l12.81539417300413,10.0 M238.91057384048045,0" stroke-width="0.1" stroke="black" fill="black" fill-opacity="0.0" />
<text x="232.41057384048045" y="14" font-size="4" fill="blue">GD</text>
<text x="232.41057384048045" y="19" font-size="4" fill="blue">7</text>
<rect x="233.91057384048045" y="0" width="2" height="9.5" stroke="black" stroke-width="0.1" fill-opacity="0" />
<path d="M266.27780171925906,0 l5,0 M271.27780171925906,0 a20.61805456436845,10.0,0,0,1,0,20 M271.27780171925906,20 l-5,0 M271.27780171925906,0 l-5,0 M266.27780171925906,0 l-10.890431486597778,10.0 M255.38737023266128,10.0 l10.890431486597778,10.0 M272.77780171925906,0" stroke-width="0.1" stroke="black" fill="black" fill-opacity="0.0" />
<text x="266.27780171925906" y="14" font-size="4" fill="blue">GD</text>
<text x="266.27780171925906" y="19" font-size="4" fill="blue">8</text>
<rect x="267.77780171925906" y="0" width="2" height="9.5" stroke="black" stroke-width="0.1" fill-opacity="0" />
<path d="M6.712182442034628,20 l5,0 M11.712182442034628,20 a20.61805456436845,10.0,0,0,1,0,20 M11.712182442034628,40 l-5,0 M11.712182442034628,20 l-5,0 M6.712182442034628,20 l-6.712182442034628,10.0 M0.0,30.0 l6.712182442034628,10.0 M13.212182442034628,20" stroke-width="0.1" stroke="black" fill="black" fill-opacity="0.0" />
<text x="6.712182442034628" y="34" font-size="4" fill="blue">GD</text>
<text x="6.712182442034628" y="39" font-size="4" fill="blue">9</text>
<rect x="8.212182442034628" y="20" width="2" height="9.5" stroke="black" stroke-width="0.1" fill-opacity="0" />
<path d="M38.30800022873299,20 l5,0 M43.30800022873299,20 a15.335538219993209,10.0,0,0,1,0,20 M43.30800022873299,40 l-5,0 M43.30800022873299,20 l-5,0 M38.30800022873299,20 l-5.977763222329916,10.0 M32.33023700640308,30.0 l5.977763222329916,10.0 M44.80800022873299,20" stroke-width="0.1" stroke="black" fill="black" fill-opacity="0.0" />
<text x="38.30800022873299" y="34" font-size="4" fill="blue">GD</text>
<text x="38.30800022873299" y="39" font-size="4" fill="blue">10</text>
<rect x="39.80800022873299" y="20" width="2" height="9.5" stroke="black" stroke-width="0.1" fill-opacity="0" />
<path d="M65.2243342788404,20 l5,0 M70.2243342788404,20 a15.335538219993209,10.0,0,0,1,0,20 M70.2243342788404,40 l-5,0 M70.2243342788404,20 l-5,0 M65.2243342788404,20 l-6.5807958301141944,10.0 M58.643538448726204,30.0 l6.5807958301141944,10.0 M71.7243342788404,20" stroke-width="0.1" stroke="black" fill="black" fill-opacity="0.0" />
<text x="65.2243342788404" y="34" font-size="4" fill="blue">GD</text>
<text x="65.2243342788404" y="39" font-size="4" fill="blue">11</text>
<rect x="66.7243342788404" y="20" width="2" height="9.5" stroke="black" stroke-width="0.1" fill-opacity="0" />
<path d="M92.17179388352,20 l5,0 M97.17179388352,20 a15.335538219993209,10.0,0,0,1,0,20 M97.17179388352,40 l-5,0 M97.17179388352,20 l-5,0 M92.17179388352,20 l-6.611921384686383,10.0 M85.55987249883361,30.0 l6.611921384686383,10.0 M98.67179388352,20" stroke-width="0.1" stroke="black" fill="black" fill-opacity="0.0" />
<text x="92.17179388352" y="34" font-size="4" fill="blue">GD</text>
<text x="92.17179388352" y="39" font-size="4" fill="blue">12</text>
<rect x="93.67179388352" y="20" width="2" height="9.5" stroke="black" stroke-width="0.1" fill-opacity="0" />
<path d="M121.81607556550435,20 l5,0 M126.81607556550435,20 a15.335538219993209,10.0,0,0,1,0,20 M126.81607556550435,40 l-5,0 M126.81607556550435,20 l-5,0 M121.81607556550435,20 l-9.308743461991135,10.0 M112.50733210351322,30.0 l9.308743461991135,10.0 M128.31607556550435,20" stroke-width="0.1" stroke="black" fill="black" fill-opacity="0.0" />
<text x="121.81607556550435" y="34" font-size="4" fill="blue">GD</text>
<text x="121.81607556550435" y="39" font-size="4" fill="blue">13</text>
<rect x="123.31607556550435" y="20" width="2" height="9.5" stroke="black" stroke-width="0.1" fill-opacity="0" />
<path d="M151.46035724748867,20 l5,0 M156.46035724748867,20 a15.335538219993209,10.0,0,0,1,0,20 M156.46035724748867,40 l-5,0 M156.46035724748867,20 l-5,0 M151.46035724748867,20 l-9.308743461991135,10.0 M142.15161378549755,30.0 l9.308743461991135,10.0 M157.96035724748867,20" stroke-width="0.1" stroke="black" fill="black" fill-opacity="0.0" />
<text x="151.46035724748867" y="34" font-size="4" fill="blue">GD</text>
<text x="151.46035724748867" y="39" font-size="4" fill="blue">14</text>
<rect x="152.96035724748867" y="20" width="2" height="9.5" stroke="black" stroke-width="0.1" fill-opacity="0" />
<path d="M181.10463892947303,20 l5,0 M186.10463892947303,20 a15.335538219993209,10.0,0,0,1,0,20 M186.10463892947303,40 l-5,0 M186.10463892947303,20 l-5,0 M181.10463892947303,20 l-9.308743461991135,10.0 M171.7958954674819,30.0 l9.308743461991135,10.0 M187.60463892947303,20" stroke-width="0.1" stroke="black" fill="black" fill-opacity="0.0" />
<text x="181.10463892947303" y="34" font-size="4" fill="blue">GD</text>
<text x="181.10463892947303" y="39" font-size="4" fill="blue">15</text>
<rect x="182.60463892947303" y="20" width="2" height="9.5" stroke="black" stroke-width="0.1" fill-opacity="0" />
<path d="M205.3552764568479,20 l5,0 M210.3552764568479,20 a15.335538219993209,10.0,0,0,1,0,20 M210.3552764568479,40 l-5,0 M210.3552764568479,20 l-5,0 M205.3552764568479,20 l-3.9150993073816327,10.0 M201.44017714946625,30.0 l3.9150993073816327,10.0 M211.8552764568479,20" stroke-width="0.1" stroke="black" fill="black" fill-opacity="0.0" />
<text x="205.3552764568479" y="34" font-size="4" fill="blue">GD</text>
<text x="205.3552764568479" y="39" font-size="4" fill="blue">16</text>
<rect x="206.8552764568479" y="20" width="2" height="9.5" stroke="black" stroke-width="0.1" fill-opacity="0" />
<path d="M234.9995581388322,20 l5,0 M239.9995581388322,20 a20.61805456436845,10.0,0,0,1,0,20 M239.9995581388322,40 l-5,0 M239.9995581388322,20 l-5,0 M234.9995581388322,20 l-9.308743461991135,10.0 M225.6908146768411,30.0 l9.308743461991135,10.0 M241.4995581388322,20" stroke-width="0.1" stroke="black" fill="black" fill-opacity="0.0" />
<text x="234.9995581388322" y="34" font-size="4" fill="blue">GD</text>
<text x="234.9995581388322" y="39" font-size="4" fill="blue">17</text>
<rect x="236.4995581388322" y="20" width="2" height="9.5" stroke="black" stroke-width="0.1" fill-opacity="0" />
<path d="M269.9263561651918,20 l5,0 M274.9263561651918,20 a20.61805456436845,10.0,0,0,1,0,20 M274.9263561651918,40 l-5,0 M274.9263561651918,20 l-5,0 M269.9263561651918,20 l-9.308743461991135,10.0 M260.6176127032007,30.0 l9.308743461991135,10.0 M276.4263561651918,20" stroke-width="0.1" stroke="black" fill="black" fill-opacity="0.0" />
<text x="269.9263561651918" y="34" font-size="4" fill="blue">GD</text>
<text x="269.9263561651918" y="39" font-size="4" fill="blue">18</text>
<rect x="271.4263561651918" y="20" width="2" height="9.5" stroke="black" stroke-width="0.1" fill-opacity="0" />
<path d="M3.9150993073816327,40 l5,0 M8.915099307381633,40 a15.335538219993209,10.0,0,0,1,0,20 M8.915099307381633,60 l-5,0 M8.915099307381633,40 l-5,0 M3.9150993073816327,40 l-3.9150993073816327,10.0 M0.0,50.0 l3.9150993073816327,10.0 M10.415099307381633,40" stroke-width="0.1" stroke="black" fill="black" fill-opacity="0.0" />
<text x="3.9150993073816327" y="54" font-size="4" fill="blue">GD</text>
<text x="3.9150993073816327" y="59" font-size="4" fill="blue">19</text>
<rect x="5.415099307381633" y="40" width="2" height="9.5" stroke="black" stroke-width="0.1" fill-opacity="0" />
<path d="M28.165736834756473,40 l5,0 M33.16573683475647,40 a20.61805456436845,10.0,0,0,1,0,20 M33.16573683475647,60 l-5,0 M33.16573683475647,40 l-5,0 M28.165736834756473,40 l-3.9150993073816327,10.0 M24.250637527374842,50.0 l3.9150993073816327,10.0 M34.66573683475647,40" stroke-width="0.1" stroke="black" fill="black" fill-opacity="0.0" />
<text x="28.165736834756473" y="54" font-size="4" fill="blue">GD</text>
<text x="28.165736834756473" y="59" font-size="4" fill="blue">20</text>
<rect x="29.665736834756473" y="40" width="2" height="9.5" stroke="black" stroke-width="0.1" fill-opacity="0" />
<path d="M63.092534861116064,40 l5,0 M68.09253486111606,40 a20.61805456436845,10.0,0,0,1,0,20 M68.09253486111606,60 l-5,0 M68.09253486111606,40 l-5,0 M63.092534861116064,40 l-9.308743461991135,10.0 M53.78379139912493,50.0 l9.308743461991135,10.0 M69.59253486111606,40" stroke-width="0.1" stroke="black" fill="black" fill-opacity="0.0" />
<text x="63.092534861116064" y="54" font-size="4" fill="blue">GD</text>
<text x="63.092534861116064" y="59" font-size="4" fill="blue">21</text>
<rect x="64.59253486111606" y="40" width="2" height="9.5" stroke="black" stroke-width="0.1" fill-opacity="0" />
<path d="M92.62568873286614,40 l5,0 M97.62568873286614,40 a20.61805456436845,10.0,0,0,1,0,20 M97.62568873286614,60 l-5,0 M97.62568873286614,40 l-5,0 M92.62568873286614,40 l-3.9150993073816327,10.0 M88.7105894254845,50.0 l3.9150993073816327,10.0 M99.12568873286614,40" stroke-width="0.1" stroke="black" fill="black" fill-opacity="0.0" />
<text x="92.62568873286614" y="54" font-size="4" fill="blue">GD</text>
<text x="92.62568873286614" y="59" font-size="4" fill="blue">22</text>
<rect x="94.12568873286614" y="40" width="2" height="9.5" stroke="black" stroke-width="0.1" fill-opacity="0" />
<path d="M122.15884260461621,40 l5,0 M127.15884260461621,40 a20.61805456436845,10.0,0,0,1,0,20 M127.15884260461621,60 l-5,0 M127.15884260461621,40 l-5,0 M122.15884260461621,40 l-3.9150993073816327,10.0 M118.24374329723457,50.0 l3.9150993073816327,10.0 M128.6588426046162,40" stroke-width="0.1" stroke="black" fill="black" fill-opacity="0.0" />
<text x="122.15884260461621" y="54" font-size="4" fill="blue">GD</text>
<text x="122.15884260461621" y="59" font-size="4" fill="blue">23</text>
<rect x="123.65884260461621" y="40" width="2" height="9.5" stroke="black" stroke-width="0.1" fill-opacity="0" />
</svg>