<?xml version="1.0" encoding="UTF-8"?>
<svg xmlns="http://www.w3.org/2000/svg" xmlns:xlink="http://www.w3.org/1999/xlink"
     width="1128.1906642222536" height="1504.2542189630049" viewBox="0 0 300 400">
<defs>
</defs>
<path d="M9.861625064558144,0 l5,0 M14.861625064558144,0 a15.188551963429376,10.0,0,0,1,0,20 M14.861625064558144,20 l-5,0 M14.861625064558144,0 l-5,0 M9.861625064558144,0 l-9.861625064558144,10.0 M0.0,10.0 l9.861625064558144,10.0 M16.361625064558144,0" stroke-width="0.1" stroke="black" fill="black" fill-opacity="0.0" />
<text x="9.861625064558144" y="14" font-size="4" fill="blue">GF</text>
<text x="9.861625064558144" y="19" font-size="4" fill="blue">0</text>
<rect x="11.361625064558144" y="0" width="2" height="9.5" stroke="black" stroke-width="0.1" fill-opacity="0" />
<path d="M39.98729205583034,0 l5,0 M44.98729205583034,0 a14.311415328130469,10.0,0,0,1,0,20 M44.98729205583034,20 l-5,0 M44.98729205583034,0 l-5,0 M39.98729205583034,0 l-9.937115027842815,10.0 M30.050177027987523,10.0 l9.937115027842815,10.0 M46.48729205583034,0" stroke-width="0.1" stroke="black" fill="black" fill-opacity="0.0" />
<text x="39.98729205583034" y="14" font-size="4" fill="blue">GF</text>
<text x="39.98729205583034" y="19" font-size="4" fill="blue">1</text>
<rect x="41.48729205583034" y="0" width="2" height="9.5" stroke="black" stroke-width="0.1" fill-opacity="0" />
<path d="M69.32748858468184,0 l5,0 M74.32748858468184,0 a8.046782891242204,10.0,0,0,1,0,20 M74.32748858468184,20 l-5,0 M74.32748858468184,0 l-5,0 M69.32748858468184,0 l-10.028781200721046,10.0 M59.2987073839608,10.0 l10.028781200721046,10.0 M75.82748858468184,0" stroke-width="0.1" stroke="black" fill="black" fill-opacity="0.0" />
<text x="69.32748858468184" y="14" font-size="4" fill="blue">GF</text>
<text x="69.32748858468184" y="19" font-size="4" fill="blue">2</text>
<rect x="70.82748858468184" y="0" width="2" height="9.5" stroke="black" stroke-width="0.1" fill-opacity="0" />
<path d="M93.19169667865631,0 l5,0 M98.19169667865631,0 a10.976037084788594,10.0,0,0,1,0,20 M98.19169667865631,20 l-5,0 M98.19169667865631,0 l-5,0 M93.19169667865631,0 l-10.817425202732263,10.0 M82.37427147592405,10.0 l10.817425202732263,10.0 M99.69169667865631,0" stroke-width="0.1" stroke="black" fill="black" fill-opacity="0.0" />
<text x="93.19169667865631" y="14" font-size="4" fill="blue">GF</text>
<text x="93.19169667865631" y="19" font-size="4" fill="blue">3</text>
<rect x="94.69169667865631" y="0" width="2" height="9.5" stroke="black" stroke-width="0.1" fill-opacity="0" />
<path d="M120.13341196799132,0 l5,0 M125.13341196799132,0 a11.585712655362858,10.0,0,0,1,0,20 M125.13341196799132,20 l-5,0 M125.13341196799132,0 l-5,0 M120.13341196799132,0 l-10.965678204546414,10.0 M109.16773376344491,10.0 l10.965678204546414,10.0 M126.63341196799132,0" stroke-width="0.1" stroke="black" fill="black" fill-opacity="0.0" />
<text x="120.13341196799132" y="14" font-size="4" fill="blue">GF</text>
<text x="120.13341196799132" y="19" font-size="4" fill="blue">4</text>
<rect x="121.63341196799132" y="0" width="2" height="9.5" stroke="black" stroke-width="0.1" fill-opacity="0" />
<path d="M147.6829697528302,0 l5,0 M152.6829697528302,0 a11.969028598323865,10.0,0,0,1,0,20 M152.6829697528302,20 l-5,0 M152.6829697528302,0 l-5,0 M147.6829697528302,0 l-10.963845129476026,10.0 M136.71912462335416,10.0 l10.963845129476026,10.0 M154.1829697528302,0" stroke-width="0.1" stroke="black" fill="black" fill-opacity="0.0" />
<text x="147.6829697528302" y="14" font-size="4" fill="blue">GF</text>
<text x="147.6829697528302" y="19" font-size="4" fill="blue">5</text>
<rect x="149.1829697528302" y="0" width="2" height="9.5" stroke="black" stroke-width="0.1" fill-opacity="0" />
<path d="M175.4939909684435,0 l5,0 M180.4939909684435,0 a13.932305009234282,10.0,0,0,1,0,20 M180.4939909684435,20 l-5,0 M180.4939909684435,0 l-5,0 M175.4939909684435,0 l-10.84199261728947,10.0 M164.65199835115405,10.0 l10.84199261728947,10.0 M181.9939909684435,0" stroke-width="0.1" stroke="black" fill="black" fill-opacity="0.0" />
<text x="175.4939909684435" y="14" font-size="4" fill="blue">GF</text>
<text x="175.4939909684435" y="19" font-size="4" fill="blue">6</text>
<rect x="176.9939909684435" y="0" width="2" height="9.5" stroke="black" stroke-width="0.1" fill-opacity="0" />
<path d="M211.0648907033784,0 l5,0 M216.0648907033784,0 a15.471448998200097,10.0,0,0,1,0,20 M216.0648907033784,20 l-5,0 M216.0648907033784,0 l-5,0 M211.0648907033784,0 l-16.63859472570061,10.0 M194.4262959776778,10.0 l16.63859472570061,10.0 M217.5648907033784,0" stroke-width="0.1" stroke="black" fill="black" fill-opacity="0.0" />
<text x="211.0648907033784" y="14" font-size="4" fill="blue">GF</text>
<text x="211.0648907033784" y="19" font-size="4" fill="blue">7</text>
<rect x="212.5648907033784" y="0" width="2" height="9.5" stroke="black" stroke-width="0.1" fill-opacity="0" />
<path d="M241.81990833681797,0 l5,0 M246.81990833681797,0 a18.112707170387722,10.0,0,0,1,0,20 M246.81990833681797,20 l-5,0 M246.81990833681797,0 l-5,0 M241.81990833681797,0 l-10.28356863523947,10.0 M231.5363397015785,10.0 l10.28356863523947,10.0 M248.31990833681797,0" stroke-width="0.1" stroke="black" fill="black" fill-opacity="0.0" />
<text x="241.81990833681797" y="14" font-size="4" fill="blue">GF</text>
<text x="241.81990833681797" y="19" font-size="4" fill="blue">8</text>
<rect x="243.31990833681797" y="0" width="2" height="9.5" stroke="black" stroke-width="0.1" fill-opacity="0" />
<path d="M274.8915681300367,0 l5,0 M279.8915681300367,0 a12.830190826012478,10.0,0,0,1,0,20 M279.8915681300367,20 l-5,0 M279.8915681300367,0 l-5,0 M274.8915681300367,0 l-9.958952622830996,10.0 M264.9326155072057,10.0 l9.958952622830996,10.0 M281.3915681300367,0" stroke-width="0.1" stroke="black" fill="black" fill-opacity="0.0" />
<text x="274.8915681300367" y="14" font-size="4" fill="blue">GF</text>
<text x="274.8915681300367" y="19" font-size="4" fill="blue">9</text>
<rect x="276.3915681300367" y="0" width="2" height="9.5" stroke="black" stroke-width="0.1" fill-opacity="0" />
<path d="M8.296192669383569,20 l5,0 M13.296192669383569,20 a12.830190826012478,10.0,0,0,1,0,20 M13.296192669383569,40 l-5,0 M13.296192669383569,20 l-5,0 M8.296192669383569,20 l-8.296192669383569,10.0 M0.0,30.0 l8.296192669383569,10.0 M14.796192669383569,20" stroke-width="0.1" stroke="black" fill="black" fill-opacity="0.0" />
<text x="8.296192669383569" y="34" font-size="4" fill="blue">GF</text>
<text x="8.296192669383569" y="39" font-size="4" fill="blue">10</text>
<rect x="9.796192669383569" y="20" width="2" height="9.5" stroke="black" stroke-width="0.1" fill-opacity="0" />
<path d="M34.14419914535521,20 l5,0 M39.14419914535521,20 a12.830190826012478,10.0,0,0,1,0,20 M39.14419914535521,40 l-5,0 M39.14419914535521,20 l-5,0 M34.14419914535521,20 l-8.01781564995916,10.0 M26.12638349539605,30.0 l8.01781564995916,10.0 M40.64419914535521,20" stroke-width="0.1" stroke="black" fill="black" fill-opacity="0.0" />
<text x="34.14419914535521" y="34" font-size="4" fill="blue">GF</text>
<text x="34.14419914535521" y="39" font-size="4" fill="blue">11</text>
<rect x="35.64419914535521" y="20" width="2" height="9.5" stroke="black" stroke-width="0.1" fill-opacity="0" />
<path d="M63.10653123696301,20 l5,0 M68.10653123696301,20 a12.830190826012478,10.0,0,0,1,0,20 M68.10653123696301,40 l-5,0 M68.10653123696301,20 l-5,0 M63.10653123696301,20 l-11.132141265595322,10.0 M51.974389971367685,30.0 l11.132141265595322,10.0 M69.60653123696301,20" stroke-width="0.1" stroke="black" fill="black" fill-opacity="0.0" />
<text x="63.10653123696301" y="34" font-size="4" fill="blue">GF</text>
<text x="63.10653123696301" y="39" font-size="4" fill="blue">12</text>
<rect x="64.60653123696301" y="20" width="2" height="9.5" stroke="black" stroke-width="0.1" fill-opacity="0" />
<path d="M89.37204125126607,20 l5,0 M94.37204125126607,20 a12.830190826012478,10.0,0,0,1,0,20 M94.37204125126607,40 l-5,0 M94.37204125126607,20 l-5,0 M89.37204125126607,20 l-8.43531918829057,10.0 M80.93672206297549,30.0 l8.43531918829057,10.0 M95.87204125126607,20" stroke-width="0.1" stroke="black" fill="black" fill-opacity="0.0" />
<text x="89.37204125126607" y="34" font-size="4" fill="blue">GF</text>
<text x="89.37204125126607" y="39" font-size="4" fill="blue">13</text>
<rect x="90.87204125126607" y="20" width="2" height="9.5" stroke="black" stroke-width="0.1" fill-opacity="0" />
<path d="M115.6375512655691,20 l5,0 M120.6375512655691,20 a18.112707170387722,10.0,0,0,1,0,20 M120.6375512655691,40 l-5,0 M120.6375512655691,20 l-5,0 M115.6375512655691,20 l-8.43531918829057,10.0 M107.20223207727852,30.0 l8.43531918829057,10.0 M122.1375512655691,20" stroke-width="0.1" stroke="black" fill="black" fill-opacity="0.0" />
<text x="115.6375512655691" y="34" font-size="4" fill="blue">GF</text>
<text x="115.6375512655691" y="39" font-size="4" fill="blue">14</text>
<rect x="117.1375512655691" y="20" width="2" height="9.5" stroke="black" stroke-width="0.1" fill-opacity="0" />
<path d="M147.1855776242474,20 l5,0 M152.1855776242474,20 a12.830190826012478,10.0,0,0,1,0,20 M152.1855776242474,40 l-5,0 M152.1855776242474,20 l-5,0 M147.1855776242474,20 l-8.43531918829057,10.0 M138.75025843595682,30.0 l8.43531918829057,10.0 M153.6855776242474,20" stroke-width="0.1" stroke="black" fill="black" fill-opacity="0.0" />
<text x="147.1855776242474" y="34" font-size="4" fill="blue">GF</text>
<text x="147.1855776242474" y="39" font-size="4" fill="blue">15</text>
<rect x="148.6855776242474" y="20" width="2" height="9.5" stroke="black" stroke-width="0.1" fill-opacity="0" />
<path d="M173.45108763855046,20 l5,0 M178.45108763855046,20 a18.112707170387722,10.0,0,0,1,0,20 M178.45108763855046,40 l-5,0 M178.45108763855046,20 l-5,0 M173.45108763855046,20 l-8.43531918829057,10.0 M165.01576845025988,30.0 l8.43531918829057,10.0 M179.95108763855046,20" stroke-width="0.1" stroke="black" fill="black" fill-opacity="0.0" />
<text x="173.45108763855046" y="34" font-size="4" fill="blue">GF</text>
<text x="173.45108763855046" y="39" font-size="4" fill="blue">16</text>
<rect x="174.95108763855046" y="20" width="2" height="9.5" stroke="black" stroke-width="0.1" fill-opacity="0" />
<path d="M204.99911399722876,20 l5,0 M209.99911399722876,20 a12.830190826012478,10.0,0,0,1,0,20 M209.99911399722876,40 l-5,0 M209.99911399722876,20 l-5,0 M204.99911399722876,20 l-8.43531918829057,10.0 M196.56379480893818,30.0 l8.43531918829057,10.0 M211.49911399722876,20" stroke-width="0.1" stroke="black" fill="black" fill-opacity="0.0" />
<text x="204.99911399722876" y="34" font-size="4" fill="blue">GF</text>
<text x="204.99911399722876" y="39" font-size="4" fill="blue">17</text>
<rect x="206.49911399722876" y="20" width="2" height="9.5" stroke="black" stroke-width="0.1" fill-opacity="0" />
<path d="M231.2646240115318,20 l5,0 M236.2646240115318,20 a12.830190826012478,10.0,0,0,1,0,20 M236.2646240115318,40 l-5,0 M236.2646240115318,20 l-5,0 M231.2646240115318,20 l-8.43531918829057,10.0 M222.82930482324122,30.0 l8.43531918829057,10.0 M237.7646240115318,20" stroke-width="0.1" stroke="black" fill="black" fill-opacity="0.0" />
<text x="231.2646240115318" y="34" font-size="4" fill="blue">GF</text>
<text x="231.2646240115318" y="39" font-size="4" fill="blue">18</text>
<rect x="232.7646240115318" y="20" width="2" height="9.5" stroke="black" stroke-width="0.1" fill-opacity="0" />
<path d="M257.53013402583485,20 l5,0 M262.53013402583485,20 a12.830190826012478,10.0,0,0,1,0,20 M262.53013402583485,40 l-5,0 M262.53013402583485,20 l-5,0 M257.53013402583485,20 l-8.43531918829057,10.0 M249.09481483754428,30.0 l8.43531918829057,10.0 M264.03013402583485,20" stroke-width="0.1" stroke="black" fill="black" fill-opacity="0.0" />
<text x="257.53013402583485" y="34" font-size="4" fill="blue">GF</text>
<text x="257.53013402583485" y="39" font-size="4" fill="blue">19</text>
<rect x="259.03013402583485" y="20" width="2" height="9.5" stroke="black" stroke-width="0.1" fill-opacity="0" />
<path d="M8.43531918829057,40 l5,0 M13.43531918829057,40 a18.112707170387722,10.0,0,0,1,0,20 M13.43531918829057,60 l-5,0 M13.43531918829057,40 l-5,0 M8.43531918829057,40 l-8.43531918829057,10.0 M0.0,50.0 l8.43531918829057,10.0 M14.93531918829057,40" stroke-width="0.1" stroke="black" fill="black" fill-opacity="0.0" />
<text x="8.43531918829057" y="54" font-size="4" fill="blue">GF</text>
<text x="8.43531918829057" y="59" font-size="4" fill="blue">20</text>
<rect x="9.93531918829057" y="40" width="2" height="9.5" stroke="black" stroke-width="0.1" fill-opacity="0" />
<path d="M39.98334554696886,40 l5,0 M44.98334554696886,40 a18.112707170387722,10.0,0,0,1,0,20 M44.98334554696886,60 l-5,0 M44.98334554696886,40 l-5,0 M39.98334554696886,40 l-8.43531918829057,10.0 M31.548026358678293,50.0 l8.43531918829057,10.0 M46.48334554696886,40" stroke-width="0.1" stroke="black" fill="black" fill-opacity="0.0" />
<text x="39.98334554696886" y="54" font-size="4" fill="blue">GF</text>
<text x="39.98334554696886" y="59" font-size="4" fill="blue">21</text>
<rect x="41.48334554696886" y="40" width="2" height="9.5" stroke="black" stroke-width="0.1" fill-opacity="0" />
<path d="M76.92501606025665,40 l5,0 M81.92501606025665,40 a18.112707170387722,10.0,0,0,1,0,20 M81.92501606025665,60 l-5,0 M81.92501606025665,40 l-5,0 M76.92501606025665,40 l-13.828963342900073,10.0 M63.096052717356585,50.0 l13.828963342900073,10.0 M83.42501606025665,40" stroke-width="0.1" stroke="black" fill="black" fill-opacity="0.0" />
<text x="76.92501606025665" y="54" font-size="4" fill="blue">GF</text>
<text x="76.92501606025665" y="59" font-size="4" fill="blue">22</text>
<rect x="78.42501606025665" y="40" width="2" height="9.5" stroke="black" stroke-width="0.1" fill-opacity="0" />
<path d="M113.86668657354446,40 l5,0 M118.86668657354446,40 a12.830190826012478,10.0,0,0,1,0,20 M118.86668657354446,60 l-5,0 M118.86668657354446,40 l-5,0 M113.86668657354446,40 l-13.828963342900073,10.0 M100.03772323064439,50.0 l13.828963342900073,10.0 M120.36668657354446,40" stroke-width="0.1" stroke="black" fill="black" fill-opacity="0.0" />
<text x="113.86668657354446" y="54" font-size="4" fill="blue">GF</text>
<text x="113.86668657354446" y="59" font-size="4" fill="blue">23</text>
<rect x="115.36668657354446" y="40" width="2" height="9.5" stroke="black" stroke-width="0.1" fill-opacity="0" />
</svg>