<?xml version="1.0" encoding="UTF-8" standalone="no"?>
<svg
   width="1128.1906642222536"
   height="1504.2542189630049"
   viewBox="0 0 300 400"
   version="1.1"
   id="svg48"
   sodipodi:docname="HL.svg"
   inkscape:version="1.3.2 (091e20e, 2023-11-25, custom)"
   xmlns:inkscape="http://www.inkscape.org/namespaces/inkscape"
   xmlns:sodipodi="http://sodipodi.sourceforge.net/DTD/sodipodi-0.dtd"
   xmlns="http://www.w3.org/2000/svg"
   xmlns:svg="http://www.w3.org/2000/svg">
  <sodipodi:namedview
     id="namedview48"
     pagecolor="#ffffff"
     bordercolor="#000000"
     borderopacity="0.25"
     inkscape:showpageshadow="2"
     inkscape:pageopacity="0.0"
     inkscape:pagecheckerboard="0"
     inkscape:deskcolor="#d1d1d1"
     inkscape:zoom="0.95099008"
     inkscape:cx="612.51953"
     inkscape:cy="349.63561"
     inkscape:window-width="1920"
     inkscape:window-height="991"
     inkscape:window-x="-9"
     inkscape:window-y="-9"
     inkscape:window-maximized="1"
     inkscape:current-layer="svg48" />
  <defs
     id="defs1" />
  <path
     d="M7.7455112211982495,0 l5,0 M12.74551122119825,0 a6.176450979275578,10.0,0,0,1,0,20 M12.74551122119825,20 l-5,0 M12.74551122119825,0 l-5,0 M7.7455112211982495,0 l-7.7455112211982495,10.0 M0.0,10.0 l7.7455112211982495,10.0 M14.24551122119825,0"
     stroke-width="0.1"
     stroke="black"
     fill="black"
     fill-opacity="0.0"
     id="path1" />
  <text
     x="7.7455112211982495"
     y="14"
     font-size="4"
     fill="blue"
     id="text1">HL</text>
  <text
     x="7.7455112211982495"
     y="19"
     font-size="4"
     fill="blue"
     id="text2">0</text>
  <rect
     x="9.24551122119825"
     y="0"
     width="2"
     height="9.5"
     stroke="black"
     stroke-width="0.1"
     fill-opacity="0"
     id="rect2" />
  <path
     d="M27.75657433198961,0 l5,0 M32.75657433198961,0 a5.567000443719168,10.0,0,0,1,0,20 M32.75657433198961,20 l-5,0 M32.75657433198961,0 l-5,0 M27.75657433198961,0 l-8.834612131515783,10.0 M18.92196220047383,10.0 l8.834612131515783,10.0 M34.25657433198961,0"
     stroke-width="0.1"
     stroke="black"
     fill="black"
     fill-opacity="0.0"
     id="path2" />
  <text
     x="27.75657433198961"
     y="14"
     font-size="4"
     fill="blue"
     id="text3">HL</text>
  <text
     x="27.75657433198961"
     y="19"
     font-size="4"
     fill="blue"
     id="text4">1</text>
  <rect
     x="29.25657433198961"
     y="0"
     width="2"
     height="9.5"
     stroke="black"
     stroke-width="0.1"
     fill-opacity="0"
     id="rect4" />
  <path
     d="M49.04265403275809,0 l5,0 M54.04265403275809,0 a5,10.0,0,0,1,0,20 M54.04265403275809,20 l-5,0 M54.04265403275809,0 l-5,0 M49.04265403275809,0 l-10.719079257049309,10.0 M38.32357477570878,10.0 l10.719079257049309,10.0 M55.54265403275809,0"
     stroke-width="0.1"
     stroke="black"
     fill="black"
     fill-opacity="0.0"
     id="path4" />
  <text
     x="49.04265403275809"
     y="14"
     font-size="4"
     fill="blue"
     id="text5">HL</text>
  <text
     x="49.04265403275809"
     y="19"
     font-size="4"
     fill="blue"
     id="text6">2</text>
  <rect
     x="50.54265403275809"
     y="0"
     width="2"
     height="9.5"
     stroke="black"
     stroke-width="0.1"
     fill-opacity="0"
     id="rect6" />
  <path
     d="M70.30223004403179,0 l5,0 M75.30223004403179,0 a5.278507949392123,10.0,0,0,1,0,20 M75.30223004403179,20 l-5,0 M75.30223004403179,0 l-5,0 M70.30223004403179,0 l-11.259576011273706,10.0 M59.04265403275808,10.0 l11.259576011273706,10.0 M76.80223004403179,0"
     stroke-width="0.1"
     stroke="black"
     fill="black"
     fill-opacity="0.0"
     id="path6" />
  <text
     x="70.30223004403179"
     y="14"
     font-size="4"
     fill="blue"
     id="text7">HL</text>
  <text
     x="70.30223004403179"
     y="19"
     font-size="4"
     fill="blue"
     id="text8">3</text>
  <rect
     x="71.80223004403179"
     y="0"
     width="2"
     height="9.5"
     stroke="black"
     stroke-width="0.1"
     fill-opacity="0"
     id="rect8" />
  <path
     d="M95.5137132350468,0 l5,0 M100.5137132350468,0 a5.750337926636907,10.0,0,0,1,0,20 M100.5137132350468,20 l-5,0 M100.5137132350468,0 l-5,0 M95.5137132350468,0 l-14.932975241622872,10.0 M80.58073799342392,10.0 l14.932975241622872,10.0 M102.0137132350468,0"
     stroke-width="0.1"
     stroke="black"
     fill="black"
     fill-opacity="0.0"
     id="path8" />
  <text
     x="95.5137132350468"
     y="14"
     font-size="4"
     fill="blue"
     id="text9">HL</text>
  <text
     x="95.5137132350468"
     y="19"
     font-size="4"
     fill="blue"
     id="text10">4</text>
  <rect
     x="97.0137132350468"
     y="0"
     width="2"
     height="9.5"
     stroke="black"
     stroke-width="0.1"
     fill-opacity="0"
     id="rect10" />
  <path
     d="M118.85354206921616,0 l5,0 M123.85354206921616,0 a6.811200245506182,10.0,0,0,1,0,20 M123.85354206921616,20 l-5,0 M123.85354206921616,0 l-5,0 M118.85354206921616,0 l-12.589490907532458,10.0 M106.26405116168371,10.0 l12.589490907532458,10.0 M125.35354206921616,0"
     stroke-width="0.1"
     stroke="black"
     fill="black"
     fill-opacity="0.0"
     id="path10" />
  <text
     x="118.85354206921616"
     y="14"
     font-size="4"
     fill="blue"
     id="text11">HL</text>
  <text
     x="118.85354206921616"
     y="19"
     font-size="4"
     fill="blue"
     id="text12">5</text>
  <rect
     x="120.35354206921616"
     y="0"
     width="2"
     height="9.5"
     stroke="black"
     stroke-width="0.1"
     fill-opacity="0"
     id="rect12" />
  <path
     d="M140.80816536013813,0 l5,0 M145.80816536013813,0 a11.678698531541512,10.0,0,0,1,0,20 M145.80816536013813,20 l-5,0 M145.80816536013813,0 l-5,0 M140.80816536013813,0 l-10.143423045415776,10.0 M130.66474231472236,10.0 l10.143423045415776,10.0 M147.30816536013813,0"
     stroke-width="0.1"
     stroke="black"
     fill="black"
     fill-opacity="0.0"
     id="path12" />
  <text
     x="140.80816536013813"
     y="14"
     font-size="4"
     fill="blue"
     id="text13">HL</text>
  <text
     x="140.80816536013813"
     y="19"
     font-size="4"
     fill="blue"
     id="text14">6</text>
  <rect
     x="142.30816536013813"
     y="0"
     width="2"
     height="9.5"
     stroke="black"
     stroke-width="0.1"
     fill-opacity="0"
     id="rect14" />
  <path
     d="M165.96333090038416,0 l5,0 M170.96333090038416,0 a16.54917674594478,10.0,0,0,1,0,20 M170.96333090038416,20 l-5,0 M170.96333090038416,0 l-5,0 M165.96333090038416,0 l-8.476467008704509,10.0 M157.48686389167966,10.0 l8.476467008704509,10.0 M172.46333090038416,0"
     stroke-width="0.1"
     stroke="black"
     fill="black"
     fill-opacity="0.0"
     id="path14" />
  <text
     x="165.96333090038416"
     y="14"
     font-size="4"
     fill="blue"
     id="text15">HL</text>
  <text
     x="165.96333090038416"
     y="19"
     font-size="4"
     fill="blue"
     id="text16">7</text>
  <rect
     x="167.46333090038416"
     y="0"
     width="2"
     height="9.5"
     stroke="black"
     stroke-width="0.1"
     fill-opacity="0"
     id="rect16" />
  <path
     d="M195.26009615961937,0 l5,0 M200.26009615961937,0 a19.190434918132404,10.0,0,0,1,0,20 M200.26009615961937,20 l-5,0 M200.26009615961937,0 l-5,0 M195.26009615961937,0 l-7.747588513290437,10.0 M187.51250764632894,10.0 l7.747588513290437,10.0 M201.76009615961937,0"
     stroke-width="0.1"
     stroke="black"
     fill="black"
     fill-opacity="0.0"
     id="path16" />
  <text
     x="195.26009615961937"
     y="14"
     font-size="4"
     fill="blue"
     id="text17">HL</text>
  <text
     x="195.26009615961937"
     y="19"
     font-size="4"
     fill="blue"
     id="text18">8</text>
  <rect
     x="196.76009615961937"
     y="0"
     width="2"
     height="9.5"
     stroke="black"
     stroke-width="0.1"
     fill-opacity="0"
     id="rect18" />
  <path
     d="M226.22476047370327,0 l5,0 M231.22476047370327,0 a19.190434918132404,10.0,0,0,1,0,20 M231.22476047370327,20 l-5,0 M231.22476047370327,0 l-5,0 M226.22476047370327,0 l-6.774229395951485,10.0 M219.45053107775178,10.0 l6.774229395951485,10.0 M232.72476047370327,0"
     stroke-width="0.1"
     stroke="black"
     fill="black"
     fill-opacity="0.0"
     id="path18" />
  <text
     x="226.22476047370327"
     y="14"
     font-size="4"
     fill="blue"
     id="text19">HL</text>
  <text
     x="226.22476047370327"
     y="19"
     font-size="4"
     fill="blue"
     id="text20">9</text>
  <rect
     x="227.72476047370327"
     y="0"
     width="2"
     height="9.5"
     stroke="black"
     stroke-width="0.1"
     fill-opacity="0"
     id="rect20" />
  <path
     d="M255.94151937031893,0 l5,0 M260.94151937031893,0 a13.907918573757161,10.0,0,0,1,0,20 M260.94151937031893,20 l-5,0 M260.94151937031893,0 l-5,0 M255.94151937031893,0 l-5.526323978483307,10.0 M250.41519539183562,10.0 l5.526323978483307,10.0 M262.44151937031893,0"
     stroke-width="0.1"
     stroke="black"
     fill="black"
     fill-opacity="0.0"
     id="path20" />
  <text
     x="255.94151937031893"
     y="14"
     font-size="4"
     fill="blue"
     id="text21">HL</text>
  <text
     x="255.94151937031893"
     y="19"
     font-size="4"
     fill="blue"
     id="text22">10</text>
  <rect
     x="257.44151937031893"
     y="0"
     width="2"
     height="9.5"
     stroke="black"
     stroke-width="0.1"
     fill-opacity="0"
     id="rect22" />
  <path
     d="M5.532923131734874,20 l5,0 M10.532923131734874,20 a19.190434918132404,10.0,0,0,1,0,20 M10.532923131734874,40 l-5,0 M10.532923131734874,20 l-5,0 M5.532923131734874,20 l-5.532923131734874,10.0 M0.0,30.0 l5.532923131734874,10.0 M12.032923131734874,20"
     stroke-width="0.1"
     stroke="black"
     fill="black"
     fill-opacity="0.0"
     id="path22" />
  <text
     x="5.532923131734874"
     y="34"
     font-size="4"
     fill="blue"
     id="text23">HL</text>
  <text
     x="5.532923131734874"
     y="39"
     font-size="4"
     fill="blue"
     id="text24">11</text>
  <rect
     x="7.032923131734874"
     y="20"
     width="2"
     height="9.5"
     stroke="black"
     stroke-width="0.1"
     fill-opacity="0"
     id="rect24" />
  <path
     d="M34.72335804986728,20 l5,0 M39.72335804986728,20 a13.907918573757161,10.0,0,0,1,0,20 M39.72335804986728,40 l-5,0 M39.72335804986728,20 l-5,0 M34.72335804986728,20 l-5,10.0 M29.72335804986728,30.0 l5,10.0 M41.22335804986728,20"
     stroke-width="0.1"
     stroke="black"
     fill="black"
     fill-opacity="0.0"
     id="path24" />
  <text
     x="34.72335804986728"
     y="34"
     font-size="4"
     fill="blue"
     id="text25">HL</text>
  <text
     x="34.72335804986728"
     y="39"
     font-size="4"
     fill="blue"
     id="text26">12</text>
  <rect
     x="36.22335804986728"
     y="20"
     width="2"
     height="9.5"
     stroke="black"
     stroke-width="0.1"
     fill-opacity="0"
     id="rect26" />
  <path
     d="M61.32809870092919,20 l5,0 M66.32809870092919,20 a19.190434918132404,10.0,0,0,1,0,20 M66.32809870092919,40 l-5,0 M66.32809870092919,20 l-5,0 M61.32809870092919,20 l-7.696822077304751,10.0 M53.63127662362444,30.0 l7.696822077304751,10.0 M67.82809870092919,20"
     stroke-width="0.1"
     stroke="black"
     fill="black"
     fill-opacity="0.0"
     id="path26" />
  <text
     x="61.32809870092919"
     y="34"
     font-size="4"
     fill="blue"
     id="text27">HL</text>
  <text
     x="61.32809870092919"
     y="39"
     font-size="4"
     fill="blue"
     id="text28">13</text>
  <rect
     x="62.82809870092919"
     y="20"
     width="2"
     height="9.5"
     stroke="black"
     stroke-width="0.1"
     fill-opacity="0"
     id="rect28" />
  <path
     d="M87.82171154175686,20 l5,0 M92.82171154175686,20 a19.190434918132404,10.0,0,0,1,0,20 M92.82171154175686,40 l-5,0 M92.82171154175686,20 l-5,0 M87.82171154175686,20 l-2.303177922695249,10.0 M85.5185336190616,30.0 l2.303177922695249,10.0 M94.32171154175686,20"
     stroke-width="0.1"
     stroke="black"
     fill="black"
     fill-opacity="0.0"
     id="path28" />
  <text
     x="87.82171154175686"
     y="34"
     font-size="4"
     fill="blue"
     id="text29">HL</text>
  <text
     x="87.82171154175686"
     y="39"
     font-size="4"
     fill="blue"
     id="text30">14</text>
  <rect
     x="89.32171154175686"
     y="20"
     width="2"
     height="9.5"
     stroke="black"
     stroke-width="0.1"
     fill-opacity="0"
     id="rect30" />
  <path
     d="M114.3153243825845,20 l5,0 M119.3153243825845,20 a13.907918573757161,10.0,0,0,1,0,20 M119.3153243825845,40 l-5,0 M119.3153243825845,20 l-5,0 M114.3153243825845,20 l-2.303177922695249,10.0 M112.01214645988925,30.0 l2.303177922695249,10.0 M120.8153243825845,20"
     stroke-width="0.1"
     stroke="black"
     fill="black"
     fill-opacity="0.0"
     id="path30" />
  <text
     x="114.3153243825845"
     y="34"
     font-size="4"
     fill="blue"
     id="text31">HL</text>
  <text
     x="114.3153243825845"
     y="39"
     font-size="4"
     fill="blue"
     id="text32">15</text>
  <rect
     x="115.8153243825845"
     y="20"
     width="2"
     height="9.5"
     stroke="black"
     stroke-width="0.1"
     fill-opacity="0"
     id="rect32" />
  <path
     d="M135.52642087903692,20 l5,0 M140.52642087903692,20 a13.907918573757161,10.0,0,0,1,0,20 M140.52642087903692,40 l-5,0 M140.52642087903692,20 l-5,0 M135.52642087903692,20 l-2.303177922695249,10.0 M133.22324295634166,30.0 l2.303177922695249,10.0 M142.02642087903692,20"
     stroke-width="0.1"
     stroke="black"
     fill="black"
     fill-opacity="0.0"
     id="path32" />
  <text
     x="135.52642087903692"
     y="34"
     font-size="4"
     fill="blue"
     id="text33">HL</text>
  <text
     x="135.52642087903692"
     y="39"
     font-size="4"
     fill="blue"
     id="text34">16</text>
  <rect
     x="137.02642087903692"
     y="20"
     width="2"
     height="9.5"
     stroke="black"
     stroke-width="0.1"
     fill-opacity="0"
     id="rect34" />
  <path
     d="M156.73751737548932,20 l5,0 M161.73751737548932,20 a13.907918573757161,10.0,0,0,1,0,20 M161.73751737548932,40 l-5,0 M161.73751737548932,20 l-5,0 M156.73751737548932,20 l-2.303177922695249,10.0 M154.43433945279406,30.0 l2.303177922695249,10.0 M163.23751737548932,20"
     stroke-width="0.1"
     stroke="black"
     fill="black"
     fill-opacity="0.0"
     id="path34" />
  <text
     x="156.73751737548932"
     y="34"
     font-size="4"
     fill="blue"
     id="text35">HL</text>
  <text
     x="156.73751737548932"
     y="39"
     font-size="4"
     fill="blue"
     id="text36">17</text>
  <rect
     x="158.23751737548932"
     y="20"
     width="2"
     height="9.5"
     stroke="black"
     stroke-width="0.1"
     fill-opacity="0"
     id="rect36" />
  <path
     d="M177.94861387194172,20 l5,0 M182.94861387194172,20 a13.907918573757161,10.0,0,0,1,0,20 M182.94861387194172,40 l-5,0 M182.94861387194172,20 l-5,0 M177.94861387194172,20 l-2.303177922695249,10.0 M175.64543594924646,30.0 l2.303177922695249,10.0 M184.44861387194172,20"
     stroke-width="0.1"
     stroke="black"
     fill="black"
     fill-opacity="0.0"
     id="path36" />
  <text
     x="177.94861387194172"
     y="34"
     font-size="4"
     fill="blue"
     id="text37">HL</text>
  <text
     x="177.94861387194172"
     y="39"
     font-size="4"
     fill="blue"
     id="text38">18</text>
  <rect
     x="179.44861387194172"
     y="20"
     width="2"
     height="9.5"
     stroke="black"
     stroke-width="0.1"
     fill-opacity="0"
     id="rect38" />
  <path
     d="M204.5533545230036,20 l5,0 M209.5533545230036,20 a19.190434918132404,10.0,0,0,1,0,20 M209.5533545230036,40 l-5,0 M209.5533545230036,20 l-5,0 M204.5533545230036,20 l-7.696822077304751,10.0 M196.85653244569886,30.0 l7.696822077304751,10.0 M211.0533545230036,20"
     stroke-width="0.1"
     stroke="black"
     fill="black"
     fill-opacity="0.0"
     id="path38" />
  <text
     x="204.5533545230036"
     y="34"
     font-size="4"
     fill="blue"
     id="text39">HL</text>
  <text
     x="204.5533545230036"
     y="39"
     font-size="4"
     fill="blue"
     id="text40">19</text>
  <rect
     x="206.0533545230036"
     y="20"
     width="2"
     height="9.5"
     stroke="black"
     stroke-width="0.1"
     fill-opacity="0"
     id="rect40" />
  <path
     d="M231.04696736383127,20 l5,0 M236.04696736383127,20 a19.190434918132404,10.0,0,0,1,0,20 M236.04696736383127,40 l-5,0 M236.04696736383127,20 l-5,0 M231.04696736383127,20 l-2.303177922695249,10.0 M228.74378944113602,30.0 l2.303177922695249,10.0 M237.54696736383127,20"
     stroke-width="0.1"
     stroke="black"
     fill="black"
     fill-opacity="0.0"
     id="path40" />
  <text
     x="231.04696736383127"
     y="34"
     font-size="4"
     fill="blue"
     id="text41">HL</text>
  <text
     x="231.04696736383127"
     y="39"
     font-size="4"
     fill="blue"
     id="text42">20</text>
  <rect
     x="232.54696736383127"
     y="20"
     width="2"
     height="9.5"
     stroke="black"
     stroke-width="0.1"
     fill-opacity="0"
     id="rect42" />
  <path
     d="M262.93422435926846,20 l5,0 M267.93422435926846,20 a19.190434918132404,10.0,0,0,1,0,20 M267.93422435926846,40 l-5,0 M267.93422435926846,20 l-5,0 M262.93422435926846,20 l-7.696822077304751,10.0 M255.23740228196368,30.0 l7.696822077304751,10.0 M269.43422435926846,20"
     stroke-width="0.1"
     stroke="black"
     fill="black"
     fill-opacity="0.0"
     id="path42" />
  <text
     x="262.93422435926846"
     y="34"
     font-size="4"
     fill="blue"
     id="text43">HL</text>
  <text
     x="262.93422435926846"
     y="39"
     font-size="4"
     fill="blue"
     id="text44">21</text>
  <rect
     x="264.43422435926846"
     y="20"
     width="2"
     height="9.5"
     stroke="black"
     stroke-width="0.1"
     fill-opacity="0"
     id="rect44" />
  <path
     d="M7.696822077304752,40 l5,0 M12.696822077304752,40 a13.907918573757161,10.0,0,0,1,0,20 M12.696822077304752,60 l-5,0 M12.696822077304752,40 l-5,0 M7.696822077304752,40 l-7.696822077304751,10.0 M8.881784197001252e-16,50.0 l7.696822077304751,10.0 M14.196822077304752,40"
     stroke-width="0.1"
     stroke="black"
     fill="black"
     fill-opacity="0.0"
     id="path44" />
  <text
     x="7.696822077304752"
     y="54"
     font-size="4"
     fill="blue"
     id="text45">HL</text>
  <text
     x="7.696822077304752"
     y="59"
     font-size="4"
     fill="blue"
     id="text46">22</text>
  <rect
     x="9.196822077304752"
     y="40"
     width="2"
     height="9.5"
     stroke="black"
     stroke-width="0.1"
     fill-opacity="0"
     id="rect46" />
  <path
     d="M34.30156272836666,40 l5,0 M39.30156272836666,40 a19.190434918132404,10.0,0,0,1,0,20 M39.30156272836666,60 l-5,0 M39.30156272836666,40 l-5,0 M34.30156272836666,40 l-7.696822077304751,10.0 M26.60474065106191,50.0 l7.696822077304751,10.0 M40.80156272836666,40"
     stroke-width="0.1"
     stroke="black"
     fill="black"
     fill-opacity="0.0"
     id="path46" />
  <text
     x="34.30156272836666"
     y="54"
     font-size="4"
     fill="blue"
     id="text47">HL</text>
  <text
     x="34.30156272836666"
     y="59"
     font-size="4"
     fill="blue"
     id="text48">23</text>
  <rect
     x="35.80156272836666"
     y="40"
     width="2"
     height="9.5"
     stroke="black"
     stroke-width="0.1"
     fill-opacity="0"
     id="rect48" />
  <rect
     style="fill:none;stroke:#000000;stroke-width:0.100502;stroke-dasharray:none"
     id="rect49"
     width="72.36396"
     height="2.1128066"
     x="75.774933"
     y="48.652134" />
</svg>
