<?xml version="1.0" encoding="UTF-8"?>
<svg xmlns="http://www.w3.org/2000/svg" xmlns:xlink="http://www.w3.org/1999/xlink"
     width="1128.1906642222536" height="1504.2542189630049" viewBox="0 0 300 400">
<defs>
</defs>
<path d="M9.215774425223023,0 l5,0 M14.215774425223023,0 a12.373620916831921,10.0,0,0,1,0,20 M14.215774425223023,20 l-5,0 M14.215774425223023,0 l-5,0 M9.215774425223023,0 l-9.215774425223023,10.0 M0.0,10.0 l9.215774425223023,10.0 M15.715774425223023,0" stroke-width="0.1" stroke="black" fill="black" fill-opacity="0.0" />
<text x="9.215774425223023" y="14" font-size="4" fill="blue">KS</text>
<text x="9.215774425223023" y="19" font-size="4" fill="blue">0</text>
<rect x="10.715774425223023" y="0" width="2" height="9.5" stroke="black" stroke-width="0.1" fill-opacity="0" />
<path d="M36.75162210621983,0 l5,0 M41.75162210621983,0 a12.296806427708162,10.0,0,0,1,0,20 M41.75162210621983,20 l-5,0 M41.75162210621983,0 l-5,0 M36.75162210621983,0 l-10.162226764164886,10.0 M26.589395342054942,10.0 l10.162226764164886,10.0 M43.25162210621983,0" stroke-width="0.1" stroke="black" fill="black" fill-opacity="0.0" />
<text x="36.75162210621983" y="14" font-size="4" fill="blue">KS</text>
<text x="36.75162210621983" y="19" font-size="4" fill="blue">1</text>
<rect x="38.25162210621983" y="0" width="2" height="9.5" stroke="black" stroke-width="0.1" fill-opacity="0" />
<path d="M63.54413890667817,0 l5,0 M68.54413890667817,0 a9.536820943541255,10.0,0,0,1,0,20 M68.54413890667817,20 l-5,0 M68.54413890667817,0 l-5,0 M63.54413890667817,0 l-9.495710372750178,10.0 M54.04842853392799,10.0 l9.495710372750178,10.0 M70.04413890667817,0" stroke-width="0.1" stroke="black" fill="black" fill-opacity="0.0" />
<text x="63.54413890667817" y="14" font-size="4" fill="blue">KS</text>
<text x="63.54413890667817" y="19" font-size="4" fill="blue">2</text>
<rect x="65.04413890667817" y="0" width="2" height="9.5" stroke="black" stroke-width="0.1" fill-opacity="0" />
<path d="M85.49403143999191,0 l5,0 M90.49403143999191,0 a10.993189031266173,10.0,0,0,1,0,20 M90.49403143999191,20 l-5,0 M90.49403143999191,0 l-5,0 M85.49403143999191,0 l-7.413071589772506,10.0 M78.08095985021941,10.0 l7.413071589772506,10.0 M91.99403143999191,0" stroke-width="0.1" stroke="black" fill="black" fill-opacity="0.0" />
<text x="85.49403143999191" y="14" font-size="4" fill="blue">KS</text>
<text x="85.49403143999191" y="19" font-size="4" fill="blue">3</text>
<rect x="86.99403143999191" y="0" width="2" height="9.5" stroke="black" stroke-width="0.1" fill-opacity="0" />
<path d="M107.43617964812981,0 l5,0 M112.43617964812981,0 a10.623655540710462,10.0,0,0,1,0,20 M112.43617964812981,20 l-5,0 M112.43617964812981,0 l-5,0 M107.43617964812981,0 l-5.9489591768717105,10.0 M101.4872204712581,10.0 l5.9489591768717105,10.0 M113.93617964812981,0" stroke-width="0.1" stroke="black" fill="black" fill-opacity="0.0" />
<text x="107.43617964812981" y="14" font-size="4" fill="blue">KS</text>
<text x="107.43617964812981" y="19" font-size="4" fill="blue">4</text>
<rect x="108.93617964812981" y="0" width="2" height="9.5" stroke="black" stroke-width="0.1" fill-opacity="0" />
<path d="M137.2100479006719,0 l5,0 M142.2100479006719,0 a10.784940825950763,10.0,0,0,1,0,20 M142.2100479006719,20 l-5,0 M142.2100479006719,0 l-5,0 M137.2100479006719,0 l-14.150212711831621,10.0 M123.05983518884028,10.0 l14.150212711831621,10.0 M143.7100479006719,0" stroke-width="0.1" stroke="black" fill="black" fill-opacity="0.0" />
<text x="137.2100479006719" y="14" font-size="4" fill="blue">KS</text>
<text x="137.2100479006719" y="19" font-size="4" fill="blue">5</text>
<rect x="138.7100479006719" y="0" width="2" height="9.5" stroke="black" stroke-width="0.1" fill-opacity="0" />
<path d="M168.2685023272202,0 l5,0 M173.2685023272202,0 a13.369143453188816,10.0,0,0,1,0,20 M173.2685023272202,20 l-5,0 M173.2685023272202,0 l-5,0 M168.2685023272202,0 l-15.273513600597568,10.0 M152.99498872662264,10.0 l15.273513600597568,10.0 M174.7685023272202,0" stroke-width="0.1" stroke="black" fill="black" fill-opacity="0.0" />
<text x="168.2685023272202" y="14" font-size="4" fill="blue">KS</text>
<text x="168.2685023272202" y="19" font-size="4" fill="blue">6</text>
<rect x="169.7685023272202" y="0" width="2" height="9.5" stroke="black" stroke-width="0.1" fill-opacity="0" />
<path d="M197.6676765062667,0 l5,0 M202.6676765062667,0 a16.107159301771905,10.0,0,0,1,0,20 M202.6676765062667,20 l-5,0 M202.6676765062667,0 l-5,0 M197.6676765062667,0 l-11.030030725857708,10.0 M186.637645780409,10.0 l11.030030725857708,10.0 M204.1676765062667,0" stroke-width="0.1" stroke="black" fill="black" fill-opacity="0.0" />
<text x="197.6676765062667" y="14" font-size="4" fill="blue">KS</text>
<text x="197.6676765062667" y="19" font-size="4" fill="blue">7</text>
<rect x="199.1676765062667" y="0" width="2" height="9.5" stroke="black" stroke-width="0.1" fill-opacity="0" />
<path d="M231.936384359833,0 l5,0 M236.936384359833,0 a13.465901129584285,10.0,0,0,1,0,20 M236.936384359833,20 l-5,0 M236.936384359833,0 l-5,0 M231.936384359833,0 l-13.161548551794379,10.0 M218.77483580803863,10.0 l13.161548551794379,10.0 M238.436384359833,0" stroke-width="0.1" stroke="black" fill="black" fill-opacity="0.0" />
<text x="231.936384359833" y="14" font-size="4" fill="blue">KS</text>
<text x="231.936384359833" y="19" font-size="4" fill="blue">8</text>
<rect x="233.436384359833" y="0" width="2" height="9.5" stroke="black" stroke-width="0.1" fill-opacity="0" />
<path d="M263.79044872236614,0 l5,0 M268.79044872236614,0 a13.465901129584285,10.0,0,0,1,0,20 M268.79044872236614,20 l-5,0 M268.79044872236614,0 l-5,0 M263.79044872236614,0 l-13.38816323294882,10.0 M250.40228548941732,10.0 l13.38816323294882,10.0 M270.29044872236614,0" stroke-width="0.1" stroke="black" fill="black" fill-opacity="0.0" />
<text x="263.79044872236614" y="14" font-size="4" fill="blue">KS</text>
<text x="263.79044872236614" y="19" font-size="4" fill="blue">9</text>
<rect x="265.29044872236614" y="0" width="2" height="9.5" stroke="black" stroke-width="0.1" fill-opacity="0" />
<path d="M14.614552491103606,20 l5,0 M19.614552491103606,20 a18.74841747395953,10.0,0,0,1,0,20 M19.614552491103606,40 l-5,0 M19.614552491103606,20 l-5,0 M14.614552491103606,20 l-14.614552491103606,10.0 M0.0,30.0 l14.614552491103606,10.0 M21.114552491103606,20" stroke-width="0.1" stroke="black" fill="black" fill-opacity="0.0" />
<text x="14.614552491103606" y="34" font-size="4" fill="blue">KS</text>
<text x="14.614552491103606" y="39" font-size="4" fill="blue">10</text>
<rect x="16.114552491103606" y="20" width="2" height="9.5" stroke="black" stroke-width="0.1" fill-opacity="0" />
<path d="M50.05373985377886,20 l5,0 M55.05373985377886,20 a18.74841747395953,10.0,0,0,1,0,20 M55.05373985377886,40 l-5,0 M55.05373985377886,20 l-5,0 M50.05373985377886,20 l-11.690769888715723,10.0 M38.36296996506314,30.0 l11.690769888715723,10.0 M56.55373985377886,20" stroke-width="0.1" stroke="black" fill="black" fill-opacity="0.0" />
<text x="50.05373985377886" y="34" font-size="4" fill="blue">KS</text>
<text x="50.05373985377886" y="39" font-size="4" fill="blue">11</text>
<rect x="51.55373985377886" y="20" width="2" height="9.5" stroke="black" stroke-width="0.1" fill-opacity="0" />
<path d="M83.1734523671018,20 l5,0 M88.1734523671018,20 a13.465901129584285,10.0,0,0,1,0,20 M88.1734523671018,40 l-5,0 M88.1734523671018,20 l-5,0 M83.1734523671018,20 l-9.371295039363407,10.0 M73.8021573277384,30.0 l9.371295039363407,10.0 M89.6734523671018,20" stroke-width="0.1" stroke="black" fill="black" fill-opacity="0.0" />
<text x="83.1734523671018" y="34" font-size="4" fill="blue">KS</text>
<text x="83.1734523671018" y="39" font-size="4" fill="blue">12</text>
<rect x="84.6734523671018" y="20" width="2" height="9.5" stroke="black" stroke-width="0.1" fill-opacity="0" />
<path d="M108.31382645874474,20 l5,0 M113.31382645874474,20 a18.74841747395953,10.0,0,0,1,0,20 M113.31382645874474,40 l-5,0 M113.31382645874474,20 l-5,0 M108.31382645874474,20 l-6.674472962058654,10.0 M101.63935349668608,30.0 l6.674472962058654,10.0 M114.81382645874474,20" stroke-width="0.1" stroke="black" fill="black" fill-opacity="0.0" />
<text x="108.31382645874474" y="34" font-size="4" fill="blue">KS</text>
<text x="108.31382645874474" y="39" font-size="4" fill="blue">13</text>
<rect x="109.81382645874474" y="20" width="2" height="9.5" stroke="black" stroke-width="0.1" fill-opacity="0" />
<path d="M144.13036104937242,20 l5,0 M149.13036104937242,20 a18.74841747395953,10.0,0,0,1,0,20 M149.13036104937242,40 l-5,0 M149.13036104937242,20 l-5,0 M144.13036104937242,20 l-12.068117116668159,10.0 M132.06224393270426,30.0 l12.068117116668159,10.0 M150.63036104937242,20" stroke-width="0.1" stroke="black" fill="black" fill-opacity="0.0" />
<text x="144.13036104937242" y="34" font-size="4" fill="blue">KS</text>
<text x="144.13036104937242" y="39" font-size="4" fill="blue">14</text>
<rect x="145.63036104937242" y="20" width="2" height="9.5" stroke="black" stroke-width="0.1" fill-opacity="0" />
<path d="M174.5532514853906,20 l5,0 M179.5532514853906,20 a18.74841747395953,10.0,0,0,1,0,20 M179.5532514853906,40 l-5,0 M179.5532514853906,20 l-5,0 M174.5532514853906,20 l-6.674472962058654,10.0 M167.87877852333196,30.0 l6.674472962058654,10.0 M181.0532514853906,20" stroke-width="0.1" stroke="black" fill="black" fill-opacity="0.0" />
<text x="174.5532514853906" y="34" font-size="4" fill="blue">KS</text>
<text x="174.5532514853906" y="39" font-size="4" fill="blue">15</text>
<rect x="176.0532514853906" y="20" width="2" height="9.5" stroke="black" stroke-width="0.1" fill-opacity="0" />
<path d="M210.3697860760183,20 l5,0 M215.3697860760183,20 a13.465901129584285,10.0,0,0,1,0,20 M215.3697860760183,40 l-5,0 M215.3697860760183,20 l-5,0 M210.3697860760183,20 l-12.068117116668159,10.0 M198.30166895935014,30.0 l12.068117116668159,10.0 M216.8697860760183,20" stroke-width="0.1" stroke="black" fill="black" fill-opacity="0.0" />
<text x="210.3697860760183" y="34" font-size="4" fill="blue">KS</text>
<text x="210.3697860760183" y="39" font-size="4" fill="blue">16</text>
<rect x="211.8697860760183" y="20" width="2" height="9.5" stroke="black" stroke-width="0.1" fill-opacity="0" />
<path d="M235.51016016766124,20 l5,0 M240.51016016766124,20 a13.465901129584285,10.0,0,0,1,0,20 M240.51016016766124,40 l-5,0 M240.51016016766124,20 l-5,0 M235.51016016766124,20 l-6.674472962058654,10.0 M228.8356872056026,30.0 l6.674472962058654,10.0 M242.01016016766124,20" stroke-width="0.1" stroke="black" fill="black" fill-opacity="0.0" />
<text x="235.51016016766124" y="34" font-size="4" fill="blue">KS</text>
<text x="235.51016016766124" y="39" font-size="4" fill="blue">17</text>
<rect x="237.01016016766124" y="20" width="2" height="9.5" stroke="black" stroke-width="0.1" fill-opacity="0" />
<path d="M260.6505342593042,20 l5,0 M265.6505342593042,20 a13.465901129584285,10.0,0,0,1,0,20 M265.6505342593042,40 l-5,0 M265.6505342593042,20 l-5,0 M260.6505342593042,20 l-6.674472962058654,10.0 M253.97606129724556,30.0 l6.674472962058654,10.0 M267.1505342593042,20" stroke-width="0.1" stroke="black" fill="black" fill-opacity="0.0" />
<text x="260.6505342593042" y="34" font-size="4" fill="blue">KS</text>
<text x="260.6505342593042" y="39" font-size="4" fill="blue">18</text>
<rect x="262.1505342593042" y="20" width="2" height="9.5" stroke="black" stroke-width="0.1" fill-opacity="0" />
<path d="M12.068117116668159,40 l5,0 M17.06811711666816,40 a18.74841747395953,10.0,0,0,1,0,20 M17.06811711666816,60 l-5,0 M17.06811711666816,40 l-5,0 M12.068117116668159,40 l-12.068117116668159,10.0 M0.0,50.0 l12.068117116668159,10.0 M18.56811711666816,40" stroke-width="0.1" stroke="black" fill="black" fill-opacity="0.0" />
<text x="12.068117116668159" y="54" font-size="4" fill="blue">KS</text>
<text x="12.068117116668159" y="59" font-size="4" fill="blue">19</text>
<rect x="13.568117116668159" y="40" width="2" height="9.5" stroke="black" stroke-width="0.1" fill-opacity="0" />
<path d="M47.884651707295845,40 l5,0 M52.884651707295845,40 a18.74841747395953,10.0,0,0,1,0,20 M52.884651707295845,60 l-5,0 M52.884651707295845,40 l-5,0 M47.884651707295845,40 l-12.068117116668159,10.0 M35.81653459062768,50.0 l12.068117116668159,10.0 M54.384651707295845,40" stroke-width="0.1" stroke="black" fill="black" fill-opacity="0.0" />
<text x="47.884651707295845" y="54" font-size="4" fill="blue">KS</text>
<text x="47.884651707295845" y="59" font-size="4" fill="blue">20</text>
<rect x="49.384651707295845" y="40" width="2" height="9.5" stroke="black" stroke-width="0.1" fill-opacity="0" />
<path d="M78.30754214331404,40 l5,0 M83.30754214331404,40 a13.465901129584285,10.0,0,0,1,0,20 M83.30754214331404,60 l-5,0 M83.30754214331404,40 l-5,0 M78.30754214331404,40 l-6.674472962058654,10.0 M71.63306918125538,50.0 l6.674472962058654,10.0 M84.80754214331404,40" stroke-width="0.1" stroke="black" fill="black" fill-opacity="0.0" />
<text x="78.30754214331404" y="54" font-size="4" fill="blue">KS</text>
<text x="78.30754214331404" y="59" font-size="4" fill="blue">21</text>
<rect x="79.80754214331404" y="40" width="2" height="9.5" stroke="black" stroke-width="0.1" fill-opacity="0" />
<path d="M108.84156038956648,40 l5,0 M113.84156038956648,40 a13.465901129584285,10.0,0,0,1,0,20 M113.84156038956648,60 l-5,0 M113.84156038956648,40 l-5,0 M108.84156038956648,40 l-12.068117116668159,10.0 M96.77344327289832,50.0 l12.068117116668159,10.0 M115.34156038956648,40" stroke-width="0.1" stroke="black" fill="black" fill-opacity="0.0" />
<text x="108.84156038956648" y="54" font-size="4" fill="blue">KS</text>
<text x="108.84156038956648" y="59" font-size="4" fill="blue">22</text>
<rect x="110.34156038956648" y="40" width="2" height="9.5" stroke="black" stroke-width="0.1" fill-opacity="0" />
<path d="M139.37557863581893,40 l5,0 M144.37557863581893,40 a13.465901129584285,10.0,0,0,1,0,20 M144.37557863581893,60 l-5,0 M144.37557863581893,40 l-5,0 M139.37557863581893,40 l-12.068117116668159,10.0 M127.30746151915076,50.0 l12.068117116668159,10.0 M145.87557863581893,40" stroke-width="0.1" stroke="black" fill="black" fill-opacity="0.0" />
<text x="139.37557863581893" y="54" font-size="4" fill="blue">KS</text>
<text x="139.37557863581893" y="59" font-size="4" fill="blue">23</text>
<rect x="140.87557863581893" y="40" width="2" height="9.5" stroke="black" stroke-width="0.1" fill-opacity="0" />
</svg>