<?xml version="1.0" encoding="UTF-8"?>
<svg xmlns="http://www.w3.org/2000/svg" xmlns:xlink="http://www.w3.org/1999/xlink"
     width="1128.1906642222536" height="1504.2542189630049" viewBox="0 0 300 400">
<defs>
</defs>
<path d="M8.937099128634518,0 l5,0 M13.937099128634518,0 a17.28164838655804,10.0,0,0,1,0,20 M13.937099128634518,20 l-5,0 M13.937099128634518,0 l-5,0 M8.937099128634518,0 l-8.937099128634518,10.0 M0.0,10.0 l8.937099128634518,10.0 M15.437099128634518,0" stroke-width="0.1" stroke="black" fill="black" fill-opacity="0.0" />
<text x="8.937099128634518" y="14" font-size="4" fill="blue">MD</text>
<text x="8.937099128634518" y="19" font-size="4" fill="blue">0</text>
<rect x="10.437099128634518" y="0" width="2" height="9.5" stroke="black" stroke-width="0.1" fill-opacity="0" />
<path d="M40.40517604181417,0 l5,0 M45.40517604181417,0 a14.871493121828971,10.0,0,0,1,0,20 M45.40517604181417,20 l-5,0 M45.40517604181417,0 l-5,0 M40.40517604181417,0 l-9.186428526621615,10.0 M31.21874751519256,10.0 l9.186428526621615,10.0 M46.90517604181417,0" stroke-width="0.1" stroke="black" fill="black" fill-opacity="0.0" />
<text x="40.40517604181417" y="14" font-size="4" fill="blue">MD</text>
<text x="40.40517604181417" y="19" font-size="4" fill="blue">1</text>
<rect x="41.90517604181417" y="0" width="2" height="9.5" stroke="black" stroke-width="0.1" fill-opacity="0" />
<path d="M69.77728382337867,0 l5,0 M74.77728382337867,0 a13.742127632812156,10.0,0,0,1,0,20 M74.77728382337867,20 l-5,0 M74.77728382337867,0 l-5,0 M69.77728382337867,0 l-9.500614659735522,10.0 M60.27666916364315,10.0 l9.500614659735522,10.0 M76.27728382337867,0" stroke-width="0.1" stroke="black" fill="black" fill-opacity="0.0" />
<text x="69.77728382337867" y="14" font-size="4" fill="blue">MD</text>
<text x="69.77728382337867" y="19" font-size="4" fill="blue">2</text>
<rect x="71.27728382337867" y="0" width="2" height="9.5" stroke="black" stroke-width="0.1" fill-opacity="0" />
<path d="M99.11853820772872,0 l5,0 M104.11853820772872,0 a13.933285564563855,10.0,0,0,1,0,20 M104.11853820772872,20 l-5,0 M104.11853820772872,0 l-5,0 M99.11853820772872,0 l-10.599126751537899,10.0 M88.51941145619082,10.0 l10.599126751537899,10.0 M105.61853820772872,0" stroke-width="0.1" stroke="black" fill="black" fill-opacity="0.0" />
<text x="99.11853820772872" y="14" font-size="4" fill="blue">MD</text>
<text x="99.11853820772872" y="19" font-size="4" fill="blue">3</text>
<rect x="100.61853820772872" y="0" width="2" height="9.5" stroke="black" stroke-width="0.1" fill-opacity="0" />
<path d="M128.38665730004774,0 l5,0 M133.38665730004774,0 a13.807365140819886,10.0,0,0,1,0,20 M133.38665730004774,20 l-5,0 M133.38665730004774,0 l-5,0 M128.38665730004774,0 l-10.334833527755173,10.0 M118.05182377229258,10.0 l10.334833527755173,10.0 M134.88665730004774,0" stroke-width="0.1" stroke="black" fill="black" fill-opacity="0.0" />
<text x="128.38665730004774" y="14" font-size="4" fill="blue">MD</text>
<text x="128.38665730004774" y="19" font-size="4" fill="blue">4</text>
<rect x="129.88665730004774" y="0" width="2" height="9.5" stroke="black" stroke-width="0.1" fill-opacity="0" />
<path d="M157.9144460217963,0 l5,0 M162.9144460217963,0 a12.25172186996214,10.0,0,0,1,0,20 M162.9144460217963,20 l-5,0 M162.9144460217963,0 l-5,0 M157.9144460217963,0 l-10.72042358092867,10.0 M147.19402244086763,10.0 l10.72042358092867,10.0 M164.4144460217963,0" stroke-width="0.1" stroke="black" fill="black" fill-opacity="0.0" />
<text x="157.9144460217963" y="14" font-size="4" fill="blue">MD</text>
<text x="157.9144460217963" y="19" font-size="4" fill="blue">5</text>
<rect x="159.4144460217963" y="0" width="2" height="9.5" stroke="black" stroke-width="0.1" fill-opacity="0" />
<path d="M185.48170413163157,0 l5,0 M190.48170413163157,0 a14.892980042149759,10.0,0,0,1,0,20 M190.48170413163157,20 l-5,0 M190.48170413163157,0 l-5,0 M185.48170413163157,0 l-10.315536239873124,10.0 M175.16616789175845,10.0 l10.315536239873124,10.0 M191.98170413163157,0" stroke-width="0.1" stroke="black" fill="black" fill-opacity="0.0" />
<text x="185.48170413163157" y="14" font-size="4" fill="blue">MD</text>
<text x="185.48170413163157" y="19" font-size="4" fill="blue">6</text>
<rect x="186.98170413163157" y="0" width="2" height="9.5" stroke="black" stroke-width="0.1" fill-opacity="0" />
<path d="M215.73707171037347,0 l5,0 M220.73707171037347,0 a15.226816338035487,10.0,0,0,1,0,20 M220.73707171037347,20 l-5,0 M220.73707171037347,0 l-5,0 M215.73707171037347,0 l-10.362387536592125,10.0 M205.37468417378133,10.0 l10.362387536592125,10.0 M222.23707171037347,0" stroke-width="0.1" stroke="black" fill="black" fill-opacity="0.0" />
<text x="215.73707171037347" y="14" font-size="4" fill="blue">MD</text>
<text x="215.73707171037347" y="19" font-size="4" fill="blue">7</text>
<rect x="217.23707171037347" y="0" width="2" height="9.5" stroke="black" stroke-width="0.1" fill-opacity="0" />
<path d="M245.91207229441326,0 l5,0 M250.91207229441326,0 a12.585558165847868,10.0,0,0,1,0,20 M250.91207229441326,20 l-5,0 M250.91207229441326,0 l-5,0 M245.91207229441326,0 l-9.948184246004338,10.0 M235.96388804840893,10.0 l9.948184246004338,10.0 M252.41207229441326,0" stroke-width="0.1" stroke="black" fill="black" fill-opacity="0.0" />
<text x="245.91207229441326" y="14" font-size="4" fill="blue">MD</text>
<text x="245.91207229441326" y="19" font-size="4" fill="blue">8</text>
<rect x="247.41207229441326" y="0" width="2" height="9.5" stroke="black" stroke-width="0.1" fill-opacity="0" />
<path d="M273.6369391452344,0 l5,0 M278.6369391452344,0 a12.585558165847868,10.0,0,0,1,0,20 M278.6369391452344,20 l-5,0 M278.6369391452344,0 l-5,0 M273.6369391452344,0 l-10.139308684973305,10.0 M263.4976304602611,10.0 l10.139308684973305,10.0 M280.1369391452344,0" stroke-width="0.1" stroke="black" fill="black" fill-opacity="0.0" />
<text x="273.6369391452344" y="14" font-size="4" fill="blue">MD</text>
<text x="273.6369391452344" y="19" font-size="4" fill="blue">9</text>
<rect x="275.1369391452344" y="0" width="2" height="9.5" stroke="black" stroke-width="0.1" fill-opacity="0" />
<path d="M10.78498300045542,20 l5,0 M15.78498300045542,20 a12.585558165847868,10.0,0,0,1,0,20 M15.78498300045542,40 l-5,0 M15.78498300045542,20 l-5,0 M10.78498300045542,20 l-10.78498300045542,10.0 M0.0,30.0 l10.78498300045542,10.0 M17.28498300045542,20" stroke-width="0.1" stroke="black" fill="black" fill-opacity="0.0" />
<text x="10.78498300045542" y="34" font-size="4" fill="blue">MD</text>
<text x="10.78498300045542" y="39" font-size="4" fill="blue">10</text>
<rect x="12.28498300045542" y="20" width="2" height="9.5" stroke="black" stroke-width="0.1" fill-opacity="0" />
<path d="M36.36876188888508,20 l5,0 M41.36876188888508,20 a12.585558165847868,10.0,0,0,1,0,20 M41.36876188888508,40 l-5,0 M41.36876188888508,20 l-5,0 M36.36876188888508,20 l-7.998220722581797,10.0 M28.370541166303283,30.0 l7.998220722581797,10.0 M42.86876188888508,20" stroke-width="0.1" stroke="black" fill="black" fill-opacity="0.0" />
<text x="36.36876188888508" y="34" font-size="4" fill="blue">MD</text>
<text x="36.36876188888508" y="39" font-size="4" fill="blue">11</text>
<rect x="37.86876188888508" y="20" width="2" height="9.5" stroke="black" stroke-width="0.1" fill-opacity="0" />
<path d="M61.86719045055777,20 l5,0 M66.86719045055777,20 a17.86807451022311,10.0,0,0,1,0,20 M66.86719045055777,40 l-5,0 M66.86719045055777,20 l-5,0 M61.86719045055777,20 l-7.912870395824827,10.0 M53.954320054732946,30.0 l7.912870395824827,10.0 M68.36719045055777,20" stroke-width="0.1" stroke="black" fill="black" fill-opacity="0.0" />
<text x="61.86719045055777" y="34" font-size="4" fill="blue">MD</text>
<text x="61.86719045055777" y="39" font-size="4" fill="blue">12</text>
<rect x="63.36719045055777" y="20" width="2" height="9.5" stroke="black" stroke-width="0.1" fill-opacity="0" />
<path d="M95.34495743391047,20 l5,0 M100.34495743391047,20 a12.585558165847868,10.0,0,0,1,0,20 M100.34495743391047,40 l-5,0 M100.34495743391047,20 l-5,0 M95.34495743391047,20 l-10.609692473129579,10.0 M84.73526496078088,30.0 l10.609692473129579,10.0 M101.84495743391047,20" stroke-width="0.1" stroke="black" fill="black" fill-opacity="0.0" />
<text x="95.34495743391047" y="34" font-size="4" fill="blue">MD</text>
<text x="95.34495743391047" y="39" font-size="4" fill="blue">13</text>
<rect x="96.84495743391047" y="20" width="2" height="9.5" stroke="black" stroke-width="0.1" fill-opacity="0" />
<path d="M123.54020807288794,20 l5,0 M128.54020807288794,20 a17.86807451022311,10.0,0,0,1,0,20 M128.54020807288794,40 l-5,0 M128.54020807288794,20 l-5,0 M123.54020807288794,20 l-10.609692473129579,10.0 M112.93051559975835,30.0 l10.609692473129579,10.0 M130.04020807288794,20" stroke-width="0.1" stroke="black" fill="black" fill-opacity="0.0" />
<text x="123.54020807288794" y="34" font-size="4" fill="blue">MD</text>
<text x="123.54020807288794" y="39" font-size="4" fill="blue">14</text>
<rect x="125.04020807288794" y="20" width="2" height="9.5" stroke="black" stroke-width="0.1" fill-opacity="0" />
<path d="M151.6243309016311,20 l5,0 M156.6243309016311,20 a12.585558165847868,10.0,0,0,1,0,20 M156.6243309016311,40 l-5,0 M156.6243309016311,20 l-5,0 M151.6243309016311,20 l-5.216048318520075,10.0 M146.40828258311103,30.0 l5.216048318520075,10.0 M158.1243309016311,20" stroke-width="0.1" stroke="black" fill="black" fill-opacity="0.0" />
<text x="151.6243309016311" y="34" font-size="4" fill="blue">MD</text>
<text x="151.6243309016311" y="39" font-size="4" fill="blue">15</text>
<rect x="153.1243309016311" y="20" width="2" height="9.5" stroke="black" stroke-width="0.1" fill-opacity="0" />
<path d="M179.81958154060854,20 l5,0 M184.81958154060854,20 a17.86807451022311,10.0,0,0,1,0,20 M184.81958154060854,40 l-5,0 M184.81958154060854,20 l-5,0 M179.81958154060854,20 l-10.609692473129579,10.0 M169.20988906747897,30.0 l10.609692473129579,10.0 M186.31958154060854,20" stroke-width="0.1" stroke="black" fill="black" fill-opacity="0.0" />
<text x="179.81958154060854" y="34" font-size="4" fill="blue">MD</text>
<text x="179.81958154060854" y="39" font-size="4" fill="blue">16</text>
<rect x="181.31958154060854" y="20" width="2" height="9.5" stroke="black" stroke-width="0.1" fill-opacity="0" />
<path d="M207.90370436935174,20 l5,0 M212.90370436935174,20 a17.86807451022311,10.0,0,0,1,0,20 M212.90370436935174,40 l-5,0 M212.90370436935174,20 l-5,0 M207.90370436935174,20 l-5.216048318520075,10.0 M202.68765605083166,30.0 l5.216048318520075,10.0 M214.40370436935174,20" stroke-width="0.1" stroke="black" fill="black" fill-opacity="0.0" />
<text x="207.90370436935174" y="34" font-size="4" fill="blue">MD</text>
<text x="207.90370436935174" y="39" font-size="4" fill="blue">17</text>
<rect x="209.40370436935174" y="20" width="2" height="9.5" stroke="black" stroke-width="0.1" fill-opacity="0" />
<path d="M241.3814713527044,20 l5,0 M246.3814713527044,20 a17.86807451022311,10.0,0,0,1,0,20 M246.3814713527044,40 l-5,0 M246.3814713527044,20 l-5,0 M241.3814713527044,20 l-10.609692473129579,10.0 M230.77177887957484,30.0 l10.609692473129579,10.0 M247.8814713527044,20" stroke-width="0.1" stroke="black" fill="black" fill-opacity="0.0" />
<text x="241.3814713527044" y="34" font-size="4" fill="blue">MD</text>
<text x="241.3814713527044" y="39" font-size="4" fill="blue">18</text>
<rect x="242.8814713527044" y="20" width="2" height="9.5" stroke="black" stroke-width="0.1" fill-opacity="0" />
<path d="M269.46559418144756,20 l5,0 M274.46559418144756,20 a12.585558165847868,10.0,0,0,1,0,20 M274.46559418144756,40 l-5,0 M274.46559418144756,20 l-5,0 M269.46559418144756,20 l-5.216048318520075,10.0 M264.2495458629275,30.0 l5.216048318520075,10.0 M275.96559418144756,20" stroke-width="0.1" stroke="black" fill="black" fill-opacity="0.0" />
<text x="269.46559418144756" y="34" font-size="4" fill="blue">MD</text>
<text x="269.46559418144756" y="39" font-size="4" fill="blue">19</text>
<rect x="270.96559418144756" y="20" width="2" height="9.5" stroke="black" stroke-width="0.1" fill-opacity="0" />
<path d="M10.609692473129579,40 l5,0 M15.609692473129579,40 a17.86807451022311,10.0,0,0,1,0,20 M15.609692473129579,60 l-5,0 M15.609692473129579,40 l-5,0 M10.609692473129579,40 l-10.609692473129579,10.0 M0.0,50.0 l10.609692473129579,10.0 M17.109692473129577,40" stroke-width="0.1" stroke="black" fill="black" fill-opacity="0.0" />
<text x="10.609692473129579" y="54" font-size="4" fill="blue">MD</text>
<text x="10.609692473129579" y="59" font-size="4" fill="blue">20</text>
<rect x="12.109692473129579" y="40" width="2" height="9.5" stroke="black" stroke-width="0.1" fill-opacity="0" />
<path d="M38.69381530187276,40 l5,0 M43.69381530187276,40 a17.86807451022311,10.0,0,0,1,0,20 M43.69381530187276,60 l-5,0 M43.69381530187276,40 l-5,0 M38.69381530187276,40 l-5.216048318520075,10.0 M33.47776698335269,50.0 l5.216048318520075,10.0 M45.19381530187276,40" stroke-width="0.1" stroke="black" fill="black" fill-opacity="0.0" />
<text x="38.69381530187276" y="54" font-size="4" fill="blue">MD</text>
<text x="38.69381530187276" y="59" font-size="4" fill="blue">21</text>
<rect x="40.19381530187276" y="40" width="2" height="9.5" stroke="black" stroke-width="0.1" fill-opacity="0" />
<path d="M72.17158228522545,40 l5,0 M77.17158228522545,40 a12.585558165847868,10.0,0,0,1,0,20 M77.17158228522545,60 l-5,0 M77.17158228522545,40 l-5,0 M72.17158228522545,40 l-10.609692473129579,10.0 M61.56188981209587,50.0 l10.609692473129579,10.0 M78.67158228522545,40" stroke-width="0.1" stroke="black" fill="black" fill-opacity="0.0" />
<text x="72.17158228522545" y="54" font-size="4" fill="blue">MD</text>
<text x="72.17158228522545" y="59" font-size="4" fill="blue">22</text>
<rect x="73.67158228522545" y="40" width="2" height="9.5" stroke="black" stroke-width="0.1" fill-opacity="0" />
<path d="M100.36683292420291,40 l5,0 M105.36683292420291,40 a12.585558165847868,10.0,0,0,1,0,20 M105.36683292420291,60 l-5,0 M105.36683292420291,40 l-5,0 M100.36683292420291,40 l-10.609692473129579,10.0 M89.75714045107333,50.0 l10.609692473129579,10.0 M106.86683292420291,40" stroke-width="0.1" stroke="black" fill="black" fill-opacity="0.0" />
<text x="100.36683292420291" y="54" font-size="4" fill="blue">MD</text>
<text x="100.36683292420291" y="59" font-size="4" fill="blue">23</text>
<rect x="101.86683292420291" y="40" width="2" height="9.5" stroke="black" stroke-width="0.1" fill-opacity="0" />
</svg>