<?xml version="1.0" encoding="UTF-8"?>
<svg xmlns="http://www.w3.org/2000/svg" xmlns:xlink="http://www.w3.org/1999/xlink"
     width="1128.1906642222536" height="1504.2542189630049" viewBox="0 0 300 400">
<defs>
</defs>
<path d="M10.604600554345513,0 l5,0 M15.604600554345513,0 a14.66642079938601,10.0,0,0,1,0,20 M15.604600554345513,20 l-5,0 M15.604600554345513,0 l-5,0 M10.604600554345513,0 l-10.604600554345513,10.0 M0.0,10.0 l10.604600554345513,10.0 M17.104600554345513,0" stroke-width="0.1" stroke="black" fill="black" fill-opacity="0.0" />
<text x="10.604600554345513" y="14" font-size="4" fill="blue">MI</text>
<text x="10.604600554345513" y="19" font-size="4" fill="blue">0</text>
<rect x="12.104600554345513" y="0" width="2" height="9.5" stroke="black" stroke-width="0.1" fill-opacity="0" />
<path d="M41.43066257139541,0 l5,0 M46.43066257139541,0 a13.813520948990437,10.0,0,0,1,0,20 M46.43066257139541,20 l-5,0 M46.43066257139541,0 l-5,0 M41.43066257139541,0 l-11.159641217663886,10.0 M30.271021353731527,10.0 l11.159641217663886,10.0 M47.93066257139541,0" stroke-width="0.1" stroke="black" fill="black" fill-opacity="0.0" />
<text x="41.43066257139541" y="14" font-size="4" fill="blue">MI</text>
<text x="41.43066257139541" y="19" font-size="4" fill="blue">1</text>
<rect x="42.93066257139541" y="0" width="2" height="9.5" stroke="black" stroke-width="0.1" fill-opacity="0" />
<path d="M71.79537733847405,0 l5,0 M76.79537733847405,0 a13.01202463219277,10.0,0,0,1,0,20 M76.79537733847405,20 l-5,0 M76.79537733847405,0 l-5,0 M71.79537733847405,0 l-11.551193818088212,10.0 M60.244183520385846,10.0 l11.551193818088212,10.0 M78.29537733847405,0" stroke-width="0.1" stroke="black" fill="black" fill-opacity="0.0" />
<text x="71.79537733847405" y="14" font-size="4" fill="blue">MI</text>
<text x="71.79537733847405" y="19" font-size="4" fill="blue">2</text>
<rect x="73.29537733847405" y="0" width="2" height="9.5" stroke="black" stroke-width="0.1" fill-opacity="0" />
<path d="M102.19853106387565,0 l5,0 M107.19853106387565,0 a12.267781618503182,10.0,0,0,1,0,20 M107.19853106387565,20 l-5,0 M107.19853106387565,0 l-5,0 M102.19853106387565,0 l-12.391129093208818,10.0 M89.80740197066683,10.0 l12.391129093208818,10.0 M108.69853106387565,0" stroke-width="0.1" stroke="black" fill="black" fill-opacity="0.0" />
<text x="102.19853106387565" y="14" font-size="4" fill="blue">MI</text>
<text x="102.19853106387565" y="19" font-size="4" fill="blue">3</text>
<rect x="103.69853106387565" y="0" width="2" height="9.5" stroke="black" stroke-width="0.1" fill-opacity="0" />
<path d="M131.78785741471938,0 l5,0 M136.78785741471938,0 a11.27233012520902,10.0,0,0,1,0,20 M136.78785741471938,20 l-5,0 M136.78785741471938,0 l-5,0 M131.78785741471938,0 l-12.321544732340563,10.0 M119.46631268237883,10.0 l12.321544732340563,10.0 M138.28785741471938,0" stroke-width="0.1" stroke="black" fill="black" fill-opacity="0.0" />
<text x="131.78785741471938" y="14" font-size="4" fill="blue">MI</text>
<text x="131.78785741471938" y="19" font-size="4" fill="blue">4</text>
<rect x="133.28785741471938" y="0" width="2" height="9.5" stroke="black" stroke-width="0.1" fill-opacity="0" />
<path d="M161.05235207241788,0 l5,0 M166.05235207241788,0 a10.772618281009692,10.0,0,0,1,0,20 M166.05235207241788,20 l-5,0 M166.05235207241788,0 l-5,0 M161.05235207241788,0 l-12.992164532489458,10.0 M148.06018753992842,10.0 l12.992164532489458,10.0 M167.55235207241788,0" stroke-width="0.1" stroke="black" fill="black" fill-opacity="0.0" />
<text x="161.05235207241788" y="14" font-size="4" fill="blue">MI</text>
<text x="161.05235207241788" y="19" font-size="4" fill="blue">5</text>
<rect x="162.55235207241788" y="0" width="2" height="9.5" stroke="black" stroke-width="0.1" fill-opacity="0" />
<path d="M189.45544525587644,0 l5,0 M194.45544525587644,0 a13.397495301105865,10.0,0,0,1,0,20 M194.45544525587644,20 l-5,0 M194.45544525587644,0 l-5,0 M189.45544525587644,0 l-12.630474902448872,10.0 M176.82497035342757,10.0 l12.630474902448872,10.0 M195.95544525587644,0" stroke-width="0.1" stroke="black" fill="black" fill-opacity="0.0" />
<text x="189.45544525587644" y="14" font-size="4" fill="blue">MI</text>
<text x="189.45544525587644" y="19" font-size="4" fill="blue">6</text>
<rect x="190.95544525587644" y="0" width="2" height="9.5" stroke="black" stroke-width="0.1" fill-opacity="0" />
<path d="M218.56509391119874,0 l5,0 M223.56509391119874,0 a15.672418749796803,10.0,0,0,1,0,20 M223.56509391119874,20 l-5,0 M223.56509391119874,0 l-5,0 M218.56509391119874,0 l-10.71215335421644,10.0 M207.8529405569823,10.0 l10.71215335421644,10.0 M225.06509391119874,0" stroke-width="0.1" stroke="black" fill="black" fill-opacity="0.0" />
<text x="218.56509391119874" y="14" font-size="4" fill="blue">MI</text>
<text x="218.56509391119874" y="19" font-size="4" fill="blue">7</text>
<rect x="220.06509391119874" y="0" width="2" height="9.5" stroke="black" stroke-width="0.1" fill-opacity="0" />
<path d="M248.60972858517576,0 l5,0 M253.60972858517576,0 a18.313676921984424,10.0,0,0,1,0,20 M253.60972858517576,20 l-5,0 M253.60972858517576,0 l-5,0 M248.60972858517576,0 l-9.37221592418022,10.0 M239.23751266099555,10.0 l9.37221592418022,10.0 M255.10972858517576,0" stroke-width="0.1" stroke="black" fill="black" fill-opacity="0.0" />
<text x="248.60972858517576" y="14" font-size="4" fill="blue">MI</text>
<text x="248.60972858517576" y="19" font-size="4" fill="blue">8</text>
<rect x="250.10972858517576" y="0" width="2" height="9.5" stroke="black" stroke-width="0.1" fill-opacity="0" />
<path d="M8.683669847648034,20 l5,0 M13.683669847648034,20 a18.313676921984424,10.0,0,0,1,0,20 M13.683669847648034,40 l-5,0 M13.683669847648034,20 l-5,0 M8.683669847648034,20 l-8.683669847648034,10.0 M0.0,30.0 l8.683669847648034,10.0 M15.183669847648034,20" stroke-width="0.1" stroke="black" fill="black" fill-opacity="0.0" />
<text x="8.683669847648034" y="34" font-size="4" fill="blue">MI</text>
<text x="8.683669847648034" y="39" font-size="4" fill="blue">9</text>
<rect x="10.183669847648034" y="20" width="2" height="9.5" stroke="black" stroke-width="0.1" fill-opacity="0" />
<path d="M41.41221854493662,20 l5,0 M46.41221854493662,20 a18.313676921984424,10.0,0,0,1,0,20 M46.41221854493662,40 l-5,0 M46.41221854493662,20 l-5,0 M41.41221854493662,20 l-9.414871775304162,10.0 M31.997346769632458,30.0 l9.414871775304162,10.0 M47.91221854493662,20" stroke-width="0.1" stroke="black" fill="black" fill-opacity="0.0" />
<text x="41.41221854493662" y="34" font-size="4" fill="blue">MI</text>
<text x="41.41221854493662" y="39" font-size="4" fill="blue">10</text>
<rect x="42.91221854493662" y="20" width="2" height="9.5" stroke="black" stroke-width="0.1" fill-opacity="0" />
<path d="M76.32336881550876,20 l5,0 M81.32336881550876,20 a13.031160577609183,10.0,0,0,1,0,20 M81.32336881550876,40 l-5,0 M81.32336881550876,20 l-5,0 M76.32336881550876,20 l-11.597473348587707,10.0 M64.72589546692105,30.0 l11.597473348587707,10.0 M82.82336881550876,20" stroke-width="0.1" stroke="black" fill="black" fill-opacity="0.0" />
<text x="76.32336881550876" y="34" font-size="4" fill="blue">MI</text>
<text x="76.32336881550876" y="39" font-size="4" fill="blue">11</text>
<rect x="77.82336881550876" y="20" width="2" height="9.5" stroke="black" stroke-width="0.1" fill-opacity="0" />
<path d="M104.71171630218433,20 l5,0 M109.71171630218433,20 a18.313676921984424,10.0,0,0,1,0,20 M109.71171630218433,40 l-5,0 M109.71171630218433,20 l-5,0 M104.71171630218433,20 l-10.357186909066392,10.0 M94.35452939311793,30.0 l10.357186909066392,10.0 M111.21171630218433,20" stroke-width="0.1" stroke="black" fill="black" fill-opacity="0.0" />
<text x="104.71171630218433" y="34" font-size="4" fill="blue">MI</text>
<text x="104.71171630218433" y="39" font-size="4" fill="blue">12</text>
<rect x="106.21171630218433" y="20" width="2" height="9.5" stroke="black" stroke-width="0.1" fill-opacity="0" />
<path d="M141.07940221053988,20 l5,0 M146.07940221053988,20 a13.031160577609183,10.0,0,0,1,0,20 M146.07940221053988,40 l-5,0 M146.07940221053988,20 l-5,0 M141.07940221053988,20 l-13.054008986371144,10.0 M128.02539322416874,30.0 l13.054008986371144,10.0 M147.57940221053988,20" stroke-width="0.1" stroke="black" fill="black" fill-opacity="0.0" />
<text x="141.07940221053988" y="34" font-size="4" fill="blue">MI</text>
<text x="141.07940221053988" y="39" font-size="4" fill="blue">13</text>
<rect x="142.57940221053988" y="20" width="2" height="9.5" stroke="black" stroke-width="0.1" fill-opacity="0" />
<path d="M172.16457177452023,20 l5,0 M177.16457177452023,20 a13.031160577609183,10.0,0,0,1,0,20 M177.16457177452023,40 l-5,0 M177.16457177452023,20 l-5,0 M172.16457177452023,20 l-13.054008986371144,10.0 M159.11056278814908,30.0 l13.054008986371144,10.0 M178.66457177452023,20" stroke-width="0.1" stroke="black" fill="black" fill-opacity="0.0" />
<text x="172.16457177452023" y="34" font-size="4" fill="blue">MI</text>
<text x="172.16457177452023" y="39" font-size="4" fill="blue">14</text>
<rect x="173.66457177452023" y="20" width="2" height="9.5" stroke="black" stroke-width="0.1" fill-opacity="0" />
<path d="M197.85609718389108,20 l5,0 M202.85609718389108,20 a18.313676921984424,10.0,0,0,1,0,20 M202.85609718389108,40 l-5,0 M202.85609718389108,20 l-5,0 M197.85609718389108,20 l-7.660364831761641,10.0 M190.19573235212943,30.0 l7.660364831761641,10.0 M204.35609718389108,20" stroke-width="0.1" stroke="black" fill="black" fill-opacity="0.0" />
<text x="197.85609718389108" y="34" font-size="4" fill="blue">MI</text>
<text x="197.85609718389108" y="39" font-size="4" fill="blue">15</text>
<rect x="199.35609718389108" y="20" width="2" height="9.5" stroke="black" stroke-width="0.1" fill-opacity="0" />
<path d="M234.22378309224663,20 l5,0 M239.22378309224663,20 a13.031160577609183,10.0,0,0,1,0,20 M239.22378309224663,40 l-5,0 M239.22378309224663,20 l-5,0 M234.22378309224663,20 l-13.054008986371144,10.0 M221.1697741058755,30.0 l13.054008986371144,10.0 M240.72378309224663,20" stroke-width="0.1" stroke="black" fill="black" fill-opacity="0.0" />
<text x="234.22378309224663" y="34" font-size="4" fill="blue">MI</text>
<text x="234.22378309224663" y="39" font-size="4" fill="blue">16</text>
<rect x="235.72378309224663" y="20" width="2" height="9.5" stroke="black" stroke-width="0.1" fill-opacity="0" />
<path d="M265.308952656227,20 l5,0 M270.308952656227,20 a18.313676921984424,10.0,0,0,1,0,20 M270.308952656227,40 l-5,0 M270.308952656227,20 l-5,0 M265.308952656227,20 l-13.054008986371144,10.0 M252.25494366985583,30.0 l13.054008986371144,10.0 M271.808952656227,20" stroke-width="0.1" stroke="black" fill="black" fill-opacity="0.0" />
<text x="265.308952656227" y="34" font-size="4" fill="blue">MI</text>
<text x="265.308952656227" y="39" font-size="4" fill="blue">17</text>
<rect x="266.808952656227" y="20" width="2" height="9.5" stroke="black" stroke-width="0.1" fill-opacity="0" />
<path d="M13.054008986371144,40 l5,0 M18.054008986371144,40 a18.313676921984424,10.0,0,0,1,0,20 M18.054008986371144,60 l-5,0 M18.054008986371144,40 l-5,0 M13.054008986371144,40 l-13.054008986371144,10.0 M0.0,50.0 l13.054008986371144,10.0 M19.554008986371144,40" stroke-width="0.1" stroke="black" fill="black" fill-opacity="0.0" />
<text x="13.054008986371144" y="54" font-size="4" fill="blue">MI</text>
<text x="13.054008986371144" y="59" font-size="4" fill="blue">18</text>
<rect x="14.554008986371144" y="40" width="2" height="9.5" stroke="black" stroke-width="0.1" fill-opacity="0" />
<path d="M49.42169489472671,40 l5,0 M54.42169489472671,40 a13.031160577609183,10.0,0,0,1,0,20 M54.42169489472671,60 l-5,0 M54.42169489472671,40 l-5,0 M49.42169489472671,40 l-13.054008986371144,10.0 M36.36768590835557,50.0 l13.054008986371144,10.0 M55.92169489472671,40" stroke-width="0.1" stroke="black" fill="black" fill-opacity="0.0" />
<text x="49.42169489472671" y="54" font-size="4" fill="blue">MI</text>
<text x="49.42169489472671" y="59" font-size="4" fill="blue">19</text>
<rect x="50.92169489472671" y="40" width="2" height="9.5" stroke="black" stroke-width="0.1" fill-opacity="0" />
<path d="M80.50686445870704,40 l5,0 M85.50686445870704,40 a13.031160577609183,10.0,0,0,1,0,20 M85.50686445870704,60 l-5,0 M85.50686445870704,40 l-5,0 M80.50686445870704,40 l-13.054008986371144,10.0 M67.4528554723359,50.0 l13.054008986371144,10.0 M87.00686445870704,40" stroke-width="0.1" stroke="black" fill="black" fill-opacity="0.0" />
<text x="80.50686445870704" y="54" font-size="4" fill="blue">MI</text>
<text x="80.50686445870704" y="59" font-size="4" fill="blue">20</text>
<rect x="82.00686445870704" y="40" width="2" height="9.5" stroke="black" stroke-width="0.1" fill-opacity="0" />
<path d="M111.59203402268737,40 l5,0 M116.59203402268737,40 a18.313676921984424,10.0,0,0,1,0,20 M116.59203402268737,60 l-5,0 M116.59203402268737,40 l-5,0 M111.59203402268737,40 l-13.054008986371144,10.0 M98.53802503631623,50.0 l13.054008986371144,10.0 M118.09203402268737,40" stroke-width="0.1" stroke="black" fill="black" fill-opacity="0.0" />
<text x="111.59203402268737" y="54" font-size="4" fill="blue">MI</text>
<text x="111.59203402268737" y="59" font-size="4" fill="blue">21</text>
<rect x="113.09203402268737" y="40" width="2" height="9.5" stroke="black" stroke-width="0.1" fill-opacity="0" />
<path d="M147.95971993104294,40 l5,0 M152.95971993104294,40 a13.031160577609183,10.0,0,0,1,0,20 M152.95971993104294,60 l-5,0 M152.95971993104294,40 l-5,0 M147.95971993104294,40 l-13.054008986371144,10.0 M134.9057109446718,50.0 l13.054008986371144,10.0 M154.45971993104294,40" stroke-width="0.1" stroke="black" fill="black" fill-opacity="0.0" />
<text x="147.95971993104294" y="54" font-size="4" fill="blue">MI</text>
<text x="147.95971993104294" y="59" font-size="4" fill="blue">22</text>
<rect x="149.45971993104294" y="40" width="2" height="9.5" stroke="black" stroke-width="0.1" fill-opacity="0" />
<path d="M173.6512453404138,40 l5,0 M178.6512453404138,40 a18.313676921984424,10.0,0,0,1,0,20 M178.6512453404138,60 l-5,0 M178.6512453404138,40 l-5,0 M173.6512453404138,40 l-7.660364831761641,10.0 M165.99088050865214,50.0 l7.660364831761641,10.0 M180.1512453404138,40" stroke-width="0.1" stroke="black" fill="black" fill-opacity="0.0" />
<text x="173.6512453404138" y="54" font-size="4" fill="blue">MI</text>
<text x="173.6512453404138" y="59" font-size="4" fill="blue">23</text>
<rect x="175.1512453404138" y="40" width="2" height="9.5" stroke="black" stroke-width="0.1" fill-opacity="0" />
</svg>