<?xml version="1.0" encoding="UTF-8"?>
<svg xmlns="http://www.w3.org/2000/svg" xmlns:xlink="http://www.w3.org/1999/xlink"
     width="1128.1906642222536" height="1504.2542189630049" viewBox="0 0 300 400">
<defs>
</defs>
<path d="M13.132534070577233,0 l5,0 M18.132534070577233,0 a11.315545690774826,10.0,0,0,1,0,20 M18.132534070577233,20 l-5,0 M18.132534070577233,0 l-5,0 M13.132534070577233,0 l-13.132534070577233,10.0 M0.0,10.0 l13.132534070577233,10.0 M19.632534070577233,0" stroke-width="0.1" stroke="black" fill="black" fill-opacity="0.0" />
<text x="13.132534070577233" y="14" font-size="4" fill="blue">P</text>
<text x="13.132534070577233" y="19" font-size="4" fill="blue">0</text>
<rect x="14.632534070577233" y="0" width="2" height="9.5" stroke="black" stroke-width="0.1" fill-opacity="0" />
<path d="M42.689430192735294,0 l5,0 M47.689430192735294,0 a9.558393009346853,10.0,0,0,1,0,20 M47.689430192735294,20 l-5,0 M47.689430192735294,0 l-5,0 M42.689430192735294,0 l-13.241350431383234,10.0 M29.448079761352062,10.0 l13.241350431383234,10.0 M49.189430192735294,0" stroke-width="0.1" stroke="black" fill="black" fill-opacity="0.0" />
<text x="42.689430192735294" y="14" font-size="4" fill="blue">P</text>
<text x="42.689430192735294" y="19" font-size="4" fill="blue">1</text>
<rect x="44.189430192735294" y="0" width="2" height="9.5" stroke="black" stroke-width="0.1" fill-opacity="0" />
<path d="M71.88887560853472,0 l5,0 M76.88887560853472,0 a8.523788899018598,10.0,0,0,1,0,20 M76.88887560853472,20 l-5,0 M76.88887560853472,0 l-5,0 M71.88887560853472,0 l-14.641052406452568,10.0 M57.24782320208215,10.0 l14.641052406452568,10.0 M78.38887560853472,0" stroke-width="0.1" stroke="black" fill="black" fill-opacity="0.0" />
<text x="71.88887560853472" y="14" font-size="4" fill="blue">P</text>
<text x="71.88887560853472" y="19" font-size="4" fill="blue">2</text>
<rect x="73.38887560853472" y="0" width="2" height="9.5" stroke="black" stroke-width="0.1" fill-opacity="0" />
<path d="M100.93007521759242,0 l5,0 M105.93007521759242,0 a7.22210119248757,10.0,0,0,1,0,20 M105.93007521759242,20 l-5,0 M105.93007521759242,0 l-5,0 M100.93007521759242,0 l-15.517410710039108,10.0 M85.4126645075533,10.0 l15.517410710039108,10.0 M107.43007521759242,0" stroke-width="0.1" stroke="black" fill="black" fill-opacity="0.0" />
<text x="100.93007521759242" y="14" font-size="4" fill="blue">P</text>
<text x="100.93007521759242" y="19" font-size="4" fill="blue">3</text>
<rect x="102.43007521759242" y="0" width="2" height="9.5" stroke="black" stroke-width="0.1" fill-opacity="0" />
<path d="M128.62933626211094,0 l5,0 M133.62933626211094,0 a6.797478687300842,10.0,0,0,1,0,20 M133.62933626211094,20 l-5,0 M133.62933626211094,0 l-5,0 M128.62933626211094,0 l-15.477159852030965,10.0 M113.15217641007997,10.0 l15.477159852030965,10.0 M135.12933626211094,0" stroke-width="0.1" stroke="black" fill="black" fill-opacity="0.0" />
<text x="128.62933626211094" y="14" font-size="4" fill="blue">P</text>
<text x="128.62933626211094" y="19" font-size="4" fill="blue">4</text>
<rect x="130.12933626211094" y="0" width="2" height="9.5" stroke="black" stroke-width="0.1" fill-opacity="0" />
<path d="M157.17671164352652,0 l5,0 M162.17671164352652,0 a8.090335327832207,10.0,0,0,1,0,20 M162.17671164352652,20 l-5,0 M162.17671164352652,0 l-5,0 M157.17671164352652,0 l-16.749896694114707,10.0 M140.4268149494118,10.0 l16.749896694114707,10.0 M163.67671164352652,0" stroke-width="0.1" stroke="black" fill="black" fill-opacity="0.0" />
<text x="157.17671164352652" y="14" font-size="4" fill="blue">P</text>
<text x="157.17671164352652" y="19" font-size="4" fill="blue">5</text>
<rect x="158.67671164352652" y="0" width="2" height="9.5" stroke="black" stroke-width="0.1" fill-opacity="0" />
<path d="M187.3456939882477,0 l5,0 M192.3456939882477,0 a10.240625333567884,10.0,0,0,1,0,20 M192.3456939882477,20 l-5,0 M192.3456939882477,0 l-5,0 M187.3456939882477,0 l-17.078647016888976,10.0 M170.26704697135872,10.0 l17.078647016888976,10.0 M193.8456939882477,0" stroke-width="0.1" stroke="black" fill="black" fill-opacity="0.0" />
<text x="187.3456939882477" y="14" font-size="4" fill="blue">P</text>
<text x="187.3456939882477" y="19" font-size="4" fill="blue">6</text>
<rect x="188.8456939882477" y="0" width="2" height="9.5" stroke="black" stroke-width="0.1" fill-opacity="0" />
<path d="M217.4955833508036,0 l5,0 M222.4955833508036,0 a14.517906569648108,10.0,0,0,1,0,20 M222.4955833508036,20 l-5,0 M222.4955833508036,0 l-5,0 M217.4955833508036,0 l-14.909264028988012,10.0 M202.58631932181558,10.0 l14.909264028988012,10.0 M223.9955833508036,0" stroke-width="0.1" stroke="black" fill="black" fill-opacity="0.0" />
<text x="217.4955833508036" y="14" font-size="4" fill="blue">P</text>
<text x="217.4955833508036" y="19" font-size="4" fill="blue">7</text>
<rect x="218.9955833508036" y="0" width="2" height="9.5" stroke="black" stroke-width="0.1" fill-opacity="0" />
<path d="M250.06366845040253,0 l5,0 M255.06366845040253,0 a11.876648397460489,10.0,0,0,1,0,20 M255.06366845040253,20 l-5,0 M255.06366845040253,0 l-5,0 M250.06366845040253,0 l-13.05017852995082,10.0 M237.01348992045172,10.0 l13.05017852995082,10.0 M256.56366845040253,0" stroke-width="0.1" stroke="black" fill="black" fill-opacity="0.0" />
<text x="250.06366845040253" y="14" font-size="4" fill="blue">P</text>
<text x="250.06366845040253" y="19" font-size="4" fill="blue">8</text>
<rect x="251.56366845040253" y="0" width="2" height="9.5" stroke="black" stroke-width="0.1" fill-opacity="0" />
<path d="M280.37241204381195,0 l5,0 M285.37241204381195,0 a11.876648397460489,10.0,0,0,1,0,20 M285.37241204381195,20 l-5,0 M285.37241204381195,0 l-5,0 M280.37241204381195,0 l-13.432095195948943,10.0 M266.940316847863,10.0 l13.432095195948943,10.0 M286.87241204381195,0" stroke-width="0.1" stroke="black" fill="black" fill-opacity="0.0" />
<text x="280.37241204381195" y="14" font-size="4" fill="blue">P</text>
<text x="280.37241204381195" y="19" font-size="4" fill="blue">9</text>
<rect x="281.87241204381195" y="0" width="2" height="9.5" stroke="black" stroke-width="0.1" fill-opacity="0" />
<path d="M14.830453496616382,20 l5,0 M19.830453496616382,20 a11.876648397460489,10.0,0,0,1,0,20 M19.830453496616382,40 l-5,0 M19.830453496616382,20 l-5,0 M14.830453496616382,20 l-14.830453496616382,10.0 M0.0,30.0 l14.830453496616382,10.0 M21.330453496616382,20" stroke-width="0.1" stroke="black" fill="black" fill-opacity="0.0" />
<text x="14.830453496616382" y="34" font-size="4" fill="blue">P</text>
<text x="14.830453496616382" y="39" font-size="4" fill="blue">10</text>
<rect x="16.330453496616382" y="20" width="2" height="9.5" stroke="black" stroke-width="0.1" fill-opacity="0" />
<path d="M42.50150846838452,20 l5,0 M47.50150846838452,20 a17.15916474183573,10.0,0,0,1,0,20 M47.50150846838452,40 l-5,0 M47.50150846838452,20 l-5,0 M42.50150846838452,20 l-10.79440657430765,10.0 M31.70710189407687,30.0 l10.79440657430765,10.0 M49.00150846838452,20" stroke-width="0.1" stroke="black" fill="black" fill-opacity="0.0" />
<text x="42.50150846838452" y="34" font-size="4" fill="blue">P</text>
<text x="42.50150846838452" y="39" font-size="4" fill="blue">11</text>
<rect x="44.00150846838452" y="20" width="2" height="9.5" stroke="black" stroke-width="0.1" fill-opacity="0" />
<path d="M82.9640245770899,20 l5,0 M87.9640245770899,20 a17.15916474183573,10.0,0,0,1,0,20 M87.9640245770899,40 l-5,0 M87.9640245770899,20 l-5,0 M82.9640245770899,20 l-18.303351366869652,10.0 M64.66067321022025,30.0 l18.303351366869652,10.0 M89.4640245770899,20" stroke-width="0.1" stroke="black" fill="black" fill-opacity="0.0" />
<text x="82.9640245770899" y="34" font-size="4" fill="blue">P</text>
<text x="82.9640245770899" y="39" font-size="4" fill="blue">12</text>
<rect x="84.4640245770899" y="20" width="2" height="9.5" stroke="black" stroke-width="0.1" fill-opacity="0" />
<path d="M120.72971860849054,20 l5,0 M125.72971860849054,20 a17.15916474183573,10.0,0,0,1,0,20 M125.72971860849054,40 l-5,0 M125.72971860849054,20 l-5,0 M120.72971860849054,20 l-15.6065292895649,10.0 M105.12318931892564,30.0 l15.6065292895649,10.0 M127.22971860849054,20" stroke-width="0.1" stroke="black" fill="black" fill-opacity="0.0" />
<text x="120.72971860849054" y="34" font-size="4" fill="blue">P</text>
<text x="120.72971860849054" y="39" font-size="4" fill="blue">13</text>
<rect x="122.22971860849054" y="20" width="2" height="9.5" stroke="black" stroke-width="0.1" fill-opacity="0" />
<path d="M163.88905679450068,20 l5,0 M168.88905679450068,20 a11.876648397460489,10.0,0,0,1,0,20 M168.88905679450068,40 l-5,0 M168.88905679450068,20 l-5,0 M163.88905679450068,20 l-21.000173444174408,10.0 M142.88888335032627,30.0 l21.000173444174408,10.0 M170.38905679450068,20" stroke-width="0.1" stroke="black" fill="black" fill-opacity="0.0" />
<text x="163.88905679450068" y="34" font-size="4" fill="blue">P</text>
<text x="163.88905679450068" y="39" font-size="4" fill="blue">14</text>
<rect x="165.38905679450068" y="20" width="2" height="9.5" stroke="black" stroke-width="0.1" fill-opacity="0" />
<path d="M196.37223448152605,20 l5,0 M201.37223448152605,20 a11.876648397460489,10.0,0,0,1,0,20 M201.37223448152605,40 l-5,0 M201.37223448152605,20 l-5,0 M196.37223448152605,20 l-15.6065292895649,10.0 M180.76570519196116,30.0 l15.6065292895649,10.0 M202.87223448152605,20" stroke-width="0.1" stroke="black" fill="black" fill-opacity="0.0" />
<text x="196.37223448152605" y="34" font-size="4" fill="blue">P</text>
<text x="196.37223448152605" y="39" font-size="4" fill="blue">15</text>
<rect x="197.87223448152605" y="20" width="2" height="9.5" stroke="black" stroke-width="0.1" fill-opacity="0" />
<path d="M228.85541216855142,20 l5,0 M233.85541216855142,20 a17.15916474183573,10.0,0,0,1,0,20 M233.85541216855142,40 l-5,0 M233.85541216855142,20 l-5,0 M228.85541216855142,20 l-15.6065292895649,10.0 M213.24888287898654,30.0 l15.6065292895649,10.0 M235.35541216855142,20" stroke-width="0.1" stroke="black" fill="black" fill-opacity="0.0" />
<text x="228.85541216855142" y="34" font-size="4" fill="blue">P</text>
<text x="228.85541216855142" y="39" font-size="4" fill="blue">16</text>
<rect x="230.35541216855142" y="20" width="2" height="9.5" stroke="black" stroke-width="0.1" fill-opacity="0" />
<path d="M272.01475035456156,20 l5,0 M277.01475035456156,20 a11.876648397460489,10.0,0,0,1,0,20 M277.01475035456156,40 l-5,0 M277.01475035456156,20 l-5,0 M272.01475035456156,20 l-21.000173444174408,10.0 M251.01457691038718,30.0 l21.000173444174408,10.0 M278.51475035456156,20" stroke-width="0.1" stroke="black" fill="black" fill-opacity="0.0" />
<text x="272.01475035456156" y="34" font-size="4" fill="blue">P</text>
<text x="272.01475035456156" y="39" font-size="4" fill="blue">17</text>
<rect x="273.51475035456156" y="20" width="2" height="9.5" stroke="black" stroke-width="0.1" fill-opacity="0" />
<path d="M15.6065292895649,40 l5,0 M20.6065292895649,40 a17.15916474183573,10.0,0,0,1,0,20 M20.6065292895649,60 l-5,0 M20.6065292895649,40 l-5,0 M15.6065292895649,40 l-15.6065292895649,10.0 M0.0,50.0 l15.6065292895649,10.0 M22.1065292895649,40" stroke-width="0.1" stroke="black" fill="black" fill-opacity="0.0" />
<text x="15.6065292895649" y="54" font-size="4" fill="blue">P</text>
<text x="15.6065292895649" y="59" font-size="4" fill="blue">18</text>
<rect x="17.1065292895649" y="40" width="2" height="9.5" stroke="black" stroke-width="0.1" fill-opacity="0" />
<path d="M58.765867475575035,40 l5,0 M63.765867475575035,40 a17.15916474183573,10.0,0,0,1,0,20 M63.765867475575035,60 l-5,0 M63.765867475575035,40 l-5,0 M58.765867475575035,40 l-21.000173444174408,10.0 M37.76569403140063,50.0 l21.000173444174408,10.0 M65.26586747557504,40" stroke-width="0.1" stroke="black" fill="black" fill-opacity="0.0" />
<text x="58.765867475575035" y="54" font-size="4" fill="blue">P</text>
<text x="58.765867475575035" y="59" font-size="4" fill="blue">19</text>
<rect x="60.265867475575035" y="40" width="2" height="9.5" stroke="black" stroke-width="0.1" fill-opacity="0" />
<path d="M96.53156150697568,40 l5,0 M101.53156150697568,40 a17.15916474183573,10.0,0,0,1,0,20 M101.53156150697568,60 l-5,0 M101.53156150697568,40 l-5,0 M96.53156150697568,40 l-15.6065292895649,10.0 M80.92503221741077,50.0 l15.6065292895649,10.0 M103.03156150697568,40" stroke-width="0.1" stroke="black" fill="black" fill-opacity="0.0" />
<text x="96.53156150697568" y="54" font-size="4" fill="blue">P</text>
<text x="96.53156150697568" y="59" font-size="4" fill="blue">20</text>
<rect x="98.03156150697568" y="40" width="2" height="9.5" stroke="black" stroke-width="0.1" fill-opacity="0" />
<path d="M139.6908996929858,40 l5,0 M144.6908996929858,40 a17.15916474183573,10.0,0,0,1,0,20 M144.6908996929858,60 l-5,0 M144.6908996929858,40 l-5,0 M139.6908996929858,40 l-21.000173444174408,10.0 M118.69072624881139,50.0 l21.000173444174408,10.0 M146.1908996929858,40" stroke-width="0.1" stroke="black" fill="black" fill-opacity="0.0" />
<text x="139.6908996929858" y="54" font-size="4" fill="blue">P</text>
<text x="139.6908996929858" y="59" font-size="4" fill="blue">21</text>
<rect x="141.1908996929858" y="40" width="2" height="9.5" stroke="black" stroke-width="0.1" fill-opacity="0" />
<path d="M182.85023787899596,40 l5,0 M187.85023787899596,40 a11.876648397460489,10.0,0,0,1,0,20 M187.85023787899596,60 l-5,0 M187.85023787899596,40 l-5,0 M182.85023787899596,40 l-21.000173444174408,10.0 M161.85006443482155,50.0 l21.000173444174408,10.0 M189.35023787899596,40" stroke-width="0.1" stroke="black" fill="black" fill-opacity="0.0" />
<text x="182.85023787899596" y="54" font-size="4" fill="blue">P</text>
<text x="182.85023787899596" y="59" font-size="4" fill="blue">22</text>
<rect x="184.35023787899596" y="40" width="2" height="9.5" stroke="black" stroke-width="0.1" fill-opacity="0" />
<path d="M220.72705972063085,40 l5,0 M225.72705972063085,40 a11.876648397460489,10.0,0,0,1,0,20 M225.72705972063085,60 l-5,0 M225.72705972063085,40 l-5,0 M220.72705972063085,40 l-21.000173444174408,10.0 M199.72688627645644,50.0 l21.000173444174408,10.0 M227.22705972063085,40" stroke-width="0.1" stroke="black" fill="black" fill-opacity="0.0" />
<text x="220.72705972063085" y="54" font-size="4" fill="blue">P</text>
<text x="220.72705972063085" y="59" font-size="4" fill="blue">23</text>
<rect x="222.22705972063085" y="40" width="2" height="9.5" stroke="black" stroke-width="0.1" fill-opacity="0" />
</svg>