<?xml version="1.0" encoding="UTF-8"?>
<svg xmlns="http://www.w3.org/2000/svg" xmlns:xlink="http://www.w3.org/1999/xlink"
     width="1128.1906642222536" height="1504.2542189630049" viewBox="0 0 300 400">
<defs>
</defs>
<path d="M10.788866976902584,0 l5,0 M15.788866976902584,0 a14.354702717519475,10.0,0,0,1,0,20 M15.788866976902584,20 l-5,0 M15.788866976902584,0 l-5,0 M10.788866976902584,0 l-10.788866976902584,10.0 M0.0,10.0 l10.788866976902584,10.0 M17.288866976902582,0" stroke-width="0.1" stroke="black" fill="black" fill-opacity="0.0" />
<text x="10.788866976902584" y="14" font-size="4" fill="blue">TU</text>
<text x="10.788866976902584" y="19" font-size="4" fill="blue">0</text>
<rect x="12.288866976902584" y="0" width="2" height="9.5" stroke="black" stroke-width="0.1" fill-opacity="0" />
<path d="M41.84344992666168,0 l5,0 M46.84344992666168,0 a13.252728033962121,10.0,0,0,1,0,20 M46.84344992666168,20 l-5,0 M46.84344992666168,0 l-5,0 M41.84344992666168,0 l-11.69988023223962,10.0 M30.143569694422055,10.0 l11.69988023223962,10.0 M48.34344992666168,0" stroke-width="0.1" stroke="black" fill="black" fill-opacity="0.0" />
<text x="41.84344992666168" y="14" font-size="4" fill="blue">TU</text>
<text x="41.84344992666168" y="19" font-size="4" fill="blue">1</text>
<rect x="43.34344992666168" y="0" width="2" height="9.5" stroke="black" stroke-width="0.1" fill-opacity="0" />
<path d="M74.08762510021349,0 l5,0 M79.08762510021349,0 a13.238873758756903,10.0,0,0,1,0,20 M79.08762510021349,20 l-5,0 M79.08762510021349,0 l-5,0 M74.08762510021349,0 l-13.991447139589678,10.0 M60.096177960623805,10.0 l13.991447139589678,10.0 M80.58762510021349,0" stroke-width="0.1" stroke="black" fill="black" fill-opacity="0.0" />
<text x="74.08762510021349" y="14" font-size="4" fill="blue">TU</text>
<text x="74.08762510021349" y="19" font-size="4" fill="blue">2</text>
<rect x="75.58762510021349" y="0" width="2" height="9.5" stroke="black" stroke-width="0.1" fill-opacity="0" />
<path d="M107.28516800934953,0 l5,0 M112.28516800934953,0 a12.096164179033341,10.0,0,0,1,0,20 M112.28516800934953,20 l-5,0 M112.28516800934953,0 l-5,0 M107.28516800934953,0 l-14.958669150379148,10.0 M92.32649885897038,10.0 l14.958669150379148,10.0 M113.78516800934953,0" stroke-width="0.1" stroke="black" fill="black" fill-opacity="0.0" />
<text x="107.28516800934953" y="14" font-size="4" fill="blue">TU</text>
<text x="107.28516800934953" y="19" font-size="4" fill="blue">3</text>
<rect x="108.78516800934953" y="0" width="2" height="9.5" stroke="black" stroke-width="0.1" fill-opacity="0" />
<path d="M139.48909606674238,0 l5,0 M144.48909606674238,0 a11.886711356507075,10.0,0,0,1,0,20 M144.48909606674238,20 l-5,0 M144.48909606674238,0 l-5,0 M139.48909606674238,0 l-15.10776387835951,10.0 M124.38133218838286,10.0 l15.10776387835951,10.0 M145.98909606674238,0" stroke-width="0.1" stroke="black" fill="black" fill-opacity="0.0" />
<text x="139.48909606674238" y="14" font-size="4" fill="blue">TU</text>
<text x="139.48909606674238" y="19" font-size="4" fill="blue">4</text>
<rect x="140.98909606674238" y="0" width="2" height="9.5" stroke="black" stroke-width="0.1" fill-opacity="0" />
<path d="M171.46765442752297,0 l5,0 M176.46765442752297,0 a11.196995645829109,10.0,0,0,1,0,20 M176.46765442752297,20 l-5,0 M176.46765442752297,0 l-5,0 M171.46765442752297,0 l-15.091847004273525,10.0 M156.37580742324946,10.0 l15.091847004273525,10.0 M177.96765442752297,0" stroke-width="0.1" stroke="black" fill="black" fill-opacity="0.0" />
<text x="171.46765442752297" y="14" font-size="4" fill="blue">TU</text>
<text x="171.46765442752297" y="19" font-size="4" fill="blue">5</text>
<rect x="172.96765442752297" y="0" width="2" height="9.5" stroke="black" stroke-width="0.1" fill-opacity="0" />
<path d="M200.35027352086857,0 l5,0 M205.35027352086857,0 a11.06578696567859,10.0,0,0,1,0,20 M205.35027352086857,20 l-5,0 M205.35027352086857,0 l-5,0 M200.35027352086857,0 l-12.685623447516488,10.0 M187.66465007335208,10.0 l12.685623447516488,10.0 M206.85027352086857,0" stroke-width="0.1" stroke="black" fill="black" fill-opacity="0.0" />
<text x="200.35027352086857" y="14" font-size="4" fill="blue">TU</text>
<text x="200.35027352086857" y="19" font-size="4" fill="blue">6</text>
<rect x="201.85027352086857" y="0" width="2" height="9.5" stroke="black" stroke-width="0.1" fill-opacity="0" />
<path d="M229.67173186225475,0 l5,0 M234.67173186225475,0 a14.558284296041279,10.0,0,0,1,0,20 M234.67173186225475,20 l-5,0 M234.67173186225475,0 l-5,0 M229.67173186225475,0 l-13.255671375707568,10.0 M216.41606048654717,10.0 l13.255671375707568,10.0 M236.17173186225475,0" stroke-width="0.1" stroke="black" fill="black" fill-opacity="0.0" />
<text x="229.67173186225475" y="14" font-size="4" fill="blue">TU</text>
<text x="229.67173186225475" y="19" font-size="4" fill="blue">7</text>
<rect x="231.17173186225475" y="0" width="2" height="9.5" stroke="black" stroke-width="0.1" fill-opacity="0" />
<path d="M261.1617467676249,0 l5,0 M266.1617467676249,0 a11.91702612385366,10.0,0,0,1,0,20 M266.1617467676249,20 l-5,0 M266.1617467676249,0 l-5,0 M261.1617467676249,0 l-11.9317306093289,10.0 M249.230016158296,10.0 l11.9317306093289,10.0 M267.6617467676249,0" stroke-width="0.1" stroke="black" fill="black" fill-opacity="0.0" />
<text x="261.1617467676249" y="14" font-size="4" fill="blue">TU</text>
<text x="261.1617467676249" y="19" font-size="4" fill="blue">8</text>
<rect x="262.6617467676249" y="0" width="2" height="9.5" stroke="black" stroke-width="0.1" fill-opacity="0" />
<path d="M9.854387368682126,20 l5,0 M14.854387368682126,20 a11.91702612385366,10.0,0,0,1,0,20 M14.854387368682126,40 l-5,0 M14.854387368682126,20 l-5,0 M9.854387368682126,20 l-9.854387368682126,10.0 M0.0,30.0 l9.854387368682126,10.0 M16.354387368682126,20" stroke-width="0.1" stroke="black" fill="black" fill-opacity="0.0" />
<text x="9.854387368682126" y="34" font-size="4" fill="blue">TU</text>
<text x="9.854387368682126" y="39" font-size="4" fill="blue">9</text>
<rect x="11.354387368682126" y="20" width="2" height="9.5" stroke="black" stroke-width="0.1" fill-opacity="0" />
<path d="M36.28689865574677,20 l5,0 M41.28689865574677,20 a11.91702612385366,10.0,0,0,1,0,20 M41.28689865574677,40 l-5,0 M41.28689865574677,20 l-5,0 M36.28689865574677,20 l-9.515485163210982,10.0 M26.771413492535785,30.0 l9.515485163210982,10.0 M42.78689865574677,20" stroke-width="0.1" stroke="black" fill="black" fill-opacity="0.0" />
<text x="36.28689865574677" y="34" font-size="4" fill="blue">TU</text>
<text x="36.28689865574677" y="39" font-size="4" fill="blue">10</text>
<rect x="37.78689865574677" y="20" width="2" height="9.5" stroke="black" stroke-width="0.1" fill-opacity="0" />
<path d="M61.313067146715596,20 l5,0 M66.3130671467156,20 a17.199542468228902,10.0,0,0,1,0,20 M66.3130671467156,40 l-5,0 M66.3130671467156,20 l-5,0 M61.313067146715596,20 l-8.109142367115172,10.0 M53.20392477960043,30.0 l8.109142367115172,10.0 M67.8130671467156,20" stroke-width="0.1" stroke="black" fill="black" fill-opacity="0.0" />
<text x="61.313067146715596" y="34" font-size="4" fill="blue">TU</text>
<text x="61.313067146715596" y="39" font-size="4" fill="blue">11</text>
<rect x="62.813067146715596" y="20" width="2" height="9.5" stroke="black" stroke-width="0.1" fill-opacity="0" />
<path d="M92.3426993927102,20 l5,0 M97.3426993927102,20 a11.91702612385366,10.0,0,0,1,0,20 M97.3426993927102,40 l-5,0 M97.3426993927102,20 l-5,0 M92.3426993927102,20 l-8.830089777765703,10.0 M83.5126096149445,30.0 l8.830089777765703,10.0 M98.8426993927102,20" stroke-width="0.1" stroke="black" fill="black" fill-opacity="0.0" />
<text x="92.3426993927102" y="34" font-size="4" fill="blue">TU</text>
<text x="92.3426993927102" y="39" font-size="4" fill="blue">12</text>
<rect x="93.8426993927102" y="20" width="2" height="9.5" stroke="black" stroke-width="0.1" fill-opacity="0" />
<path d="M115.39299321702481,20 l5,0 M120.39299321702481,20 a17.199542468228902,10.0,0,0,1,0,20 M120.39299321702481,40 l-5,0 M120.39299321702481,20 l-5,0 M115.39299321702481,20 l-6.1332677004609515,10.0 M109.25972551656386,30.0 l6.1332677004609515,10.0 M121.89299321702481,20" stroke-width="0.1" stroke="black" fill="black" fill-opacity="0.0" />
<text x="115.39299321702481" y="34" font-size="4" fill="blue">TU</text>
<text x="115.39299321702481" y="39" font-size="4" fill="blue">13</text>
<rect x="116.89299321702481" y="20" width="2" height="9.5" stroke="black" stroke-width="0.1" fill-opacity="0" />
<path d="M143.72580338571467,20 l5,0 M148.72580338571467,20 a11.91702612385366,10.0,0,0,1,0,20 M148.72580338571467,40 l-5,0 M148.72580338571467,20 l-5,0 M143.72580338571467,20 l-6.1332677004609515,10.0 M137.59253568525372,30.0 l6.1332677004609515,10.0 M150.22580338571467,20" stroke-width="0.1" stroke="black" fill="black" fill-opacity="0.0" />
<text x="143.72580338571467" y="34" font-size="4" fill="blue">TU</text>
<text x="143.72580338571467" y="39" font-size="4" fill="blue">14</text>
<rect x="145.22580338571467" y="20" width="2" height="9.5" stroke="black" stroke-width="0.1" fill-opacity="0" />
<path d="M172.1697413646388,20 l5,0 M177.1697413646388,20 a11.91702612385366,10.0,0,0,1,0,20 M177.1697413646388,40 l-5,0 M177.1697413646388,20 l-5,0 M172.1697413646388,20 l-11.526911855070455,10.0 M160.64282950956834,30.0 l11.526911855070455,10.0 M178.6697413646388,20" stroke-width="0.1" stroke="black" fill="black" fill-opacity="0.0" />
<text x="172.1697413646388" y="34" font-size="4" fill="blue">TU</text>
<text x="172.1697413646388" y="39" font-size="4" fill="blue">15</text>
<rect x="173.6697413646388" y="20" width="2" height="9.5" stroke="black" stroke-width="0.1" fill-opacity="0" />
<path d="M200.61367934356292,20 l5,0 M205.61367934356292,20 a17.199542468228902,10.0,0,0,1,0,20 M205.61367934356292,40 l-5,0 M205.61367934356292,20 l-5,0 M200.61367934356292,20 l-11.526911855070455,10.0 M189.08676748849246,30.0 l11.526911855070455,10.0 M207.11367934356292,20" stroke-width="0.1" stroke="black" fill="black" fill-opacity="0.0" />
<text x="200.61367934356292" y="34" font-size="4" fill="blue">TU</text>
<text x="200.61367934356292" y="39" font-size="4" fill="blue">16</text>
<rect x="202.11367934356292" y="20" width="2" height="9.5" stroke="black" stroke-width="0.1" fill-opacity="0" />
<path d="M228.94648951225275,20 l5,0 M233.94648951225275,20 a11.91702612385366,10.0,0,0,1,0,20 M233.94648951225275,40 l-5,0 M233.94648951225275,20 l-5,0 M228.94648951225275,20 l-6.1332677004609515,10.0 M222.8132218117918,30.0 l6.1332677004609515,10.0 M235.44648951225275,20" stroke-width="0.1" stroke="black" fill="black" fill-opacity="0.0" />
<text x="228.94648951225275" y="34" font-size="4" fill="blue">TU</text>
<text x="228.94648951225275" y="39" font-size="4" fill="blue">17</text>
<rect x="230.44648951225275" y="20" width="2" height="9.5" stroke="black" stroke-width="0.1" fill-opacity="0" />
<path d="M257.39042749117687,20 l5,0 M262.39042749117687,20 a11.91702612385366,10.0,0,0,1,0,20 M262.39042749117687,40 l-5,0 M262.39042749117687,20 l-5,0 M257.39042749117687,20 l-11.526911855070455,10.0 M245.8635156361064,30.0 l11.526911855070455,10.0 M263.89042749117687,20" stroke-width="0.1" stroke="black" fill="black" fill-opacity="0.0" />
<text x="257.39042749117687" y="34" font-size="4" fill="blue">TU</text>
<text x="257.39042749117687" y="39" font-size="4" fill="blue">18</text>
<rect x="258.89042749117687" y="20" width="2" height="9.5" stroke="black" stroke-width="0.1" fill-opacity="0" />
<path d="M6.1332677004609515,40 l5,0 M11.133267700460951,40 a17.199542468228902,10.0,0,0,1,0,20 M11.133267700460951,60 l-5,0 M11.133267700460951,40 l-5,0 M6.1332677004609515,40 l-6.1332677004609515,10.0 M0.0,50.0 l6.1332677004609515,10.0 M12.633267700460951,40" stroke-width="0.1" stroke="black" fill="black" fill-opacity="0.0" />
<text x="6.1332677004609515" y="54" font-size="4" fill="blue">TU</text>
<text x="6.1332677004609515" y="59" font-size="4" fill="blue">19</text>
<rect x="7.6332677004609515" y="40" width="2" height="9.5" stroke="black" stroke-width="0.1" fill-opacity="0" />
<path d="M34.46607786915081,40 l5,0 M39.46607786915081,40 a11.91702612385366,10.0,0,0,1,0,20 M39.46607786915081,60 l-5,0 M39.46607786915081,40 l-5,0 M34.46607786915081,40 l-6.1332677004609515,10.0 M28.33281016868986,50.0 l6.1332677004609515,10.0 M40.96607786915081,40" stroke-width="0.1" stroke="black" fill="black" fill-opacity="0.0" />
<text x="34.46607786915081" y="54" font-size="4" fill="blue">TU</text>
<text x="34.46607786915081" y="59" font-size="4" fill="blue">20</text>
<rect x="35.96607786915081" y="40" width="2" height="9.5" stroke="black" stroke-width="0.1" fill-opacity="0" />
<path d="M62.91001584807492,40 l5,0 M67.91001584807492,40 a11.91702612385366,10.0,0,0,1,0,20 M67.91001584807492,60 l-5,0 M67.91001584807492,40 l-5,0 M62.91001584807492,40 l-11.526911855070455,10.0 M51.38310399300447,50.0 l11.526911855070455,10.0 M69.41001584807492,40" stroke-width="0.1" stroke="black" fill="black" fill-opacity="0.0" />
<text x="62.91001584807492" y="54" font-size="4" fill="blue">TU</text>
<text x="62.91001584807492" y="59" font-size="4" fill="blue">21</text>
<rect x="64.41001584807492" y="40" width="2" height="9.5" stroke="black" stroke-width="0.1" fill-opacity="0" />
<path d="M91.35395382699903,40 l5,0 M96.35395382699903,40 a11.91702612385366,10.0,0,0,1,0,20 M96.35395382699903,60 l-5,0 M96.35395382699903,40 l-5,0 M91.35395382699903,40 l-11.526911855070455,10.0 M79.82704197192858,50.0 l11.526911855070455,10.0 M97.85395382699903,40" stroke-width="0.1" stroke="black" fill="black" fill-opacity="0.0" />
<text x="91.35395382699903" y="54" font-size="4" fill="blue">TU</text>
<text x="91.35395382699903" y="59" font-size="4" fill="blue">22</text>
<rect x="92.85395382699903" y="40" width="2" height="9.5" stroke="black" stroke-width="0.1" fill-opacity="0" />
<path d="M119.79789180592314,40 l5,0 M124.79789180592314,40 a11.91702612385366,10.0,0,0,1,0,20 M124.79789180592314,60 l-5,0 M124.79789180592314,40 l-5,0 M119.79789180592314,40 l-11.526911855070455,10.0 M108.27097995085269,50.0 l11.526911855070455,10.0 M126.29789180592314,40" stroke-width="0.1" stroke="black" fill="black" fill-opacity="0.0" />
<text x="119.79789180592314" y="54" font-size="4" fill="blue">TU</text>
<text x="119.79789180592314" y="59" font-size="4" fill="blue">23</text>
<rect x="121.29789180592314" y="40" width="2" height="9.5" stroke="black" stroke-width="0.1" fill-opacity="0" />
</svg>