<?xml version="1.0" encoding="UTF-8"?>
<svg xmlns="http://www.w3.org/2000/svg" xmlns:xlink="http://www.w3.org/1999/xlink"
     width="1128.1906642222536" height="1504.2542189630049" viewBox="0 0 300 400">
<defs>
</defs>
<path d="M9.407944910907258,0 l5,0 M14.407944910907258,0 a15.389979984581597,10.0,0,0,1,0,20 M14.407944910907258,20 l-5,0 M14.407944910907258,0 l-5,0 M9.407944910907258,0 l-9.407944910907258,10.0 M0.0,10.0 l9.407944910907258,10.0 M15.907944910907258,0" stroke-width="0.1" stroke="black" fill="black" fill-opacity="0.0" />
<text x="9.407944910907258" y="14" font-size="4" fill="blue">WB</text>
<text x="9.407944910907258" y="19" font-size="4" fill="blue">0</text>
<rect x="10.907944910907258" y="0" width="2" height="9.5" stroke="black" stroke-width="0.1" fill-opacity="0" />
<path d="M39.61147693042851,0 l5,0 M44.61147693042851,0 a15.882493789297104,10.0,0,0,1,0,20 M44.61147693042851,20 l-5,0 M44.61147693042851,0 l-5,0 M39.61147693042851,0 l-9.81355203493965,10.0 M29.797924895488862,10.0 l9.81355203493965,10.0 M46.11147693042851,0" stroke-width="0.1" stroke="black" fill="black" fill-opacity="0.0" />
<text x="39.61147693042851" y="14" font-size="4" fill="blue">WB</text>
<text x="39.61147693042851" y="19" font-size="4" fill="blue">1</text>
<rect x="41.11147693042851" y="0" width="2" height="9.5" stroke="black" stroke-width="0.1" fill-opacity="0" />
<path d="M70.736758077991,0 l5,0 M75.736758077991,0 a16.090190820701213,10.0,0,0,1,0,20 M75.736758077991,20 l-5,0 M75.736758077991,0 l-5,0 M70.736758077991,0 l-10.242787358265385,10.0 M60.49397071972561,10.0 l10.242787358265385,10.0 M77.236758077991,0" stroke-width="0.1" stroke="black" fill="black" fill-opacity="0.0" />
<text x="70.736758077991" y="14" font-size="4" fill="blue">WB</text>
<text x="70.736758077991" y="19" font-size="4" fill="blue">2</text>
<rect x="72.236758077991" y="0" width="2" height="9.5" stroke="black" stroke-width="0.1" fill-opacity="0" />
<path d="M103.40262616149293,0 l5,0 M108.40262616149293,0 a15.786976107489805,10.0,0,0,1,0,20 M108.40262616149293,20 l-5,0 M108.40262616149293,0 l-5,0 M103.40262616149293,0 l-11.575677262800722,10.0 M91.82694889869221,10.0 l11.575677262800722,10.0 M109.90262616149293,0" stroke-width="0.1" stroke="black" fill="black" fill-opacity="0.0" />
<text x="103.40262616149293" y="14" font-size="4" fill="blue">WB</text>
<text x="103.40262616149293" y="19" font-size="4" fill="blue">3</text>
<rect x="104.90262616149293" y="0" width="2" height="9.5" stroke="black" stroke-width="0.1" fill-opacity="0" />
<path d="M137.59845634577164,0 l5,0 M142.59845634577164,0 a15.50177093705657,10.0,0,0,1,0,20 M142.59845634577164,20 l-5,0 M142.59845634577164,0 l-5,0 M137.59845634577164,0 l-13.408854076788895,10.0 M124.18960226898275,10.0 l13.408854076788895,10.0 M144.09845634577164,0" stroke-width="0.1" stroke="black" fill="black" fill-opacity="0.0" />
<text x="137.59845634577164" y="14" font-size="4" fill="blue">WB</text>
<text x="137.59845634577164" y="19" font-size="4" fill="blue">4</text>
<rect x="139.09845634577164" y="0" width="2" height="9.5" stroke="black" stroke-width="0.1" fill-opacity="0" />
<path d="M172.2845656492691,0 l5,0 M177.2845656492691,0 a14.607217308079086,10.0,0,0,1,0,20 M177.2845656492691,20 l-5,0 M177.2845656492691,0 l-5,0 M172.2845656492691,0 l-14.184338366440883,10.0 M158.1002272828282,10.0 l14.184338366440883,10.0 M178.7845656492691,0" stroke-width="0.1" stroke="black" fill="black" fill-opacity="0.0" />
<text x="172.2845656492691" y="14" font-size="4" fill="blue">WB</text>
<text x="172.2845656492691" y="19" font-size="4" fill="blue">5</text>
<rect x="173.7845656492691" y="0" width="2" height="9.5" stroke="black" stroke-width="0.1" fill-opacity="0" />
<path d="M204.17254738440042,0 l5,0 M209.17254738440042,0 a16.188311351199896,10.0,0,0,1,0,20 M209.17254738440042,20 l-5,0 M209.17254738440042,0 l-5,0 M204.17254738440042,0 l-12.28076442705224,10.0 M191.89178295734817,10.0 l12.28076442705224,10.0 M210.67254738440042,0" stroke-width="0.1" stroke="black" fill="black" fill-opacity="0.0" />
<text x="204.17254738440042" y="14" font-size="4" fill="blue">WB</text>
<text x="204.17254738440042" y="19" font-size="4" fill="blue">6</text>
<rect x="205.67254738440042" y="0" width="2" height="9.5" stroke="black" stroke-width="0.1" fill-opacity="0" />
<path d="M241.21048127242318,0 l5,0 M246.21048127242318,0 a19.496696943151782,10.0,0,0,1,0,20 M246.21048127242318,20 l-5,0 M246.21048127242318,0 l-5,0 M241.21048127242318,0 l-15.849622536822901,10.0 M225.3608587356003,10.0 l15.849622536822901,10.0 M247.71048127242318,0" stroke-width="0.1" stroke="black" fill="black" fill-opacity="0.0" />
<text x="241.21048127242318" y="14" font-size="4" fill="blue">WB</text>
<text x="241.21048127242318" y="19" font-size="4" fill="blue">7</text>
<rect x="242.71048127242318" y="0" width="2" height="9.5" stroke="black" stroke-width="0.1" fill-opacity="0" />
<path d="M11.921966766642402,20 l5,0 M16.921966766642402,20 a22.137955115339402,10.0,0,0,1,0,20 M16.921966766642402,40 l-5,0 M16.921966766642402,20 l-5,0 M11.921966766642402,20 l-11.921966766642402,10.0 M0.0,30.0 l11.921966766642402,10.0 M18.421966766642402,20" stroke-width="0.1" stroke="black" fill="black" fill-opacity="0.0" />
<text x="11.921966766642402" y="34" font-size="4" fill="blue">WB</text>
<text x="11.921966766642402" y="39" font-size="4" fill="blue">8</text>
<rect x="13.421966766642402" y="20" width="2" height="9.5" stroke="black" stroke-width="0.1" fill-opacity="0" />
<path d="M53.49134761984166,20 l5,0 M58.49134761984166,20 a16.855438770964156,10.0,0,0,1,0,20 M58.49134761984166,40 l-5,0 M58.49134761984166,20 l-5,0 M53.49134761984166,20 l-14.431425737859856,10.0 M39.05992188198181,30.0 l14.431425737859856,10.0 M59.99134761984166,20" stroke-width="0.1" stroke="black" fill="black" fill-opacity="0.0" />
<text x="53.49134761984166" y="34" font-size="4" fill="blue">WB</text>
<text x="53.49134761984166" y="39" font-size="4" fill="blue">9</text>
<rect x="54.99134761984166" y="20" width="2" height="9.5" stroke="black" stroke-width="0.1" fill-opacity="0" />
<path d="M88.088033318424,20 l5,0 M93.088033318424,20 a16.855438770964156,10.0,0,0,1,0,20 M93.088033318424,40 l-5,0 M93.088033318424,20 l-5,0 M88.088033318424,20 l-12.741246927618183,10.0 M75.34678639080582,30.0 l12.741246927618183,10.0 M94.588033318424,20" stroke-width="0.1" stroke="black" fill="black" fill-opacity="0.0" />
<text x="88.088033318424" y="34" font-size="4" fill="blue">WB</text>
<text x="88.088033318424" y="39" font-size="4" fill="blue">10</text>
<rect x="89.588033318424" y="20" width="2" height="9.5" stroke="black" stroke-width="0.1" fill-opacity="0" />
<path d="M121.24219998207194,20 l5,0 M126.24219998207194,20 a16.855438770964156,10.0,0,0,1,0,20 M126.24219998207194,40 l-5,0 M126.24219998207194,20 l-5,0 M121.24219998207194,20 l-11.298727892683768,10.0 M109.94347208938817,30.0 l11.298727892683768,10.0 M127.74219998207194,20" stroke-width="0.1" stroke="black" fill="black" fill-opacity="0.0" />
<text x="121.24219998207194" y="34" font-size="4" fill="blue">WB</text>
<text x="121.24219998207194" y="39" font-size="4" fill="blue">11</text>
<rect x="122.74219998207194" y="20" width="2" height="9.5" stroke="black" stroke-width="0.1" fill-opacity="0" />
<path d="M154.26612099531988,20 l5,0 M159.26612099531988,20 a16.855438770964156,10.0,0,0,1,0,20 M159.26612099531988,40 l-5,0 M159.26612099531988,20 l-5,0 M154.26612099531988,20 l-11.168482242283769,10.0 M143.0976387530361,30.0 l11.168482242283769,10.0 M160.76612099531988,20" stroke-width="0.1" stroke="black" fill="black" fill-opacity="0.0" />
<text x="154.26612099531988" y="34" font-size="4" fill="blue">WB</text>
<text x="154.26612099531988" y="39" font-size="4" fill="blue">12</text>
<rect x="155.76612099531988" y="20" width="2" height="9.5" stroke="black" stroke-width="0.1" fill-opacity="0" />
<path d="M184.59321993126306,20 l5,0 M189.59321993126306,20 a22.137955115339402,10.0,0,0,1,0,20 M189.59321993126306,40 l-5,0 M189.59321993126306,20 l-5,0 M184.59321993126306,20 l-8.471660164979017,10.0 M176.12155976628404,30.0 l8.471660164979017,10.0 M191.09321993126306,20" stroke-width="0.1" stroke="black" fill="black" fill-opacity="0.0" />
<text x="184.59321993126306" y="34" font-size="4" fill="blue">WB</text>
<text x="184.59321993126306" y="39" font-size="4" fill="blue">13</text>
<rect x="186.09321993126306" y="20" width="2" height="9.5" stroke="black" stroke-width="0.1" fill-opacity="0" />
<path d="M225.59647936619098,20 l5,0 M230.59647936619098,20 a16.855438770964156,10.0,0,0,1,0,20 M230.59647936619098,40 l-5,0 M230.59647936619098,20 l-5,0 M225.59647936619098,20 l-13.86530431958852,10.0 M211.73117504660246,30.0 l13.86530431958852,10.0 M232.09647936619098,20" stroke-width="0.1" stroke="black" fill="black" fill-opacity="0.0" />
<text x="225.59647936619098" y="34" font-size="4" fill="blue">WB</text>
<text x="225.59647936619098" y="39" font-size="4" fill="blue">14</text>
<rect x="227.09647936619098" y="20" width="2" height="9.5" stroke="black" stroke-width="0.1" fill-opacity="0" />
<path d="M255.92357830213416,20 l5,0 M260.92357830213416,20 a16.855438770964156,10.0,0,0,1,0,20 M260.92357830213416,40 l-5,0 M260.92357830213416,20 l-5,0 M255.92357830213416,20 l-8.471660164979017,10.0 M247.45191813715513,30.0 l8.471660164979017,10.0 M262.42357830213416,20" stroke-width="0.1" stroke="black" fill="black" fill-opacity="0.0" />
<text x="255.92357830213416" y="34" font-size="4" fill="blue">WB</text>
<text x="255.92357830213416" y="39" font-size="4" fill="blue">15</text>
<rect x="257.42357830213416" y="20" width="2" height="9.5" stroke="black" stroke-width="0.1" fill-opacity="0" />
<path d="M8.471660164979017,40 l5,0 M13.471660164979017,40 a22.137955115339402,10.0,0,0,1,0,20 M13.471660164979017,60 l-5,0 M13.471660164979017,40 l-5,0 M8.471660164979017,40 l-8.471660164979017,10.0 M0.0,50.0 l8.471660164979017,10.0 M14.971660164979017,40" stroke-width="0.1" stroke="black" fill="black" fill-opacity="0.0" />
<text x="8.471660164979017" y="54" font-size="4" fill="blue">WB</text>
<text x="8.471660164979017" y="59" font-size="4" fill="blue">16</text>
<rect x="9.971660164979017" y="40" width="2" height="9.5" stroke="black" stroke-width="0.1" fill-opacity="0" />
<path d="M44.081275445297436,40 l5,0 M49.081275445297436,40 a16.855438770964156,10.0,0,0,1,0,20 M49.081275445297436,60 l-5,0 M49.081275445297436,40 l-5,0 M44.081275445297436,40 l-8.471660164979017,10.0 M35.60961528031842,50.0 l8.471660164979017,10.0 M50.581275445297436,40" stroke-width="0.1" stroke="black" fill="black" fill-opacity="0.0" />
<text x="44.081275445297436" y="54" font-size="4" fill="blue">WB</text>
<text x="44.081275445297436" y="59" font-size="4" fill="blue">17</text>
<rect x="45.581275445297436" y="40" width="2" height="9.5" stroke="black" stroke-width="0.1" fill-opacity="0" />
<path d="M74.4083743812406,40 l5,0 M79.4083743812406,40 a22.137955115339402,10.0,0,0,1,0,20 M79.4083743812406,60 l-5,0 M79.4083743812406,40 l-5,0 M74.4083743812406,40 l-8.471660164979017,10.0 M65.93671421626159,50.0 l8.471660164979017,10.0 M80.9083743812406,40" stroke-width="0.1" stroke="black" fill="black" fill-opacity="0.0" />
<text x="74.4083743812406" y="54" font-size="4" fill="blue">WB</text>
<text x="74.4083743812406" y="59" font-size="4" fill="blue">18</text>
<rect x="75.9083743812406" y="40" width="2" height="9.5" stroke="black" stroke-width="0.1" fill-opacity="0" />
<path d="M110.01798966155903,40 l5,0 M115.01798966155903,40 a16.855438770964156,10.0,0,0,1,0,20 M115.01798966155903,60 l-5,0 M115.01798966155903,40 l-5,0 M110.01798966155903,40 l-8.471660164979017,10.0 M101.54632949658001,50.0 l8.471660164979017,10.0 M116.51798966155903,40" stroke-width="0.1" stroke="black" fill="black" fill-opacity="0.0" />
<text x="110.01798966155903" y="54" font-size="4" fill="blue">WB</text>
<text x="110.01798966155903" y="59" font-size="4" fill="blue">19</text>
<rect x="111.51798966155903" y="40" width="2" height="9.5" stroke="black" stroke-width="0.1" fill-opacity="0" />
<path d="M145.7387327521117,40 l5,0 M150.7387327521117,40 a16.855438770964156,10.0,0,0,1,0,20 M150.7387327521117,60 l-5,0 M150.7387327521117,40 l-5,0 M145.7387327521117,40 l-13.86530431958852,10.0 M131.87342843252318,50.0 l13.86530431958852,10.0 M152.2387327521117,40" stroke-width="0.1" stroke="black" fill="black" fill-opacity="0.0" />
<text x="145.7387327521117" y="54" font-size="4" fill="blue">WB</text>
<text x="145.7387327521117" y="59" font-size="4" fill="blue">20</text>
<rect x="147.2387327521117" y="40" width="2" height="9.5" stroke="black" stroke-width="0.1" fill-opacity="0" />
<path d="M181.45947584266438,40 l5,0 M186.45947584266438,40 a22.137955115339402,10.0,0,0,1,0,20 M186.45947584266438,60 l-5,0 M186.45947584266438,40 l-5,0 M181.45947584266438,40 l-13.86530431958852,10.0 M167.59417152307586,50.0 l13.86530431958852,10.0 M187.95947584266438,40" stroke-width="0.1" stroke="black" fill="black" fill-opacity="0.0" />
<text x="181.45947584266438" y="54" font-size="4" fill="blue">WB</text>
<text x="181.45947584266438" y="59" font-size="4" fill="blue">21</text>
<rect x="182.95947584266438" y="40" width="2" height="9.5" stroke="black" stroke-width="0.1" fill-opacity="0" />
<path d="M222.4627352775923,40 l5,0 M227.4627352775923,40 a22.137955115339402,10.0,0,0,1,0,20 M227.4627352775923,60 l-5,0 M227.4627352775923,40 l-5,0 M222.4627352775923,40 l-13.86530431958852,10.0 M208.59743095800377,50.0 l13.86530431958852,10.0 M228.9627352775923,40" stroke-width="0.1" stroke="black" fill="black" fill-opacity="0.0" />
<text x="222.4627352775923" y="54" font-size="4" fill="blue">WB</text>
<text x="222.4627352775923" y="59" font-size="4" fill="blue">22</text>
<rect x="223.9627352775923" y="40" width="2" height="9.5" stroke="black" stroke-width="0.1" fill-opacity="0" />
<path d="M258.0723505579107,40 l5,0 M263.0723505579107,40 a16.855438770964156,10.0,0,0,1,0,20 M263.0723505579107,60 l-5,0 M263.0723505579107,40 l-5,0 M258.0723505579107,40 l-8.471660164979017,10.0 M249.60069039293165,50.0 l8.471660164979017,10.0 M264.5723505579107,40" stroke-width="0.1" stroke="black" fill="black" fill-opacity="0.0" />
<text x="258.0723505579107" y="54" font-size="4" fill="blue">WB</text>
<text x="258.0723505579107" y="59" font-size="4" fill="blue">23</text>
<rect x="259.5723505579107" y="40" width="2" height="9.5" stroke="black" stroke-width="0.1" fill-opacity="0" />
</svg>